if (_typeface_js && _typeface_js.loadFace) _typeface_js.loadFace({"glyphs":{"0":{"ha":643,"x_min":47,"x_max":607,"o":"m 607 551 q 525 153 607 318 q 328 -11 443 -11 q 129 153 211 -11 q 47 551 47 318 q 129 948 47 783 q 328 1113 211 1113 q 525 948 443 1113 q 607 551 607 783 m 556 550 q 489 925 556 769 q 328 1081 422 1081 q 167 925 233 1081 q 100 550 100 769 q 167 175 100 331 q 328 19 233 19 q 489 175 422 19 q 556 550 556 331 z "},"1":{"ha":385,"x_min":46,"x_max":356,"o":"m 356 15 q 343 -6 356 -6 q 286 1 325 -6 q 228 7 247 7 q 162 -1 206 7 q 96 -8 118 -8 q 65 13 65 -8 q 118 47 65 47 q 185 46 151 47 q 190 266 185 118 q 196 489 196 414 q 190 810 196 668 l 189 849 q 179 1008 185 901 q 116 951 151 976 q 64 925 81 925 q 46 942 46 925 q 74 963 46 949 q 133 1005 110 982 q 178 1076 156 1028 q 201 1118 178 1118 q 242 1050 242 1118 q 239 950 242 1013 q 235 849 235 869 q 229 501 229 690 l 229 357 q 226 201 229 301 q 224 44 224 94 q 342 35 286 42 q 356 15 356 32 z "},"2":{"ha":524,"x_min":57,"x_max":474,"o":"m 474 -7 q 467 -12 474 -18 q 383 33 438 11 q 293 54 329 54 q 177 19 236 54 q 118 -15 118 -15 q 80 -1 103 -15 q 57 24 57 13 q 139 178 57 58 q 292 435 244 331 q 375 803 375 617 q 339 1018 375 940 q 258 1089 307 1089 q 161 997 203 1089 q 115 725 115 894 q 178 547 115 547 q 222 597 204 547 q 240 731 240 646 q 224 850 240 799 q 207 892 207 901 q 219 903 207 903 q 251 861 231 903 q 279 722 279 806 q 249 580 279 632 q 175 528 218 528 q 92 594 121 528 q 64 750 64 654 q 125 1024 64 924 q 258 1111 179 1111 q 379 1038 329 1111 q 433 822 433 956 q 344 456 433 650 q 179 178 286 329 q 90 40 90 50 q 99 36 90 36 q 123 55 97 36 q 181 86 149 74 q 276 103 225 103 q 419 53 351 103 q 474 -7 474 13 z "},"3":{"ha":546,"x_min":56,"x_max":508,"o":"m 508 313 q 438 92 508 186 q 256 -8 364 -8 q 104 69 160 -8 q 56 236 56 138 q 94 383 56 321 q 197 444 132 444 q 281 400 244 444 q 321 263 321 349 q 299 185 321 222 q 271 153 281 153 q 263 165 263 153 q 273 192 263 161 q 283 263 283 224 q 260 381 283 338 q 203 419 238 419 q 127 363 156 419 q 99 228 99 306 q 135 82 99 140 q 250 14 176 14 q 399 107 340 14 q 453 314 453 194 q 318 585 453 510 q 256 565 289 565 q 217 593 217 565 q 247 624 217 624 q 311 614 288 624 q 390 724 360 647 q 421 879 421 800 q 383 1021 421 967 q 261 1083 342 1083 q 97 975 169 1083 q 92 974 94 974 q 78 985 78 974 q 78 988 78 986 q 257 1110 144 1110 q 431 1043 371 1110 q 483 889 483 985 q 445 728 483 808 q 343 599 407 649 q 508 313 508 510 z "},"4":{"ha":536,"x_min":21,"x_max":507,"o":"m 507 15 q 494 -6 507 -6 q 438 1 476 -6 q 379 7 399 7 q 313 -1 357 7 q 247 -8 269 -8 q 217 13 217 -8 q 269 47 217 47 q 336 46 303 47 q 335 300 336 163 l 63 304 q 21 369 21 304 q 74 442 21 371 q 174 628 138 524 q 215 886 215 742 q 203 1033 215 957 q 190 1108 190 1110 q 193 1115 190 1115 q 215 1096 208 1115 q 256 849 256 986 q 208 582 256 711 q 121 399 171 476 q 79 340 79 335 q 88 333 79 333 q 335 338 81 333 q 329 840 332 511 q 353 881 329 881 q 394 814 394 881 q 388 586 394 746 q 381 357 381 419 l 381 339 l 432 339 q 454 322 454 339 q 421 300 454 300 l 381 300 q 375 44 378 215 q 493 35 438 42 q 507 15 507 32 z "},"5":{"ha":558,"x_min":56,"x_max":519,"o":"m 519 1110 q 515 1096 519 1103 q 336 972 447 972 q 240 992 289 972 q 177 1025 207 1004 q 149 1046 147 1046 q 139 1036 139 1046 q 121 804 139 1032 q 103 574 103 576 q 113 568 103 568 q 163 596 103 568 q 286 624 224 624 q 451 528 389 624 q 508 318 508 442 q 444 94 508 188 q 256 -8 375 -8 q 104 69 160 -8 q 56 236 56 138 q 94 383 56 321 q 197 444 132 444 q 281 400 244 444 q 321 263 321 349 q 299 185 321 222 q 271 153 281 153 q 263 165 263 153 q 273 192 263 161 q 283 263 283 224 q 260 381 283 338 q 203 419 238 419 q 127 363 156 419 q 99 228 99 306 q 135 82 99 140 q 250 14 176 14 q 403 114 344 14 q 454 326 454 203 q 415 513 454 439 q 290 597 371 597 q 170 558 225 597 q 113 518 115 518 q 74 565 74 518 q 92 828 74 572 q 110 1092 110 1083 q 151 1115 110 1115 q 236 1067 158 1115 q 368 1019 314 1019 q 497 1113 447 1019 q 510 1122 503 1122 q 519 1110 519 1122 z "},"6":{"ha":572,"x_min":46,"x_max":528,"o":"m 528 296 q 471 83 528 169 q 294 -14 407 -14 q 128 93 194 -14 q 46 472 46 222 q 163 961 46 776 q 383 1119 263 1119 q 482 1067 449 1119 q 513 944 513 1021 q 469 764 513 847 q 364 676 424 676 q 296 715 321 676 q 271 815 271 753 q 294 899 271 863 q 321 926 313 926 q 328 919 328 926 q 318 894 328 925 q 308 821 308 863 q 363 697 308 697 q 440 778 407 697 q 472 942 472 854 q 374 1101 472 1101 q 200 943 279 1101 q 107 467 107 758 q 111 363 107 413 q 188 524 132 460 q 326 593 249 593 q 476 500 419 593 q 528 296 528 415 m 479 297 q 439 482 479 406 q 321 565 394 565 q 182 465 239 565 q 124 264 131 376 q 199 72 147 139 q 299 17 244 17 q 435 104 385 17 q 479 297 479 183 z "},"7":{"ha":578,"x_min":50,"x_max":571,"o":"m 571 1082 q 564 1065 571 1072 q 400 861 479 986 q 249 540 301 708 q 167 157 196 372 q 140 -7 146 -7 q 96 24 96 -7 q 114 186 96 75 q 201 526 143 360 q 340 817 251 667 q 490 1032 418 949 q 272 983 415 983 q 124 1021 206 983 q 50 1068 50 1054 q 60 1092 50 1081 q 82 1103 69 1103 q 177 1063 92 1103 q 333 1024 263 1024 q 479 1063 406 1024 q 554 1101 553 1101 q 571 1082 571 1101 z "},"8":{"ha":564,"x_min":50,"x_max":519,"o":"m 519 210 q 451 40 519 101 q 285 -15 388 -15 q 119 38 185 -15 q 50 182 50 92 q 124 358 50 274 q 246 457 174 415 q 72 807 72 593 q 146 1038 72 949 q 299 1119 213 1119 q 429 1047 378 1119 q 486 821 486 967 q 438 616 486 711 q 313 467 390 521 q 454 353 436 371 q 519 210 519 286 m 442 829 q 399 1035 442 961 q 300 1100 360 1100 q 182 1021 232 1100 q 126 799 126 935 q 290 483 126 615 q 442 829 442 615 m 474 181 q 410 332 474 267 q 269 439 393 349 q 97 183 97 332 q 149 58 97 108 q 288 7 200 7 q 422 56 371 7 q 474 181 474 106 z "},"9":{"ha":572,"x_min":44,"x_max":526,"o":"m 526 633 q 451 144 526 310 q 244 -14 379 -14 q 99 57 150 -14 q 61 163 61 108 q 79 189 61 189 q 100 165 100 189 q 135 63 100 110 q 254 6 178 6 q 408 164 353 6 q 465 640 465 329 q 463 743 465 693 q 385 583 440 647 q 246 513 325 513 q 96 606 153 513 q 44 811 44 690 q 101 1022 44 938 q 278 1119 165 1119 q 446 1013 378 1119 q 526 633 526 883 m 450 842 q 374 1033 426 967 q 275 1090 328 1090 q 139 1001 188 1090 q 94 810 94 924 q 135 624 94 700 q 251 540 179 540 q 392 640 333 540 q 450 842 442 729 z "}," ":{"ha":285,"x_min":0,"x_max":0,"o":""},"!":{"ha":283,"x_min":124,"x_max":232,"o":"m 232 1039 q 217 868 232 1054 q 186 178 208 749 q 165 142 185 142 q 146 164 146 142 q 154 349 146 233 q 165 535 164 492 q 172 825 172 700 q 169 923 172 857 q 167 1022 167 989 q 168 1063 167 1058 q 193 1088 172 1088 q 232 1039 232 1088 m 213 32 q 168 -10 213 -10 q 124 32 124 -10 q 168 74 124 74 q 213 32 213 74 z "},"\"":{"ha":274,"x_min":51,"x_max":235,"o":"m 235 922 q 220 826 235 881 q 188 744 206 772 q 178 739 183 739 q 171 746 171 739 q 181 773 171 744 q 190 835 190 801 q 174 883 190 857 q 158 921 158 908 q 196 964 158 964 q 235 922 235 964 m 126 922 q 113 826 126 881 q 81 744 99 772 q 71 739 76 739 q 63 746 63 739 q 73 773 63 744 q 83 835 83 801 q 67 883 83 857 q 51 921 51 908 q 89 964 51 964 q 126 922 126 964 z "},"#":{"ha":608,"x_min":24,"x_max":575,"o":"m 575 703 q 536 669 575 669 q 424 674 493 669 l 381 542 l 518 540 q 528 532 528 540 q 488 499 528 499 q 368 504 446 499 q 257 153 318 336 q 235 142 250 142 q 219 156 219 142 q 335 507 219 172 q 274 508 299 508 q 199 507 235 508 q 86 153 147 338 q 65 142 79 142 q 50 156 50 142 q 165 506 50 172 q 105 499 147 506 q 39 493 63 493 q 24 507 24 493 q 71 560 24 560 q 125 556 92 560 q 179 549 165 549 q 218 676 200 617 q 153 669 200 675 q 88 664 111 664 q 71 678 71 664 q 119 731 71 731 q 175 725 140 731 q 231 718 218 719 q 313 1021 244 764 q 357 1088 329 1088 q 386 1060 386 1088 q 333 897 386 1040 q 268 715 300 807 q 399 711 326 713 q 482 1021 414 763 q 526 1088 499 1088 q 556 1060 556 1088 q 503 894 556 1040 q 436 711 469 803 l 565 711 q 575 703 575 711 m 389 676 q 321 679 349 679 q 254 678 286 679 l 211 546 q 347 542 272 543 q 389 676 369 614 z "},"$":{"ha":431,"x_min":31,"x_max":383,"o":"m 383 311 q 256 142 383 175 q 257 76 257 108 q 236 0 257 0 q 217 40 221 0 q 217 136 215 60 q 206 136 211 136 q 81 176 131 136 q 31 288 31 217 q 60 374 31 338 q 117 411 89 411 q 135 397 135 411 q 123 383 135 383 q 96 361 111 383 q 75 289 75 332 q 111 198 75 235 q 208 161 147 161 q 217 161 213 161 l 217 167 l 218 463 q 111 558 140 518 q 61 722 61 625 q 107 892 61 810 q 225 996 157 981 l 226 1050 q 240 1107 228 1107 q 254 1058 254 1107 q 254 997 254 1029 q 371 828 371 993 q 338 676 371 749 q 246 579 301 596 q 247 501 246 543 q 340 422 317 450 q 383 311 383 371 m 326 833 q 254 974 326 971 q 250 792 253 936 q 246 608 246 674 q 301 689 279 631 q 326 833 326 753 m 225 969 q 142 881 176 951 q 107 715 107 810 q 218 524 107 611 l 218 575 q 157 607 181 575 q 136 668 136 633 q 154 729 136 704 q 181 749 169 749 q 194 738 194 749 q 193 732 194 735 l 190 728 q 174 672 174 706 q 187 621 174 643 q 218 599 200 599 l 219 599 q 225 969 221 793 m 339 289 q 249 440 339 371 l 256 169 q 316 218 293 185 q 339 289 339 251 z "},"%":{"ha":783,"x_min":56,"x_max":744,"o":"m 744 290 q 700 71 744 163 q 590 -21 656 -21 q 479 71 524 -21 q 435 290 435 163 q 479 510 435 418 q 590 601 524 601 q 700 510 656 601 q 744 290 744 418 m 633 1058 q 528 783 633 1024 q 394 479 461 631 l 332 322 q 183 -29 288 213 q 161 -53 174 -53 q 143 -33 143 -53 q 240 207 143 -18 q 358 478 299 343 q 486 800 403 585 q 526 924 497 835 q 365 801 451 822 l 365 800 q 321 581 365 672 q 211 489 276 489 q 100 581 144 489 q 56 800 56 672 q 100 1019 56 928 q 211 1111 144 1111 q 316 1030 272 1111 q 365 831 360 949 q 488 917 429 849 q 578 1050 521 957 q 611 1090 601 1090 q 633 1058 633 1090 m 324 824 q 265 1049 319 974 q 210 1015 233 1049 q 188 938 188 981 q 217 860 188 889 q 314 824 250 824 q 324 824 318 824 m 325 796 l 322 796 q 194 839 239 796 q 157 935 157 876 q 183 1020 157 982 q 253 1064 210 1058 q 211 1085 232 1085 q 131 1001 165 1085 q 97 800 97 918 q 131 597 97 681 q 211 513 165 513 q 290 596 256 513 q 325 796 324 679 m 704 290 q 669 492 704 408 q 590 575 635 575 q 510 492 544 575 q 476 290 476 408 q 510 87 476 171 q 590 3 544 3 q 669 87 635 3 q 704 290 704 171 z "},"&":{"ha":726,"x_min":53,"x_max":708,"o":"m 708 121 q 693 100 708 100 q 619 106 668 100 q 547 113 571 111 q 569 18 569 67 q 496 -144 569 -76 q 301 -217 418 -217 q 135 -153 204 -217 q 53 64 53 -76 q 125 264 53 172 q 232 357 172 322 q 76 699 76 478 q 157 989 76 864 q 368 1121 243 1121 q 493 1049 450 1121 q 532 883 532 985 q 485 661 532 763 q 367 557 433 557 q 290 605 324 557 q 257 729 257 653 q 282 839 257 792 q 310 875 300 875 q 318 865 318 875 q 306 833 318 874 q 293 736 293 792 q 314 626 293 672 q 365 581 335 581 q 453 674 415 581 q 486 874 486 763 q 457 1032 486 971 q 358 1101 424 1101 q 204 996 278 1101 q 126 732 126 882 q 154 551 126 632 q 213 440 175 492 q 260 379 236 410 q 385 407 319 407 q 464 391 432 407 q 496 349 496 375 q 469 312 496 329 q 406 294 443 294 q 257 338 322 294 q 110 64 110 228 q 161 -117 110 -47 q 313 -192 217 -192 q 472 -119 410 -192 q 529 39 529 -54 q 518 111 529 76 q 437 104 478 111 q 364 97 396 97 q 328 118 328 97 q 386 153 328 153 l 388 153 q 690 140 557 153 q 708 121 708 138 m 451 346 q 385 388 451 388 q 283 357 333 388 q 400 314 336 314 q 451 346 451 314 z "},"'":{"ha":153,"x_min":51,"x_max":126,"o":"m 126 922 q 112 826 126 881 q 79 744 97 772 q 71 739 76 739 q 63 746 63 739 q 73 773 63 744 q 83 835 83 801 q 67 883 83 857 q 51 921 51 908 q 89 964 51 964 q 126 922 126 964 z "},"(":{"ha":444,"x_min":90,"x_max":376,"o":"m 376 1118 q 336 1067 376 1115 q 200 821 250 961 q 150 543 150 681 q 371 -33 150 243 q 375 -46 375 -39 q 358 -64 375 -64 q 310 -8 349 -64 q 90 543 90 299 q 157 833 90 678 q 310 1090 215 968 q 358 1138 347 1138 q 376 1118 376 1138 z "},")":{"ha":444,"x_min":74,"x_max":363,"o":"m 363 535 q 294 242 363 399 q 140 -15 236 106 q 92 -64 103 -64 q 74 -44 74 -64 q 114 7 74 -42 q 251 255 201 114 q 301 535 301 396 q 78 1114 301 836 q 74 1126 74 1121 q 90 1144 74 1144 q 140 1090 101 1144 q 363 535 363 779 z "},"*":{"ha":379,"x_min":46,"x_max":342,"o":"m 342 731 q 329 710 342 710 q 275 715 310 710 q 219 722 236 721 q 285 622 285 636 q 261 597 285 597 q 185 693 239 597 q 151 629 174 671 q 129 607 139 607 q 114 617 121 607 q 107 635 107 626 q 147 715 107 649 q 76 707 99 707 q 46 728 46 707 q 92 763 46 763 l 149 763 q 115 844 115 833 q 140 865 115 865 q 149 859 144 865 q 186 775 153 853 q 261 868 249 868 q 285 850 285 868 q 283 844 285 849 q 256 803 276 826 q 222 761 224 763 q 328 750 283 758 q 342 731 342 746 z "},"+":{"ha":408,"x_min":56,"x_max":353,"o":"m 353 372 q 340 351 353 351 q 281 357 319 351 q 225 363 243 363 q 225 267 225 275 q 206 236 225 236 q 183 254 186 236 q 183 290 183 247 q 185 363 183 328 l 86 361 q 56 382 56 361 q 110 404 56 404 q 188 403 149 404 q 197 518 190 464 q 217 533 199 533 q 236 521 236 533 q 231 460 236 500 q 225 401 225 421 q 338 392 285 397 q 353 372 353 389 z "},",":{"ha":215,"x_min":86,"x_max":161,"o":"m 161 18 q 147 -78 161 -24 q 114 -160 132 -132 q 106 -165 111 -165 q 97 -158 97 -165 q 108 -131 97 -160 q 118 -69 118 -103 q 102 -22 118 -47 q 86 17 86 4 q 124 60 86 60 q 161 18 161 60 z "},"­":{"ha":408,"x_min":56,"x_max":353,"o":"m 353 322 q 340 303 353 303 q 281 308 319 303 q 221 314 242 314 q 153 307 199 314 q 86 300 108 300 q 56 319 56 300 q 110 354 56 354 q 338 342 233 354 q 353 322 353 340 z "},".":{"ha":213,"x_min":82,"x_max":157,"o":"m 157 17 q 119 -25 157 -25 q 82 17 82 -25 q 119 60 82 60 q 157 17 157 60 z "},"/":{"ha":535,"x_min":76,"x_max":567,"o":"m 567 1058 q 463 783 567 1024 q 329 479 396 631 l 265 322 q 117 -29 221 211 q 96 -53 107 -53 q 76 -33 76 -53 q 174 207 76 -18 q 292 478 233 343 q 419 800 336 585 q 474 961 447 881 q 544 1090 521 1090 q 567 1058 567 1090 z "},":":{"ha":218,"x_min":90,"x_max":165,"o":"m 165 449 q 128 407 165 407 q 90 449 90 407 q 128 492 90 492 q 165 449 165 492 m 165 17 q 128 -25 165 -25 q 90 17 90 -25 q 128 60 90 60 q 165 17 165 60 z "},";":{"ha":221,"x_min":90,"x_max":168,"o":"m 165 449 q 128 407 165 407 q 90 449 90 407 q 128 492 90 492 q 165 449 165 492 m 168 18 q 153 -78 168 -24 q 121 -160 139 -132 q 113 -165 117 -165 q 104 -158 104 -165 q 115 -131 104 -160 q 125 -69 125 -103 q 109 -22 125 -47 q 93 17 93 4 q 131 60 93 60 q 168 18 168 60 z "},"<":{"ha":694,"x_min":78,"x_max":593,"o":"m 593 246 l 78 456 l 78 513 l 593 726 l 593 682 l 132 485 l 593 292 l 593 246 z "},"=":{"ha":408,"x_min":60,"x_max":357,"o":"m 357 438 q 344 418 357 418 q 285 424 325 418 q 226 429 246 429 q 158 422 203 429 q 90 415 114 415 q 60 435 60 415 q 114 471 60 471 q 342 457 239 471 q 357 438 357 456 m 357 322 q 344 303 357 303 q 285 308 325 303 q 226 314 246 314 q 158 307 203 314 q 90 300 114 300 q 60 319 60 300 q 114 354 60 354 q 342 342 239 354 q 357 322 357 340 z "},">":{"ha":694,"x_min":103,"x_max":618,"o":"m 618 456 l 103 243 l 103 286 l 564 483 l 103 678 l 103 724 l 618 513 l 618 456 z "},"?":{"ha":599,"x_min":108,"x_max":553,"o":"m 553 860 q 463 619 553 746 q 293 418 378 518 q 203 218 203 304 q 228 149 203 181 q 253 118 253 118 q 236 106 253 106 q 189 144 210 106 q 172 207 172 176 q 257 419 172 300 q 415 629 336 525 q 500 881 500 760 q 464 1010 500 957 q 350 1071 424 1071 q 201 986 258 1071 q 151 815 151 911 q 206 704 151 704 q 247 749 233 704 q 258 818 258 781 q 229 918 258 868 q 240 926 231 926 q 278 878 261 926 q 290 813 290 839 q 271 728 290 767 q 203 681 244 681 q 128 733 153 681 q 108 831 108 775 q 172 1014 108 939 q 346 1094 240 1094 q 500 1025 442 1094 q 553 860 553 958 m 276 21 q 262 -9 276 3 q 228 -21 247 -21 q 195 -9 210 -21 q 181 21 181 3 q 196 50 181 39 q 228 61 211 61 q 261 50 246 61 q 276 21 276 39 z "},"@":{"ha":1294,"x_min":97,"x_max":1269,"o":"m 1269 526 q 1181 226 1269 360 q 944 83 1085 83 q 808 231 822 83 q 599 85 717 85 q 472 142 524 85 q 415 307 415 204 q 522 563 415 440 q 742 685 628 685 q 890 549 853 685 l 928 669 l 1017 669 l 900 261 q 892 190 892 219 q 954 114 892 114 q 1129 206 1042 114 q 1243 521 1243 322 q 1118 832 1243 713 q 765 956 988 956 q 353 800 518 956 q 172 342 172 631 q 304 1 172 139 q 725 -156 454 -156 q 1147 -17 961 -156 l 1169 -37 q 994 -137 1075 -106 q 715 -187 869 -187 q 296 -60 467 -187 q 97 356 97 89 q 275 790 97 607 q 750 983 464 983 q 1153 835 1014 983 q 1269 526 1269 710 m 860 496 q 831 606 861 561 q 726 657 794 657 q 565 496 640 657 q 500 267 500 358 q 524 167 500 210 q 607 115 553 115 q 792 257 714 115 q 860 496 857 376 z "},"A":{"ha":872,"x_min":15,"x_max":976,"o":"m 976 -101 q 947 -122 976 -122 q 701 246 799 -122 q 594 253 653 253 q 525 246 557 253 q 204 -203 390 -203 q 61 -104 113 -203 q 15 125 15 -14 q 82 417 15 276 q 251 568 156 568 q 338 514 307 568 q 364 385 364 464 q 319 188 364 278 q 210 93 274 93 q 200 103 200 93 q 211 114 200 114 q 286 181 253 114 q 324 372 324 254 q 256 549 324 549 q 129 421 188 549 q 71 132 71 293 q 186 -171 71 -171 q 324 -69 250 -171 q 468 231 403 39 q 406 204 401 204 q 376 224 376 204 q 482 272 376 254 q 603 900 568 543 q 608 1017 608 947 q 608 1071 608 1024 q 607 1144 607 1118 q 616 1199 607 1175 q 638 1224 625 1224 q 658 1200 649 1224 q 667 1153 667 1176 q 656 1028 667 1113 q 646 890 646 944 q 672 583 646 764 q 733 265 697 401 q 808 243 763 260 q 872 207 872 219 q 860 197 872 197 q 815 211 844 197 q 769 231 776 229 q 742 239 756 235 q 965 -85 833 -85 q 976 -101 976 -85 m 694 274 q 624 725 636 510 q 533 278 586 464 q 600 281 565 281 q 694 274 647 281 z "},"B":{"ha":733,"x_min":24,"x_max":703,"o":"m 703 257 q 617 -49 703 89 q 406 -192 526 -192 q 361 -186 382 -192 q 342 -256 361 -256 q 322 -174 322 -256 l 322 -172 q 254 -100 278 -149 q 233 -17 233 -60 q 243 -1 233 -1 q 251 -15 251 -1 q 324 -133 251 -86 q 333 310 333 247 q 325 785 333 583 q 317 964 321 875 q 315 978 317 967 q 315 996 315 989 q 339 1049 315 1049 q 381 969 381 1049 q 363 -151 381 815 q 407 -157 385 -157 q 583 -21 510 -157 q 653 268 653 110 q 515 561 653 492 q 453 536 486 536 q 414 569 414 536 q 444 606 414 606 q 510 594 485 606 q 589 817 589 663 q 536 1029 589 951 q 410 1100 488 1100 q 161 885 261 1100 q 72 481 72 694 q 98 318 72 381 q 172 256 124 256 q 231 310 207 256 q 256 439 256 364 q 238 558 256 507 q 221 600 221 610 q 233 611 221 611 q 267 569 246 611 q 293 431 293 514 q 254 283 293 336 q 171 238 219 238 q 60 315 99 238 q 24 507 24 388 q 125 913 24 726 q 414 1122 240 1122 q 576 1046 513 1122 q 644 824 644 964 q 540 576 644 674 q 703 257 703 483 z "},"C":{"ha":532,"x_min":22,"x_max":525,"o":"m 525 253 q 486 6 525 144 q 281 -233 421 -233 q 103 -90 172 -233 q 22 375 22 72 q 113 925 22 724 q 324 1108 196 1108 q 442 1013 396 1108 q 493 722 493 907 q 432 333 493 510 q 264 138 364 138 q 182 185 217 138 q 142 331 142 238 q 169 471 142 415 q 203 513 190 513 q 214 500 214 513 q 197 459 214 510 q 181 339 181 408 q 204 210 181 264 q 263 157 228 157 q 388 319 332 157 q 444 738 444 492 q 418 996 444 917 q 328 1081 392 1081 q 156 892 231 1081 q 75 365 75 685 q 278 -192 75 -192 q 501 229 417 -192 q 518 269 510 269 q 525 253 525 269 z "},"D":{"ha":719,"x_min":14,"x_max":703,"o":"m 703 503 q 619 28 703 231 q 392 -192 531 -192 q 349 -186 369 -192 l 349 -206 q 347 -242 349 -236 q 329 -256 344 -256 q 311 -239 314 -256 q 310 -192 308 -231 l 310 -172 q 240 -100 265 -149 q 221 -17 221 -60 q 231 -1 221 -1 q 238 -15 238 -1 q 310 -133 238 -86 q 321 310 321 247 q 311 785 321 583 q 303 964 307 875 l 303 993 q 326 1049 303 1049 q 367 969 367 1049 q 361 782 367 992 q 354 313 354 581 l 354 157 q 349 -151 354 135 q 394 -157 371 -157 q 576 61 503 -157 q 644 531 644 265 q 561 969 644 818 q 375 1101 489 1101 q 161 969 256 1101 q 63 631 63 829 q 88 493 63 547 q 160 439 114 439 q 218 493 194 439 q 242 622 242 547 q 225 742 242 690 q 208 783 208 793 q 219 796 208 796 q 253 754 232 796 q 281 614 281 697 q 240 467 281 521 q 158 421 206 421 q 51 489 90 421 q 14 653 14 553 q 125 992 14 854 q 367 1122 231 1122 q 597 979 507 1122 q 703 503 703 813 z "},"E":{"ha":517,"x_min":18,"x_max":507,"o":"m 507 36 q 444 -147 507 -76 q 267 -217 381 -217 q 100 -147 172 -217 q 18 64 18 -68 q 108 268 18 181 q 242 351 174 333 q 40 707 40 464 q 138 1004 40 878 q 333 1121 229 1121 q 460 1049 415 1121 q 499 883 499 985 q 449 660 499 763 q 332 557 400 557 q 256 605 289 557 q 222 729 222 653 q 247 839 222 792 q 275 875 265 875 q 285 865 285 875 q 272 833 285 874 q 260 736 260 792 q 281 626 260 672 q 331 581 301 581 q 418 674 382 581 q 451 874 451 763 q 422 1032 451 971 q 325 1101 389 1101 q 169 996 243 1101 q 92 732 92 882 q 175 475 92 579 q 326 383 249 383 q 371 386 350 383 q 396 389 392 389 q 419 368 419 389 q 407 346 419 358 q 382 333 394 333 q 364 333 376 333 q 338 335 350 335 q 144 251 219 335 q 75 64 75 174 q 133 -117 75 -43 q 278 -192 192 -192 q 413 -126 364 -192 q 461 38 461 -61 q 435 161 461 108 q 396 206 413 206 q 388 215 388 206 q 400 226 388 226 q 467 168 429 226 q 507 36 507 104 z "},"F":{"ha":650,"x_min":19,"x_max":682,"o":"m 682 407 q 669 394 682 394 q 633 424 667 394 q 546 461 599 454 q 414 -50 506 124 q 238 -200 335 -200 q 85 -83 149 -200 q 19 215 19 39 q 75 479 19 379 q 193 569 125 569 q 286 503 249 569 q 328 297 328 429 q 310 182 328 236 q 283 133 294 133 q 274 151 274 133 q 286 192 274 146 q 299 299 299 239 q 269 475 299 410 q 200 533 242 533 q 111 449 149 533 q 69 196 69 354 q 116 -59 69 35 q 231 -153 163 -153 q 393 -6 318 -153 q 510 463 479 163 q 433 431 472 460 q 396 403 394 403 q 378 435 378 403 q 419 474 378 454 q 513 496 461 494 q 529 900 529 672 q 526 1046 529 963 q 446 964 493 1000 q 297 904 371 904 q 115 975 197 904 q 25 1092 57 1025 q 21 1103 21 1097 q 36 1121 21 1121 q 42 1117 40 1121 q 144 996 79 1039 q 272 957 204 957 q 420 1004 350 957 q 524 1131 490 1051 q 553 1175 543 1175 q 593 1153 593 1175 q 571 1110 593 1144 q 575 1001 575 1051 q 550 493 575 721 q 679 415 631 481 q 682 407 682 411 z "},"G":{"ha":567,"x_min":19,"x_max":536,"o":"m 536 -72 q 463 -231 536 -172 q 274 -289 389 -289 q 140 -250 192 -289 q 82 -125 82 -206 q 96 -57 82 -94 q 117 -19 107 -28 q 131 -14 122 -14 q 142 -22 142 -14 q 142 -25 142 -24 q 110 -124 110 -67 q 163 -222 110 -183 q 279 -258 211 -258 q 415 -208 360 -258 q 479 -46 479 -150 q 446 185 479 17 q 278 90 378 90 q 82 231 151 90 q 19 549 19 356 q 96 935 19 769 q 311 1115 179 1115 q 436 1040 388 1115 q 490 814 490 958 q 429 514 490 653 q 263 360 361 360 q 179 401 215 360 q 139 518 139 446 q 167 624 139 581 q 200 656 188 656 q 211 646 211 656 q 194 615 211 654 q 178 524 178 576 q 201 426 178 467 q 260 385 225 385 q 385 510 331 385 q 442 826 442 640 q 407 1028 442 958 q 325 1092 376 1092 q 142 903 217 1092 q 71 513 71 728 q 119 239 71 344 q 275 122 174 122 q 438 226 372 122 q 428 319 428 285 q 447 448 428 393 q 490 503 465 503 q 522 425 522 503 q 465 215 522 315 q 510 67 469 197 q 536 -72 536 -19 m 499 425 q 489 446 499 446 q 465 408 476 446 q 453 321 453 371 q 457 261 453 293 q 499 425 499 347 z "},"H":{"ha":701,"x_min":10,"x_max":729,"o":"m 729 1074 q 717 1051 729 1063 q 700 1029 704 1039 q 658 860 681 990 q 624 446 626 674 q 690 375 675 422 q 692 369 692 372 q 686 360 692 360 q 672 371 676 360 q 624 418 660 401 q 686 -187 624 -78 q 689 -199 689 -193 q 678 -208 689 -208 q 667 -201 671 -208 q 575 428 575 -19 l 575 429 l 569 429 q 433 335 499 431 q 383 -50 421 114 q 308 -214 344 -214 q 272 -106 272 -214 q 375 296 272 103 q 379 522 379 407 q 328 943 379 788 q 215 1083 282 1083 q 113 965 154 1083 q 67 614 67 835 q 96 368 67 465 q 188 260 129 260 q 246 314 222 260 q 269 443 269 368 q 253 563 269 511 q 236 604 236 614 q 249 615 236 615 q 281 574 260 615 q 308 435 308 518 q 268 288 308 340 q 186 242 233 242 q 56 358 106 242 q 10 625 10 468 q 75 988 10 849 q 214 1114 133 1114 q 365 963 301 1114 q 439 493 439 789 q 436 386 439 440 q 563 460 499 460 q 575 458 569 460 q 621 936 578 732 q 688 1111 657 1111 q 729 1074 729 1111 m 371 213 q 299 -137 299 33 q 311 -165 299 -165 q 371 213 350 -165 z "},"I":{"ha":493,"x_min":32,"x_max":485,"o":"m 485 600 q 410 117 485 315 q 165 -114 322 -114 q 74 -81 110 -114 q 39 -11 39 -47 q 65 10 39 10 q 85 -8 85 10 q 106 -65 85 -42 q 175 -94 131 -94 q 368 133 300 -94 q 428 608 428 329 q 386 953 428 819 q 257 1101 340 1101 q 133 990 179 1101 q 90 732 90 888 q 132 510 90 599 q 217 429 169 429 q 278 479 253 429 q 307 638 307 536 q 289 753 307 700 q 243 825 271 806 q 238 835 238 829 q 247 844 238 844 q 257 842 251 844 q 323 760 299 818 q 347 636 347 703 q 306 468 347 531 q 215 413 268 413 q 93 497 149 413 q 32 731 32 592 q 95 1010 32 899 q 253 1121 158 1121 q 428 963 364 1121 q 485 600 485 819 z "},"J":{"ha":460,"x_min":-31,"x_max":451,"o":"m 451 157 q 446 150 451 150 q 439 153 442 150 q 379 182 414 174 q 82 -219 283 -219 q 0 -186 31 -219 q -31 -106 -31 -153 q 99 115 -31 17 q 335 207 217 207 q 344 207 340 207 q 383 588 383 392 q 344 947 383 803 q 233 1101 303 1101 q 110 971 156 1101 q 68 669 68 850 q 108 410 68 514 q 193 315 146 315 q 256 374 231 315 q 285 560 285 440 q 267 693 285 631 q 219 778 249 756 q 214 789 214 782 q 225 801 214 801 q 233 799 229 801 q 301 702 276 769 q 325 557 325 635 q 283 360 325 433 q 193 294 246 294 q 74 394 126 294 q 15 668 15 504 q 75 998 15 872 q 229 1124 135 1124 q 379 976 325 1124 q 428 631 428 843 q 383 201 428 403 q 426 183 400 197 q 451 157 451 169 m 340 186 l 340 186 q 124 92 231 186 q 14 -117 14 -7 q 38 -174 14 -153 q 92 -196 61 -196 q 243 -85 175 -196 q 340 186 303 15 z "},"K":{"ha":715,"x_min":10,"x_max":797,"o":"m 797 -222 q 796 -231 797 -222 q 733 -240 763 -240 q 594 -101 624 -240 q 568 154 582 26 q 454 292 546 292 q 429 289 447 292 q 367 -87 414 96 q 339 -187 360 -122 q 326 -199 335 -199 q 314 -182 314 -199 q 317 -165 314 -176 q 379 522 379 28 q 353 836 379 683 q 215 1083 310 1083 q 67 614 67 1083 q 86 411 67 504 q 188 260 117 260 q 253 335 231 260 q 269 443 269 388 q 257 551 269 501 q 236 604 246 576 q 249 615 236 615 q 258 608 250 615 q 308 435 308 554 q 282 311 308 365 q 186 242 249 242 q 43 396 90 242 q 10 625 10 503 q 49 931 10 799 q 214 1114 103 1114 q 399 851 339 1114 q 439 493 439 678 q 433 331 439 411 l 443 329 q 642 671 594 351 q 663 1099 663 810 q 678 1122 663 1122 q 703 1110 689 1122 q 717 1089 717 1099 q 675 669 717 879 q 503 311 617 375 q 619 140 596 279 q 643 -96 632 22 q 754 -215 664 -215 q 792 -210 772 -215 q 797 -222 797 -215 z "},"L":{"ha":472,"x_min":15,"x_max":546,"o":"m 546 -94 q 544 -101 546 -97 q 504 -161 535 -131 q 399 -206 458 -206 q 278 -140 343 -206 q 178 -22 228 -81 q 92 -183 161 -183 q 38 -151 60 -183 q 15 -68 15 -119 q 40 20 15 -14 q 100 54 65 54 q 138 44 118 54 q 118 264 135 117 q 103 493 103 394 q 167 963 103 790 q 300 1111 222 1111 q 406 1013 364 1111 q 453 726 453 904 q 413 508 453 588 q 328 440 378 440 q 256 492 286 440 q 225 635 225 544 q 253 774 225 718 q 285 815 272 815 q 297 804 297 815 q 280 763 297 814 q 263 643 263 711 q 281 508 263 558 q 325 458 300 458 q 376 519 356 458 q 401 710 401 589 q 369 993 401 888 q 299 1089 340 1089 q 206 946 246 1089 q 163 522 163 785 q 174 284 163 426 q 185 100 185 142 q 182 13 185 53 q 290 -92 236 -40 q 422 -151 361 -151 q 492 -131 458 -151 q 528 -93 519 -112 q 539 -86 531 -86 q 546 -94 546 -86 m 138 -17 q 138 17 138 0 q 103 29 119 29 q 56 -71 56 29 q 68 -133 56 -107 q 97 -158 81 -158 q 138 -17 138 -158 z "},"M":{"ha":933,"x_min":22,"x_max":1157,"o":"m 1157 -64 q 1128 -156 1157 -110 q 1026 -214 1089 -214 q 876 -71 929 -214 q 835 200 835 44 q 836 299 835 236 q 836 382 836 361 q 833 432 836 432 q 798 210 832 432 q 747 -11 764 -11 q 694 357 719 -11 q 575 -11 658 140 q 336 -197 472 -197 q 117 -61 206 -197 q 22 322 22 83 q 101 622 22 503 q 285 735 178 735 q 416 660 364 735 q 468 461 468 585 q 451 346 468 397 q 425 300 438 300 q 414 318 414 300 q 428 356 414 313 q 442 456 442 399 q 400 631 442 561 q 292 700 358 700 q 147 597 207 700 q 82 292 82 483 q 136 -18 82 103 q 300 -149 196 -149 q 576 82 461 -149 q 683 554 683 296 q 675 791 683 668 q 667 993 667 914 q 711 1283 667 1283 q 749 1093 749 1283 q 715 500 749 824 q 747 110 739 110 q 794 345 754 110 q 833 614 833 581 q 853 899 833 675 q 889 1146 875 1146 q 910 1039 910 1146 q 906 942 910 994 q 881 738 893 840 q 863 383 863 569 q 906 -15 863 136 q 1026 -171 951 -171 q 1097 -139 1068 -171 q 1131 -81 1117 -118 q 1143 -50 1142 -50 q 1157 -64 1157 -50 z "},"N":{"ha":978,"x_min":15,"x_max":1204,"o":"m 1204 1039 q 1189 1025 1204 1025 q 1176 1036 1176 1025 q 1147 1128 1176 1092 q 1078 1165 1118 1165 q 964 1079 1008 1165 q 913 782 913 978 q 929 474 913 679 q 946 192 946 268 q 875 -11 946 -11 q 767 168 825 -11 q 703 483 713 335 q 572 8 664 192 q 329 -197 469 -197 q 110 -61 199 -197 q 15 322 15 83 q 94 622 15 503 q 278 735 171 735 q 409 660 357 735 q 461 461 461 585 q 444 346 461 397 q 418 300 431 300 q 407 318 407 300 q 421 356 407 313 q 435 456 435 399 q 393 631 435 561 q 285 700 351 700 q 140 597 200 700 q 75 292 75 483 q 129 -18 75 103 q 293 -149 189 -149 q 569 103 460 -149 q 676 724 676 350 q 672 887 676 801 q 668 982 668 972 q 704 1172 668 1172 q 742 982 742 1172 q 724 657 742 833 q 776 288 733 492 q 885 39 831 39 q 915 129 915 39 q 888 416 915 186 q 861 775 861 646 q 929 1097 861 985 q 1069 1190 986 1190 q 1165 1147 1125 1190 q 1204 1039 1204 1104 z "},"O":{"ha":581,"x_min":21,"x_max":568,"o":"m 568 493 q 501 22 568 222 q 313 -194 428 -194 q 90 13 171 -194 q 21 433 21 190 q 58 713 21 607 q 72 724 63 724 q 78 715 78 724 q 76 708 78 713 q 74 699 75 703 q 63 501 63 618 q 111 81 63 256 q 293 -137 174 -137 q 463 72 397 -137 q 524 522 524 263 q 471 910 524 757 q 310 1082 414 1082 q 199 993 243 1082 q 150 728 150 896 q 192 410 150 549 q 308 260 239 260 q 367 314 343 260 q 390 443 390 368 q 374 563 390 511 q 357 604 357 614 q 369 615 357 615 q 401 574 382 615 q 429 435 429 518 q 390 288 429 340 q 307 242 356 242 q 157 390 215 242 q 104 711 104 526 q 153 986 104 879 q 307 1108 207 1108 q 506 918 435 1108 q 568 493 568 750 z "},"P":{"ha":779,"x_min":21,"x_max":774,"o":"m 774 707 q 689 400 774 533 q 465 260 599 260 q 404 269 433 260 q 297 -201 401 -201 q 265 -192 281 -201 q 250 -174 250 -182 q 271 -156 250 -156 q 283 -165 278 -156 q 292 -174 288 -174 q 353 156 353 -174 q 351 301 353 213 q 294 433 294 354 q 304 450 294 450 q 311 435 311 450 q 350 346 311 388 q 347 599 347 525 q 450 1063 347 1063 q 464 1049 464 1063 q 442 1035 464 1035 q 400 760 400 1035 q 403 545 400 696 q 406 313 406 394 l 406 306 q 468 293 435 293 q 647 432 572 293 q 718 729 718 564 q 631 1008 718 907 q 432 1099 551 1099 q 183 978 289 1099 q 67 626 67 844 q 92 492 67 544 q 164 439 117 439 q 222 493 199 439 q 246 622 246 547 q 229 742 246 690 q 213 783 213 793 q 224 796 213 796 q 257 754 236 796 q 285 614 285 697 q 244 467 285 521 q 161 421 210 421 q 57 488 94 421 q 21 649 21 550 q 149 1000 21 868 q 425 1119 264 1119 q 667 1018 569 1119 q 774 707 774 906 z "},"Q":{"ha":611,"x_min":21,"x_max":611,"o":"m 611 493 q 474 -94 611 103 l 590 -286 q 576 -303 590 -303 q 567 -297 572 -303 l 450 -126 q 314 -199 386 -199 q 121 -68 188 -199 q 72 121 72 24 q 88 139 72 139 q 97 124 93 139 q 169 -58 119 29 q 315 -176 239 -176 q 431 -99 378 -176 q 404 -61 418 -79 q 304 65 368 -21 q 297 86 297 75 q 329 111 297 111 q 363 90 350 111 q 453 -60 386 49 q 550 522 550 128 q 481 951 550 797 q 325 1086 418 1086 q 158 951 229 1086 q 81 569 81 803 q 122 279 81 396 q 244 151 168 151 q 303 206 279 151 q 328 335 328 260 q 310 454 328 403 q 293 496 293 506 q 306 507 293 507 q 338 467 318 507 q 365 326 365 410 q 326 179 365 233 q 243 133 292 133 q 79 263 142 133 q 21 558 21 383 q 117 963 21 804 q 328 1110 207 1110 q 522 963 446 1110 q 611 493 611 796 z "},"R":{"ha":633,"x_min":7,"x_max":747,"o":"m 747 -150 q 739 -158 747 -158 q 554 -89 621 -158 q 474 78 503 -33 q 432 271 453 175 q 361 260 399 260 q 329 263 344 260 q 325 49 328 206 q 324 -167 324 -86 q 304 -192 324 -192 q 289 -172 289 -192 q 292 50 289 -93 q 294 272 294 206 q 207 399 207 308 q 229 467 207 436 q 288 499 251 499 l 289 499 l 294 499 q 289 732 293 625 q 278 1004 278 1026 q 301 1049 278 1049 q 342 969 342 1049 q 339 851 342 924 q 333 733 335 753 q 329 493 331 622 q 456 331 406 468 q 558 518 525 385 q 582 729 582 614 q 507 1021 582 917 q 338 1114 440 1114 q 146 1010 226 1114 q 56 715 56 896 q 129 539 56 539 q 185 617 165 539 q 197 726 197 672 q 186 835 197 789 q 177 862 185 838 q 169 888 169 886 q 175 896 169 896 q 176 896 176 896 q 229 718 229 863 q 210 599 229 651 q 128 525 182 525 q 32 603 65 525 q 7 733 7 663 q 114 1026 7 911 q 343 1133 211 1133 q 551 1031 469 1133 q 644 707 644 917 q 604 476 644 589 q 469 290 556 343 q 528 96 499 193 q 606 -69 564 -15 q 739 -139 660 -139 q 747 -150 747 -139 m 422 310 q 329 472 386 449 l 329 297 q 353 294 340 294 q 422 310 390 294 m 294 318 q 294 478 294 403 q 231 410 231 476 q 294 308 231 339 l 294 318 z "},"S":{"ha":564,"x_min":8,"x_max":546,"o":"m 546 68 q 461 -128 546 -56 q 275 -192 385 -192 q 86 -133 160 -192 q 8 33 8 -71 q 54 163 8 106 q 133 214 94 214 q 150 203 150 214 q 139 192 150 192 q 90 153 118 192 q 57 35 57 104 q 117 -110 57 -53 q 278 -167 176 -167 q 432 -106 368 -167 q 496 35 496 -46 q 382 251 496 157 q 169 417 275 335 q 54 707 54 533 q 138 983 54 851 q 342 1124 226 1124 q 525 869 525 1124 q 464 618 525 735 q 297 489 396 489 q 214 525 250 489 q 174 624 174 564 q 201 711 174 676 q 235 738 222 738 q 246 731 246 738 q 229 704 246 736 q 213 629 213 672 q 236 548 213 582 q 294 514 260 514 q 419 617 365 514 q 476 879 476 725 q 347 1100 476 1100 q 182 985 253 1100 q 107 696 107 865 q 221 447 107 557 q 432 281 326 364 q 546 68 546 182 z "},"T":{"ha":628,"x_min":22,"x_max":592,"o":"m 592 1153 q 571 1110 592 1142 q 586 825 586 960 q 544 242 586 497 q 288 -200 469 -200 q 113 -54 181 -200 q 51 250 51 76 q 101 490 51 401 q 211 571 147 571 q 314 499 272 571 q 360 283 360 419 q 350 201 360 256 q 321 133 338 133 q 311 151 311 133 q 321 199 311 157 q 331 268 331 242 q 297 468 331 394 q 224 535 268 535 q 143 458 176 535 q 106 232 106 375 q 150 -39 106 78 q 283 -174 200 -174 q 506 225 442 -174 q 540 744 540 447 q 529 1046 540 885 q 296 904 433 904 q 141 959 218 904 q 25 1092 64 1014 q 22 1103 22 1099 q 36 1121 22 1119 l 42 1117 q 139 1003 79 1046 q 279 957 204 957 q 428 1006 361 957 q 524 1131 489 1051 q 554 1175 542 1175 q 592 1153 592 1175 z "},"U":{"ha":706,"x_min":15,"x_max":832,"o":"m 832 -74 q 808 -146 832 -110 q 728 -192 778 -192 q 604 47 628 -192 q 456 -212 564 -212 q 350 -111 385 -212 q 322 85 322 -32 q 348 440 322 238 q 374 822 374 642 q 335 1036 374 958 q 246 1107 300 1107 q 125 997 176 1107 q 67 669 67 874 q 108 410 67 514 q 193 315 146 315 q 254 374 229 315 q 283 560 283 440 q 265 693 283 631 q 219 778 247 756 q 214 789 214 782 q 224 801 214 801 q 233 799 228 801 q 299 702 275 769 q 324 557 324 635 q 282 360 324 433 q 192 294 244 294 q 74 394 126 294 q 15 668 15 504 q 88 1014 15 883 q 242 1129 153 1129 q 364 1046 315 1129 q 418 793 418 953 q 394 425 418 647 q 371 51 371 203 q 392 -96 371 -28 q 461 -181 417 -181 q 599 218 557 -181 q 590 651 599 325 q 583 1063 583 940 q 614 1115 583 1115 q 639 1036 639 1115 q 636 764 639 861 q 636 279 636 764 q 664 -53 636 64 q 728 -158 688 -158 q 783 -133 761 -158 q 810 -87 799 -117 q 819 -62 819 -62 q 832 -74 832 -62 z "},"V":{"ha":706,"x_min":15,"x_max":821,"o":"m 821 1103 q 800 1097 821 1101 q 750 1076 772 1092 q 692 1003 717 1051 q 618 536 618 863 q 618 422 618 499 q 618 310 618 346 q 603 -39 618 57 q 499 -190 578 -190 q 382 107 382 -190 q 385 356 382 185 q 389 611 389 526 q 363 975 389 856 q 246 1129 329 1129 q 125 1019 176 1129 q 67 692 67 896 q 108 432 67 536 q 193 338 146 338 q 254 396 229 338 q 283 582 283 463 q 265 715 283 653 q 219 800 247 778 q 214 811 214 804 q 224 824 214 824 q 233 821 228 824 q 299 724 275 792 q 324 578 324 657 q 282 382 324 456 q 192 317 244 317 q 74 417 126 317 q 15 690 15 526 q 88 1036 15 906 q 242 1151 153 1151 q 403 986 357 1151 q 438 585 438 858 q 433 332 438 504 q 429 74 429 160 q 499 -158 429 -158 q 586 181 586 -158 q 580 392 586 246 q 574 608 574 538 q 803 1118 574 1118 q 821 1103 821 1118 z "},"W":{"ha":917,"x_min":21,"x_max":996,"o":"m 996 1140 q 985 1132 996 1132 q 871 1025 907 1132 q 829 626 829 904 q 832 394 829 543 q 835 185 835 246 q 811 -100 835 -18 q 739 -172 789 -172 q 644 -43 674 -172 q 617 224 626 36 l 613 225 q 585 -42 601 44 q 506 -181 558 -181 q 429 -74 451 -181 q 410 214 410 18 q 415 379 410 265 q 419 551 419 493 q 390 960 419 826 q 251 1139 351 1139 q 131 1029 182 1139 q 72 701 72 906 q 114 442 72 546 q 199 347 151 347 q 260 406 235 347 q 289 592 289 472 q 271 725 289 663 q 225 810 253 788 q 219 821 219 814 q 229 833 219 833 q 239 831 233 833 q 305 734 281 801 q 329 589 329 667 q 288 392 329 465 q 197 326 250 326 q 79 426 132 326 q 21 700 21 536 q 93 1046 21 915 q 247 1161 158 1161 q 422 979 372 1161 q 461 568 461 840 q 468 -26 461 78 q 506 -149 474 -149 q 585 143 557 -149 q 603 571 603 350 q 599 733 603 649 q 594 826 594 818 l 594 849 q 622 974 594 974 q 646 826 646 974 q 636 501 646 661 q 664 135 643 311 q 750 -143 699 -143 q 785 -97 771 -143 q 800 25 800 -51 q 793 283 800 82 q 786 619 786 485 q 976 1154 786 1154 q 996 1140 996 1154 z "},"X":{"ha":692,"x_min":14,"x_max":858,"o":"m 858 -153 q 844 -186 858 -171 q 813 -201 831 -201 q 619 -35 700 -201 q 506 347 560 90 q 213 -203 314 -203 q 180 -187 193 -203 q 167 -154 167 -172 q 185 -140 167 -140 q 200 -155 199 -140 q 213 -169 201 -169 q 333 24 257 -169 q 483 457 374 126 q 386 904 413 817 q 244 1107 326 1107 q 124 997 175 1107 q 65 669 65 874 q 107 410 65 514 q 192 315 144 315 q 253 374 228 315 q 282 560 282 440 q 264 693 282 631 q 218 778 246 756 q 213 789 213 782 q 222 801 213 801 q 232 799 226 801 q 298 702 274 769 q 322 557 322 635 q 281 360 322 433 q 190 294 243 294 q 72 394 125 294 q 14 668 14 504 q 86 1014 14 883 q 240 1129 151 1129 q 411 957 340 1129 q 518 563 463 835 q 671 968 611 839 q 814 1147 754 1147 q 838 1132 838 1147 q 821 1114 838 1114 q 815 1115 819 1114 q 807 1117 810 1117 q 696 910 772 1117 q 540 453 685 881 q 646 18 604 138 q 813 -176 715 -176 q 825 -157 824 -176 q 840 -137 826 -137 q 858 -153 858 -137 z "},"Y":{"ha":735,"x_min":13,"x_max":694,"o":"m 694 -35 q 619 -213 694 -137 q 431 -289 543 -289 q 297 -250 349 -289 q 239 -125 239 -206 q 254 -57 239 -94 q 275 -19 265 -28 q 289 -14 281 -14 q 300 -22 300 -14 q 300 -25 300 -24 q 268 -124 268 -67 q 319 -221 268 -183 q 438 -258 369 -258 q 638 -15 638 -258 q 615 317 638 90 q 453 97 569 97 q 342 311 342 97 q 361 581 342 390 q 381 856 381 771 q 261 1115 381 1115 q 126 1000 183 1115 q 65 669 65 874 q 106 410 65 514 q 190 315 143 315 q 253 374 226 315 q 282 560 282 440 q 263 693 282 631 q 217 778 244 756 q 211 789 211 782 q 221 801 211 801 q 231 799 225 801 q 298 702 274 769 q 322 557 322 635 q 279 360 322 433 q 190 294 243 294 q 71 394 124 294 q 13 668 13 504 q 89 1014 13 882 q 254 1135 157 1135 q 429 793 429 1135 q 413 517 429 700 q 396 269 396 333 q 458 121 396 121 q 560 226 515 121 q 601 426 600 324 q 601 465 601 446 q 591 721 601 557 q 581 963 581 885 q 611 1003 581 1003 q 636 943 636 1003 q 636 838 636 908 q 635 733 635 768 q 665 358 635 583 q 694 -35 694 132 z "},"Z":{"ha":493,"x_min":26,"x_max":508,"o":"m 508 99 q 503 92 508 92 q 496 94 499 92 q 433 125 468 118 q 439 65 439 97 q 354 -169 439 -67 q 139 -278 265 -278 q 57 -244 88 -278 q 26 -162 26 -211 q 143 44 26 -51 q 371 147 251 135 q 300 264 351 218 q 150 221 233 221 q 87 238 114 221 q 60 275 60 256 q 92 319 60 303 q 172 335 124 335 q 296 306 236 335 q 390 494 357 372 q 422 735 422 607 q 379 990 422 888 q 256 1101 333 1101 q 132 990 178 1101 q 90 732 90 888 q 132 510 90 599 q 217 429 169 429 q 278 479 253 429 q 307 638 307 536 q 289 753 307 700 q 242 825 271 806 q 238 835 238 829 q 247 844 238 844 q 256 842 251 844 q 323 760 299 818 q 347 636 347 703 q 306 468 347 531 q 215 413 268 413 q 93 497 149 413 q 32 731 32 592 q 94 1010 32 899 q 251 1121 157 1121 q 419 990 356 1121 q 479 700 479 871 q 443 467 479 574 q 329 286 404 350 q 429 146 406 235 q 475 129 449 143 q 508 99 508 114 m 272 283 q 171 315 224 315 q 104 272 104 315 q 156 240 104 240 q 272 283 221 240 m 382 63 q 376 128 382 97 q 170 19 269 117 q 71 -174 71 -79 q 94 -235 71 -211 q 149 -258 118 -258 q 318 -156 250 -258 q 382 63 382 -61 z "},"[":{"ha":354,"x_min":67,"x_max":267,"o":"m 267 -174 l 67 -174 l 67 1025 l 267 1025 l 267 996 l 188 996 q 140 983 153 996 q 128 933 128 969 l 128 -79 q 185 -144 128 -144 l 267 -144 l 267 -174 z "},"\\":{"ha":235,"x_min":44,"x_max":849,"o":"m 849 -101 q 846 -111 849 -100 q 782 -206 839 -151 q 567 -286 697 -286 q 231 -125 338 -286 q 142 235 142 7 q 164 469 142 346 l 161 468 q 108 278 139 415 q 78 103 78 142 q 76 43 78 82 q 76 4 76 4 q 64 -17 76 -17 q 46 10 46 -17 q 46 133 46 36 q 44 274 44 231 q 79 564 44 564 q 93 493 93 564 q 83 388 93 474 q 74 254 75 296 l 76 256 q 126 447 90 335 q 204 590 172 590 q 222 581 211 590 q 232 561 232 571 q 208 460 232 576 q 183 197 183 344 q 289 -144 183 -26 q 572 -258 390 -258 q 767 -189 693 -258 q 826 -97 815 -144 q 839 -86 831 -86 q 849 -101 849 -86 z "},"]":{"ha":353,"x_min":81,"x_max":281,"o":"m 281 -208 l 81 -208 l 81 -179 l 163 -179 q 219 -114 219 -179 l 219 899 q 207 948 219 935 q 160 961 194 961 l 81 961 l 81 990 l 281 990 l 281 -208 z "},"^":{"ha":924,"x_min":50,"x_max":878,"o":"m 878 725 l 783 725 l 463 1031 l 140 725 l 50 725 l 408 1110 l 519 1110 l 878 725 z "},"_":{"ha":533,"x_min":0,"x_max":535,"o":"m 535 -101 l 0 -101 l 0 -53 l 535 -53 l 535 -101 z "},"`":{"ha":207,"x_min":39,"x_max":178,"o":"m 178 939 q 168 928 178 928 q 97 992 156 928 q 39 1075 39 1057 q 60 1097 39 1097 q 128 1025 78 1097 q 178 939 178 953 z "},"a":{"ha":286,"x_min":18,"x_max":361,"o":"m 361 218 q 328 103 361 181 q 251 11 289 11 q 189 108 196 11 l 186 108 q 72 -25 124 -25 q 18 85 18 -25 q 83 278 18 186 q 210 372 144 365 q 214 425 214 417 q 169 496 214 496 q 122 464 144 496 q 100 390 100 432 q 82 360 100 360 q 61 390 61 360 q 95 472 61 428 q 169 515 129 515 q 249 403 249 515 q 239 267 249 358 q 229 138 229 176 q 254 63 229 63 q 308 125 281 63 q 336 214 333 178 q 349 229 338 229 q 361 218 361 229 m 208 346 q 104 263 153 338 q 56 108 56 188 q 90 49 56 49 q 163 122 121 49 q 204 243 204 194 q 208 346 204 285 z "},"b":{"ha":360,"x_min":49,"x_max":431,"o":"m 431 210 q 396 100 431 150 q 299 47 357 47 q 268 50 283 47 q 172 -11 236 -11 q 79 67 111 -11 q 86 -1 86 -3 q 79 -17 86 -17 q 49 10 49 -17 l 50 421 q 56 856 50 751 q 99 1051 65 1051 q 111 979 111 1051 q 95 674 111 886 q 79 414 79 463 q 78 321 79 393 q 76 201 76 249 q 97 90 76 144 q 176 19 126 19 q 238 61 217 19 q 140 169 176 90 q 107 331 107 244 q 138 476 107 415 q 218 536 169 536 q 289 467 258 536 q 322 279 322 393 q 281 74 322 158 q 299 72 290 72 q 403 186 376 72 q 418 221 411 221 q 431 210 431 221 m 283 267 q 262 419 283 356 q 207 482 240 482 q 155 440 176 482 q 133 335 133 397 q 164 185 133 251 q 250 85 194 113 q 283 267 283 161 z "},"c":{"ha":317,"x_min":31,"x_max":382,"o":"m 382 183 q 326 58 382 118 q 204 -1 269 -1 q 69 54 115 -1 q 31 183 31 103 q 83 369 31 282 q 201 456 135 456 q 263 419 239 456 q 282 338 282 386 q 260 256 282 290 q 200 221 239 221 q 188 231 188 221 q 201 240 188 240 q 233 272 221 240 q 246 346 246 304 q 199 436 246 436 q 113 358 150 436 q 76 190 76 279 q 197 24 76 24 q 310 81 264 24 q 360 181 346 122 q 374 201 364 201 q 382 183 382 201 z "},"d":{"ha":363,"x_min":42,"x_max":435,"o":"m 435 218 q 394 88 435 165 q 304 0 350 0 q 218 147 239 0 q 215 132 217 138 q 118 14 178 14 q 42 168 42 14 q 92 422 42 296 q 193 549 142 549 q 219 533 206 549 q 260 854 244 854 q 281 826 281 854 q 274 758 281 829 q 261 571 265 675 q 254 228 254 419 q 311 42 254 42 q 382 119 344 42 q 411 214 411 178 q 424 229 411 229 q 435 218 435 229 m 215 471 q 186 513 208 513 q 122 421 154 513 q 89 199 89 322 q 136 78 89 78 q 186 128 163 78 q 210 232 210 179 q 210 253 210 239 q 210 275 210 267 q 215 471 210 369 z "},"e":{"ha":264,"x_min":26,"x_max":329,"o":"m 329 183 q 277 61 329 124 q 165 -1 225 -1 q 61 43 99 -1 q 26 142 26 82 q 56 232 26 190 q 135 289 86 274 q 94 343 114 308 q 61 465 61 403 q 81 524 61 503 q 132 546 101 546 q 197 511 169 546 q 221 458 221 482 q 207 443 221 443 q 193 474 206 443 q 149 504 181 504 q 106 442 106 504 q 131 341 106 392 q 189 290 157 290 q 210 274 210 290 q 179 258 210 258 q 92 217 125 258 q 60 126 60 176 q 144 35 60 35 q 251 85 203 35 q 306 181 294 129 q 321 201 311 201 q 329 183 329 201 z "},"f":{"ha":193,"x_min":1,"x_max":267,"o":"m 267 210 q 265 204 267 211 q 242 122 253 149 q 169 47 217 64 l 169 46 q 149 -167 169 -68 q 103 -265 129 -265 q 51 75 57 -265 q 1 229 1 129 q 50 376 1 335 l 50 421 q 75 879 50 644 q 115 1094 96 1094 q 129 1024 129 1094 q 107 707 129 914 q 85 389 86 492 q 169 76 165 389 q 242 208 219 103 q 254 225 244 225 q 267 210 267 225 m 138 68 q 131 224 138 163 q 83 351 118 346 q 82 286 82 297 q 85 81 82 186 q 129 67 104 67 q 138 68 133 67 m 50 124 l 50 331 q 31 232 31 296 q 50 124 31 168 m 138 40 q 128 40 133 40 q 85 49 104 40 q 107 -185 93 -185 q 128 -119 118 -185 q 138 40 138 -53 z "},"g":{"ha":275,"x_min":-62,"x_max":269,"o":"m 269 471 q 256 360 269 469 q 243 196 243 251 q 247 52 243 129 q 251 -71 251 -25 q 200 -329 251 -242 q 90 -404 158 -404 q -15 -356 29 -404 q -62 -214 -62 -301 q -40 -124 -62 -124 q -32 -133 -32 -124 q -35 -151 -32 -131 q -39 -204 -39 -171 q -3 -329 -39 -281 q 81 -378 33 -378 q 176 -293 139 -378 q 221 13 221 -190 q 213 132 221 110 q 182 61 206 97 q 117 14 151 14 q 40 168 40 14 q 90 422 40 296 q 192 549 139 549 q 225 526 210 549 q 231 547 228 536 q 247 557 235 557 q 265 540 261 557 q 269 471 269 524 m 215 458 q 185 513 213 513 q 121 421 151 513 q 88 199 88 322 q 133 78 88 78 q 193 158 171 78 q 215 342 215 232 q 215 458 215 464 z "},"h":{"ha":246,"x_min":47,"x_max":308,"o":"m 308 167 q 307 158 308 169 q 271 71 301 126 q 197 0 232 0 q 154 72 169 0 q 142 194 142 129 q 143 225 142 213 l 139 225 q 110 72 128 189 q 83 -17 96 -17 q 61 -8 75 -17 q 47 10 47 0 q 47 135 47 -8 q 49 421 49 278 q 67 935 49 701 q 122 1206 88 1206 q 136 1135 136 1206 q 106 751 136 1040 q 76 414 76 463 q 75 290 76 390 q 74 144 74 190 q 75 104 74 113 l 78 106 q 206 546 153 546 q 222 531 222 546 q 196 426 222 544 q 169 207 169 307 q 203 44 169 44 q 256 97 226 44 q 288 171 279 138 q 300 183 290 183 q 308 167 308 183 z "},"i":{"ha":171,"x_min":-42,"x_max":269,"o":"m 269 765 q 129 660 268 747 q 197 569 163 622 l 196 568 q 119 631 183 569 q 110 536 114 575 q 93 453 100 458 q 90 636 85 474 q 33 604 57 617 q -26 581 -12 581 l -28 581 q 83 667 -26 596 q -42 817 -40 793 l -39 818 q 93 699 -17 817 q 135 1049 111 1029 q 140 979 140 1035 q 125 693 140 900 q 268 767 242 765 l 269 765 m 243 218 q 206 93 243 175 q 124 0 164 0 q 46 179 46 0 q 57 304 46 222 q 90 410 71 410 q 103 396 103 410 q 93 326 103 394 q 81 176 81 249 q 138 63 81 63 q 193 125 164 63 q 219 214 219 182 q 232 229 219 229 q 243 218 243 229 z "},"j":{"ha":122,"x_min":-126,"x_max":108,"o":"m 108 678 q 74 617 108 617 q 39 678 39 617 q 74 739 39 739 q 108 678 108 739 m 96 433 q 88 327 96 413 q 81 196 81 242 q 85 52 81 129 q 90 -71 90 -25 q -86 -261 90 -261 q -126 -237 -126 -261 q -115 -212 -126 -224 q -90 -201 -104 -201 q -72 -208 -82 -201 q -54 -214 -62 -214 q 39 -156 14 -214 q 60 13 60 -108 q 53 194 60 85 q 47 342 47 304 q 74 542 47 542 q 96 433 96 542 z "},"k":{"ha":263,"x_min":44,"x_max":338,"o":"m 338 218 q 301 97 338 182 q 224 0 260 0 q 131 93 176 0 q 88 250 88 179 q 112 295 88 264 q 161 358 136 326 q 206 454 206 419 q 178 489 206 489 q 103 406 135 489 q 74 261 74 332 q 74 160 74 219 q 72 69 72 99 q 77 28 72 51 q 82 -1 82 4 q 75 -17 82 -17 q 44 10 44 -17 l 46 583 q 89 975 46 975 q 107 904 107 975 q 92 672 107 868 q 75 414 75 472 l 75 396 q 189 515 115 515 q 235 494 217 515 q 254 442 254 474 q 206 336 254 394 q 147 276 194 322 q 118 233 118 249 q 153 118 118 186 q 219 50 189 50 q 282 118 250 50 q 313 214 310 176 q 324 229 314 229 q 338 218 338 229 z "},"l":{"ha":196,"x_min":28,"x_max":268,"o":"m 268 218 q 232 93 268 175 q 149 0 189 0 q 68 86 103 0 q 28 357 28 186 q 81 874 28 608 q 179 1135 133 1135 q 213 1017 213 1135 q 179 696 213 892 q 71 314 138 446 q 103 128 78 194 q 163 63 129 63 q 219 125 190 63 q 246 214 246 182 q 258 229 246 229 q 268 218 268 229 m 182 1036 q 172 1076 182 1075 q 122 919 154 1078 q 71 533 86 744 q 67 418 67 474 q 68 368 67 393 q 147 676 111 472 q 182 1036 182 879 z "},"m":{"ha":356,"x_min":44,"x_max":424,"o":"m 424 193 q 385 83 424 156 q 311 6 344 6 q 244 197 244 6 q 250 315 244 246 l 247 317 q 197 171 233 289 q 174 65 194 161 q 149 6 161 6 q 133 24 133 6 q 142 112 133 29 q 150 218 150 194 q 151 267 150 229 q 153 324 153 306 q 149 357 153 357 q 104 276 135 357 q 74 142 74 192 q 75 72 74 110 q 76 4 76 35 q 64 -17 76 -17 q 46 10 46 -17 q 46 133 46 36 q 44 274 44 231 q 79 564 44 564 q 93 493 93 564 q 85 379 93 453 q 74 265 75 301 l 78 267 q 157 456 128 456 q 181 389 181 456 q 169 169 181 290 l 172 169 q 225 372 192 257 q 288 538 271 538 q 307 519 307 538 q 292 429 307 521 q 278 249 278 338 q 321 67 278 67 q 401 192 368 67 q 415 210 406 210 q 424 193 424 210 z "},"n":{"ha":267,"x_min":44,"x_max":329,"o":"m 329 167 q 328 158 329 169 q 290 72 322 128 q 215 0 250 0 q 147 258 147 0 q 168 483 147 360 l 165 482 q 110 294 140 422 q 78 103 78 161 q 76 43 78 82 q 76 4 76 4 q 64 -17 76 -17 q 46 10 46 -17 q 46 133 46 36 q 44 274 44 231 q 79 564 44 564 q 93 493 93 564 q 83 388 93 474 q 74 254 75 296 l 76 256 q 126 447 90 335 q 204 590 172 590 q 222 581 211 590 q 232 561 232 571 q 208 442 232 579 q 183 142 183 304 q 221 39 183 39 q 275 93 244 39 q 306 171 297 136 q 317 183 310 183 q 329 167 329 183 z "},"o":{"ha":353,"x_min":36,"x_max":419,"o":"m 419 190 q 375 76 419 132 q 272 15 328 15 q 250 18 261 15 q 174 -12 217 -12 q 75 55 114 -12 q 36 235 36 122 q 78 410 36 338 q 179 482 119 482 q 281 410 239 482 q 322 235 322 338 q 276 53 322 126 q 397 189 357 54 q 411 203 401 203 q 419 190 419 203 m 283 251 q 263 381 283 321 q 192 340 224 374 q 149 219 149 294 q 174 120 149 167 q 239 58 200 74 q 283 251 283 136 m 256 400 q 189 458 231 458 q 103 367 135 458 q 78 215 78 294 q 99 85 78 144 q 172 8 125 8 q 219 31 197 8 q 152 104 179 54 q 125 213 125 154 q 171 347 125 294 q 256 400 208 393 z "},"p":{"ha":303,"x_min":38,"x_max":378,"o":"m 375 207 q 346 111 361 142 q 246 47 313 47 q 185 67 214 47 q 139 54 163 54 q 72 90 99 54 l 72 60 q 74 -149 71 -67 q 76 -254 76 -239 q 57 -286 76 -286 q 38 -256 38 -286 q 43 -154 38 -247 q 46 64 47 -68 l 46 468 q 46 479 46 472 q 46 489 46 486 q 68 529 46 529 q 90 507 90 529 q 89 490 90 501 q 88 475 88 479 q 88 464 88 471 q 175 529 122 529 q 247 469 217 529 q 281 306 281 404 q 207 85 281 156 q 247 72 224 72 q 347 186 321 72 q 363 221 354 221 q 375 207 378 221 m 240 296 q 217 427 240 372 q 154 482 193 482 q 103 447 125 482 q 81 358 81 413 q 183 100 81 182 q 240 296 240 161 m 161 83 q 75 226 103 132 q 74 158 75 217 q 144 81 93 81 q 161 83 153 81 z "},"q":{"ha":275,"x_min":40,"x_max":351,"o":"m 351 -300 q 328 -315 351 -315 q 221 -239 243 -315 q 210 -62 210 -199 q 215 -3 210 -43 q 219 58 219 38 q 213 132 219 100 q 182 61 206 97 q 117 14 151 14 q 40 168 40 14 q 90 422 40 296 q 192 549 139 549 q 225 526 210 549 q 231 547 228 536 q 247 557 235 557 q 265 540 261 557 q 269 471 269 524 q 258 220 269 388 q 247 -31 247 53 q 338 -289 247 -289 q 351 -300 351 -289 m 217 424 q 215 458 217 442 q 185 513 213 513 q 121 421 151 513 q 88 199 88 322 q 133 78 88 78 q 193 158 171 78 q 215 342 215 233 l 215 343 q 215 383 215 357 q 217 424 217 410 z "},"r":{"ha":218,"x_min":14,"x_max":293,"o":"m 293 218 q 257 97 293 182 q 179 0 215 0 q 119 128 119 0 q 139 306 119 201 q 128 304 133 304 q 101 308 111 304 q 90 311 92 311 q 86 307 86 311 q 65 169 86 244 q 29 93 43 93 q 18 98 22 93 q 17 108 14 103 q 61 335 61 183 q 58 403 61 369 q 54 454 54 438 q 89 585 54 585 q 107 493 107 585 q 99 425 107 471 q 90 378 90 379 q 114 351 90 351 q 149 372 132 351 q 168 392 167 392 q 181 378 181 392 q 163 318 181 388 q 146 176 146 249 q 185 63 146 63 q 240 125 211 63 q 268 214 265 178 q 281 229 269 229 q 293 218 293 229 z "},"s":{"ha":288,"x_min":42,"x_max":268,"o":"m 268 54 q 243 -29 268 1 q 182 -60 218 -60 q 87 0 132 -60 q 42 131 42 60 q 64 221 42 221 q 72 211 72 221 q 69 194 72 214 q 65 140 65 174 q 101 22 65 76 q 181 -33 138 -33 q 225 26 225 -33 q 140 223 225 71 q 56 433 56 375 q 79 509 56 482 q 139 536 103 536 q 219 486 186 536 q 251 392 251 442 q 229 356 251 356 q 200 397 200 356 q 138 513 200 513 q 90 450 90 513 q 179 265 90 403 q 268 54 268 126 z "},"t":{"ha":233,"x_min":-25,"x_max":294,"o":"m 294 175 q 247 44 294 135 q 150 -54 193 -54 q 74 43 101 -54 q 50 275 50 133 q 64 511 50 382 q -1 444 -1 490 q -14 432 -1 432 q -25 444 -25 432 q 68 546 -25 514 q 101 756 82 663 q 129 843 121 843 q 138 835 138 843 q 128 738 138 817 q 110 556 117 636 q 154 560 132 560 q 235 529 235 560 q 221 506 235 506 q 210 508 218 506 q 113 519 167 521 l 107 519 q 99 228 99 381 q 156 -7 99 -7 q 225 64 185 -7 q 269 163 256 118 q 288 186 276 186 q 294 175 294 186 z "},"u":{"ha":285,"x_min":40,"x_max":358,"o":"m 358 218 q 324 97 358 179 q 244 0 285 0 q 183 131 196 0 q 117 14 167 14 q 40 225 40 14 q 57 410 40 321 q 93 499 74 499 q 108 472 108 499 q 91 381 108 465 q 74 189 74 296 q 121 78 74 78 q 182 207 165 78 q 196 319 189 263 q 226 410 208 410 q 239 396 239 410 q 229 326 239 393 q 217 172 217 249 q 250 44 217 44 q 304 115 274 44 q 335 214 332 178 q 344 229 336 229 q 358 218 358 229 z "},"v":{"ha":301,"x_min":15,"x_max":297,"o":"m 297 383 q 249 111 297 246 q 172 -11 203 -11 q 82 256 126 -11 q 57 145 74 197 q 28 93 40 93 q 15 104 15 93 q 38 187 15 99 q 60 335 60 275 q 48 452 60 400 q 36 518 36 504 q 49 547 36 532 q 74 563 61 563 q 92 485 92 563 q 124 188 92 349 q 175 33 154 33 q 226 156 199 33 q 254 399 254 279 q 215 574 254 531 q 211 582 211 578 q 218 590 211 590 q 225 586 221 590 q 297 383 297 511 z "},"w":{"ha":453,"x_min":15,"x_max":457,"o":"m 457 383 q 411 111 457 244 q 336 -11 368 -11 q 291 65 315 -11 q 257 240 267 140 q 213 68 240 147 q 167 -11 185 -11 q 82 256 128 -11 q 57 145 74 197 q 28 93 40 93 q 15 104 15 93 q 38 187 15 99 q 60 335 60 275 q 49 452 60 400 q 38 518 38 504 q 50 547 38 532 q 74 563 63 563 q 92 485 92 563 q 117 189 92 344 q 164 33 143 33 q 203 140 182 33 q 224 375 224 254 q 222 413 224 389 q 221 450 221 438 q 232 478 221 463 q 253 494 243 494 q 268 417 268 494 q 292 171 268 308 q 339 33 317 33 q 390 151 364 33 q 415 354 415 265 q 374 574 415 519 q 369 582 369 578 q 378 589 369 589 q 385 586 382 589 q 457 383 457 497 z "},"x":{"ha":335,"x_min":42,"x_max":410,"o":"m 410 218 q 375 101 410 179 q 292 10 333 10 q 178 151 229 10 q 111 -44 118 -15 q 89 -78 101 -78 q 78 -67 78 -78 q 165 190 78 -53 q 94 401 99 401 q 82 317 85 401 q 79 246 81 268 q 67 176 75 204 q 50 160 61 160 q 42 171 42 160 q 49 242 42 188 q 56 319 56 296 q 64 440 58 408 q 97 494 72 494 q 192 265 133 494 q 285 517 265 469 q 301 532 290 532 q 311 521 311 532 q 203 218 311 517 q 292 39 247 39 q 353 113 319 39 q 385 214 382 176 q 396 229 386 229 q 410 218 410 229 z "},"y":{"ha":249,"x_min":11,"x_max":258,"o":"m 258 631 q 235 429 258 593 q 211 196 211 265 q 218 52 211 129 q 225 -71 225 -25 q 51 -342 225 -342 q 11 -318 11 -342 q 22 -293 11 -304 q 47 -282 33 -282 q 65 -289 56 -282 q 83 -296 75 -296 q 186 -176 164 -296 q 194 13 194 -132 q 186 132 194 110 q 165 67 182 103 q 115 14 142 14 q 68 56 88 14 q 43 211 43 110 l 43 235 q 74 438 43 438 q 90 350 90 438 q 81 261 90 322 q 72 189 72 200 q 119 78 72 78 q 171 158 153 78 q 189 342 189 231 q 199 592 189 478 q 236 739 213 739 q 258 631 258 739 z "},"z":{"ha":308,"x_min":36,"x_max":379,"o":"m 379 210 q 378 194 379 200 q 265 8 354 75 q 268 -36 268 -12 q 226 -215 268 -137 q 104 -303 179 -303 q 44 -233 44 -303 q 218 7 44 -126 q 140 101 203 101 q 78 31 101 31 q 64 47 64 31 q 122 124 64 93 l 268 388 q 238 383 254 383 q 167 389 196 383 q 133 394 139 394 q 88 306 101 394 q 62 164 67 176 q 44 151 57 151 q 36 160 36 151 q 38 168 36 163 q 58 282 50 200 q 76 399 68 369 q 126 453 93 453 q 185 444 151 453 q 249 435 219 435 q 284 442 264 435 q 307 450 304 450 q 319 438 319 450 q 153 125 319 407 q 260 38 235 125 q 356 203 339 101 q 371 231 360 231 q 379 210 379 231 m 222 -46 q 221 -24 222 -35 q 67 -236 67 -142 q 107 -282 67 -282 q 190 -204 156 -282 q 222 -46 222 -132 z "},"{":{"ha":211,"x_min":47,"x_max":871,"o":"m 871 -154 q 868 -164 871 -153 q 804 -258 861 -206 q 589 -339 719 -339 q 260 -168 388 -339 q 143 194 143 -12 q 143 225 143 213 l 140 225 q 110 72 128 189 q 83 -17 96 -17 q 61 -8 75 -17 q 47 10 47 0 q 49 135 47 -8 q 49 421 49 278 q 67 935 49 701 q 122 1206 89 1206 q 136 1135 136 1206 q 107 751 136 1040 q 78 414 78 463 q 76 290 78 390 q 75 144 75 190 q 75 104 75 113 l 79 106 q 206 546 154 546 q 224 531 224 546 q 197 426 224 544 q 169 207 169 307 q 304 -174 169 -33 q 594 -296 424 -296 q 790 -235 715 -296 q 850 -150 839 -194 q 861 -139 853 -139 q 871 -154 871 -139 z "},"|":{"ha":171,"x_min":46,"x_max":243,"o":"m 157 571 q 146 524 157 549 q 111 494 132 494 q 85 539 85 494 q 96 586 85 563 q 129 617 110 617 q 157 571 157 617 m 243 218 q 207 93 243 175 q 124 0 164 0 q 46 179 46 0 q 57 304 46 222 q 90 410 71 410 q 103 396 103 410 q 93 326 103 394 q 82 176 82 249 q 138 63 82 63 q 194 125 165 63 q 221 214 221 182 q 233 229 221 229 q 243 218 243 229 z "},"}":{"ha":325,"x_min":44,"x_max":950,"o":"m 950 -101 q 949 -111 950 -100 q 885 -206 940 -153 q 669 -286 800 -286 q 354 -151 468 -286 q 244 197 244 -22 q 250 315 244 246 l 247 317 q 197 171 233 289 q 174 65 194 161 q 149 6 161 6 q 133 24 133 6 q 142 112 133 29 q 150 218 150 194 q 151 267 150 229 q 153 324 153 306 q 149 357 153 357 q 104 276 135 357 q 74 142 74 192 q 75 72 74 110 q 76 4 76 35 q 64 -17 76 -17 q 46 10 46 -17 q 46 133 46 36 q 44 274 44 231 q 79 564 44 564 q 93 493 93 564 q 85 379 93 453 q 74 265 75 301 l 78 267 q 157 456 128 456 q 181 389 181 456 q 169 169 181 290 l 172 169 q 225 372 192 257 q 288 538 271 538 q 307 519 307 538 q 292 429 307 521 q 278 249 278 338 q 386 -131 278 1 q 675 -258 490 -258 q 869 -189 794 -258 q 929 -97 917 -144 q 940 -86 932 -86 q 950 -101 950 -86 z "},"~":{"ha":899,"x_min":49,"x_max":868,"o":"m 868 1044 q 796 946 844 985 q 651 896 735 896 q 454 938 586 896 q 260 981 322 981 q 86 874 157 981 l 49 894 q 152 1017 100 981 q 278 1054 204 1054 q 471 1013 344 1054 q 664 971 597 971 q 833 1067 767 971 l 868 1044 z "},"Ä":{"ha":872,"x_min":15,"x_max":976,"o":"m 976 -101 q 947 -122 976 -122 q 701 246 799 -122 q 594 253 653 253 q 525 246 557 253 q 204 -203 390 -203 q 61 -104 113 -203 q 15 125 15 -14 q 82 417 15 276 q 251 568 156 568 q 338 514 307 568 q 364 385 364 464 q 319 188 364 278 q 210 93 274 93 q 200 103 200 93 q 211 114 200 114 q 286 181 253 114 q 324 372 324 254 q 256 549 324 549 q 129 421 188 549 q 71 132 71 293 q 186 -171 71 -171 q 324 -69 250 -171 q 468 231 403 39 q 406 204 401 204 q 376 224 376 204 q 482 272 376 254 q 603 900 568 543 q 608 1017 608 947 q 608 1071 608 1024 q 607 1144 607 1118 q 616 1199 607 1175 q 638 1224 625 1224 q 658 1200 649 1224 q 667 1153 667 1176 q 656 1028 667 1113 q 646 890 646 944 q 672 583 646 764 q 733 265 697 401 q 808 243 763 260 q 872 207 872 219 q 860 197 872 197 q 815 211 844 197 q 769 231 776 229 q 742 239 756 235 q 965 -85 833 -85 q 976 -101 976 -85 m 694 274 q 624 725 636 510 q 533 278 586 464 q 600 281 565 281 q 694 274 647 281 m 736 1324 q 700 1288 736 1288 q 664 1324 664 1288 q 700 1360 664 1360 q 736 1324 736 1360 m 613 1324 q 576 1288 613 1288 q 540 1324 540 1288 q 576 1360 540 1360 q 613 1324 613 1360 z "},"Å":{"ha":872,"x_min":15,"x_max":976,"o":"m 976 -101 q 947 -122 976 -122 q 701 246 799 -122 q 594 253 653 253 q 525 246 557 253 q 204 -203 390 -203 q 61 -104 113 -203 q 15 125 15 -14 q 82 417 15 276 q 251 568 156 568 q 338 514 307 568 q 364 385 364 464 q 319 188 364 278 q 210 93 274 93 q 200 103 200 93 q 211 114 200 114 q 286 181 253 114 q 324 372 324 254 q 256 549 324 549 q 129 421 188 549 q 71 132 71 293 q 186 -171 71 -171 q 324 -69 250 -171 q 468 231 403 39 q 406 204 401 204 q 376 224 376 204 q 482 272 376 254 q 603 900 568 543 q 608 1017 608 947 q 608 1071 608 1024 q 607 1144 607 1118 q 616 1199 607 1175 q 638 1224 625 1224 q 658 1200 649 1224 q 667 1153 667 1176 q 656 1028 667 1113 q 646 890 646 944 q 672 583 646 764 q 733 265 697 401 q 808 243 763 260 q 872 207 872 219 q 860 197 872 197 q 815 211 844 197 q 769 231 776 229 q 742 239 756 235 q 965 -85 833 -85 q 976 -101 976 -85 m 694 274 q 624 725 636 510 q 533 278 586 464 q 600 281 565 281 q 694 274 647 281 m 753 1392 q 719 1311 753 1344 q 639 1278 686 1278 q 558 1311 592 1278 q 525 1392 525 1344 q 558 1472 525 1439 q 639 1506 592 1506 q 719 1472 686 1506 q 753 1392 753 1439 m 714 1392 q 692 1444 714 1422 q 638 1467 669 1467 q 583 1444 606 1467 q 561 1392 561 1422 q 583 1338 561 1360 q 638 1315 606 1315 q 692 1338 669 1315 q 714 1392 714 1360 z "},"Ç":{"ha":532,"x_min":22,"x_max":525,"o":"m 525 253 q 488 8 525 146 q 286 -233 424 -229 q 274 -285 274 -283 q 300 -278 294 -278 q 367 -340 367 -278 q 342 -403 367 -375 q 276 -431 317 -431 q 219 -410 243 -431 q 196 -351 196 -389 q 206 -336 196 -336 q 213 -349 213 -336 q 271 -389 213 -389 q 314 -374 297 -389 q 331 -336 331 -358 q 293 -303 331 -303 q 274 -310 286 -303 q 257 -317 263 -317 q 244 -308 244 -317 q 263 -232 244 -303 q 96 -76 160 -219 q 22 375 22 86 q 113 925 22 724 q 324 1108 196 1108 q 442 1013 396 1108 q 493 722 493 907 q 432 333 493 510 q 264 138 364 138 q 182 185 217 138 q 142 331 142 238 q 169 471 142 415 q 203 513 190 513 q 214 500 214 513 q 197 459 214 510 q 181 339 181 408 q 204 210 181 264 q 263 157 228 157 q 388 319 332 157 q 444 738 444 492 q 418 996 444 917 q 328 1081 392 1081 q 156 892 231 1081 q 75 365 75 685 q 278 -192 75 -192 q 501 229 417 -192 q 518 269 510 269 q 525 253 525 269 z "},"É":{"ha":517,"x_min":18,"x_max":507,"o":"m 507 36 q 444 -147 507 -76 q 267 -217 381 -217 q 100 -147 172 -217 q 18 64 18 -68 q 108 268 18 181 q 242 351 174 333 q 40 707 40 464 q 138 1004 40 878 q 333 1121 229 1121 q 460 1049 415 1121 q 499 883 499 985 q 449 660 499 763 q 332 557 400 557 q 256 605 289 557 q 222 729 222 653 q 247 839 222 792 q 275 875 265 875 q 285 865 285 875 q 272 833 285 874 q 260 736 260 792 q 281 626 260 672 q 331 581 301 581 q 418 674 382 581 q 451 874 451 763 q 422 1032 451 971 q 325 1101 389 1101 q 169 996 243 1101 q 92 732 92 882 q 175 475 92 579 q 326 383 249 383 q 371 386 350 383 q 396 389 392 389 q 419 368 419 389 q 407 346 419 358 q 382 333 394 333 q 364 333 376 333 q 338 335 350 335 q 144 251 219 335 q 75 64 75 174 q 133 -117 75 -43 q 278 -192 192 -192 q 413 -126 364 -192 q 461 38 461 -61 q 435 161 461 108 q 396 206 413 206 q 388 215 388 206 q 400 226 388 226 q 467 168 429 226 q 507 36 507 104 m 443 1331 q 385 1249 443 1314 q 315 1183 326 1183 q 304 1194 304 1183 q 354 1281 304 1208 q 424 1353 404 1353 q 443 1331 443 1353 z "},"Ñ":{"ha":978,"x_min":15,"x_max":1204,"o":"m 1204 1039 q 1189 1025 1204 1025 q 1176 1036 1176 1025 q 1147 1128 1176 1092 q 1078 1165 1118 1165 q 964 1079 1008 1165 q 913 782 913 978 q 929 474 913 679 q 946 192 946 268 q 875 -11 946 -11 q 767 168 825 -11 q 703 483 713 335 q 572 8 664 192 q 329 -197 469 -197 q 110 -61 199 -197 q 15 322 15 83 q 94 622 15 503 q 278 735 171 735 q 409 660 357 735 q 461 461 461 585 q 444 346 461 397 q 418 300 431 300 q 407 318 407 300 q 421 356 407 313 q 435 456 435 399 q 393 631 435 561 q 285 700 351 700 q 140 597 200 700 q 75 292 75 483 q 129 -18 75 103 q 293 -149 189 -149 q 569 103 460 -149 q 676 724 676 350 q 672 887 676 801 q 668 982 668 972 q 704 1172 668 1172 q 742 982 742 1172 q 724 657 742 833 q 776 288 733 492 q 885 39 831 39 q 915 129 915 39 q 888 416 915 186 q 861 775 861 646 q 929 1097 861 985 q 1069 1190 986 1190 q 1165 1147 1125 1190 q 1204 1039 1204 1104 m 958 1326 q 940 1281 958 1300 q 896 1261 922 1261 q 842 1281 876 1261 q 788 1301 807 1301 q 747 1283 761 1301 q 733 1264 740 1274 q 729 1276 729 1265 q 750 1322 729 1301 q 796 1343 771 1343 q 859 1324 822 1343 q 907 1306 896 1306 q 938 1322 924 1306 q 953 1339 953 1339 q 958 1326 958 1339 z "},"Ö":{"ha":581,"x_min":21,"x_max":568,"o":"m 568 493 q 501 22 568 222 q 313 -194 428 -194 q 90 13 171 -194 q 21 433 21 190 q 58 713 21 607 q 72 724 63 724 q 78 715 78 724 q 76 708 78 713 q 74 699 75 703 q 63 501 63 618 q 111 81 63 256 q 293 -137 174 -137 q 463 72 397 -137 q 524 522 524 263 q 471 910 524 757 q 310 1082 414 1082 q 199 993 243 1082 q 150 728 150 896 q 192 410 150 549 q 308 260 239 260 q 367 314 343 260 q 390 443 390 368 q 374 563 390 511 q 357 604 357 614 q 369 615 357 615 q 401 574 382 615 q 429 435 429 518 q 390 288 429 340 q 307 242 356 242 q 157 390 215 242 q 104 711 104 526 q 153 986 104 879 q 307 1108 207 1108 q 506 918 435 1108 q 568 493 568 750 m 408 1236 q 372 1200 408 1200 q 338 1236 338 1200 q 372 1272 338 1272 q 408 1236 408 1272 m 285 1236 q 249 1200 285 1200 q 213 1236 213 1200 q 249 1272 213 1272 q 285 1236 285 1272 z "},"Ü":{"ha":706,"x_min":15,"x_max":832,"o":"m 832 -74 q 808 -146 832 -110 q 728 -192 778 -192 q 604 47 628 -192 q 456 -212 564 -212 q 350 -111 385 -212 q 322 85 322 -32 q 348 440 322 238 q 374 822 374 642 q 335 1036 374 958 q 246 1107 300 1107 q 125 997 176 1107 q 67 669 67 874 q 108 410 67 514 q 193 315 146 315 q 254 374 229 315 q 283 560 283 440 q 265 693 283 631 q 219 778 247 756 q 214 789 214 782 q 224 801 214 801 q 233 799 228 801 q 299 702 275 769 q 324 557 324 635 q 282 360 324 433 q 192 294 244 294 q 74 394 126 294 q 15 668 15 504 q 88 1014 15 883 q 242 1129 153 1129 q 364 1046 315 1129 q 418 793 418 953 q 394 425 418 647 q 371 51 371 203 q 392 -96 371 -28 q 461 -181 417 -181 q 599 218 557 -181 q 590 651 599 325 q 583 1063 583 940 q 614 1115 583 1115 q 639 1036 639 1115 q 636 764 639 861 q 636 279 636 764 q 664 -53 636 64 q 728 -158 688 -158 q 783 -133 761 -158 q 810 -87 799 -117 q 819 -62 819 -62 q 832 -74 832 -62 m 571 1203 q 535 1167 571 1167 q 499 1203 499 1167 q 535 1239 499 1239 q 571 1203 571 1239 m 447 1203 q 411 1167 447 1167 q 375 1203 375 1167 q 411 1239 375 1239 q 447 1203 447 1239 z "},"á":{"ha":286,"x_min":18,"x_max":361,"o":"m 361 218 q 328 103 361 181 q 251 11 289 11 q 189 108 196 11 l 186 108 q 72 -25 124 -25 q 18 85 18 -25 q 83 278 18 186 q 210 372 144 365 q 214 425 214 417 q 169 496 214 496 q 122 464 144 496 q 100 390 100 432 q 82 360 100 360 q 61 390 61 360 q 95 472 61 428 q 169 515 129 515 q 249 403 249 515 q 239 267 249 358 q 229 138 229 176 q 254 63 229 63 q 308 125 281 63 q 336 214 333 178 q 349 229 338 229 q 361 218 361 229 m 208 346 q 104 263 153 338 q 56 108 56 188 q 90 49 56 49 q 163 122 121 49 q 204 243 204 194 q 208 346 204 285 m 286 703 q 228 622 286 686 q 158 557 169 557 q 147 568 147 557 q 197 653 147 581 q 265 725 247 725 q 286 703 286 725 z "},"à":{"ha":286,"x_min":18,"x_max":361,"o":"m 361 218 q 328 103 361 181 q 251 11 289 11 q 189 108 196 11 l 186 108 q 72 -25 124 -25 q 18 85 18 -25 q 83 278 18 186 q 210 372 144 365 q 214 425 214 417 q 169 496 214 496 q 122 464 144 496 q 100 390 100 432 q 82 360 100 360 q 61 390 61 360 q 95 472 61 428 q 169 515 129 515 q 249 403 249 515 q 239 267 249 358 q 229 138 229 176 q 254 63 229 63 q 308 125 281 63 q 336 214 333 178 q 349 229 338 229 q 361 218 361 229 m 208 346 q 104 263 153 338 q 56 108 56 188 q 90 49 56 49 q 163 122 121 49 q 204 243 204 194 q 208 346 204 285 m 199 568 q 188 557 199 557 q 118 622 176 557 q 60 703 60 686 q 79 725 60 725 q 149 653 99 725 q 199 568 199 581 z "},"â":{"ha":286,"x_min":18,"x_max":361,"o":"m 361 218 q 328 103 361 181 q 251 11 289 11 q 189 108 196 11 l 186 108 q 72 -25 124 -25 q 18 85 18 -25 q 83 278 18 186 q 210 372 144 365 q 214 425 214 417 q 169 496 214 496 q 122 464 144 496 q 100 390 100 432 q 82 360 100 360 q 61 390 61 360 q 95 472 61 428 q 169 515 129 515 q 249 403 249 515 q 239 267 249 358 q 229 138 229 176 q 254 63 229 63 q 308 125 281 63 q 336 214 333 178 q 349 229 338 229 q 361 218 361 229 m 208 346 q 104 263 153 338 q 56 108 56 188 q 90 49 56 49 q 163 122 121 49 q 204 243 204 194 q 208 346 204 285 m 286 560 q 276 549 286 549 q 230 588 268 549 q 167 660 192 626 q 103 588 142 626 q 57 549 65 549 q 47 560 47 549 q 89 633 47 571 q 154 713 131 694 q 167 717 161 717 q 179 713 174 717 q 244 633 203 694 q 286 560 286 571 z "},"ä":{"ha":286,"x_min":18,"x_max":361,"o":"m 361 218 q 328 103 361 181 q 251 11 289 11 q 189 108 196 11 l 186 108 q 72 -25 124 -25 q 18 85 18 -25 q 83 278 18 186 q 210 372 144 365 q 214 425 214 417 q 169 496 214 496 q 122 464 144 496 q 100 390 100 432 q 82 360 100 360 q 61 390 61 360 q 95 472 61 428 q 169 515 129 515 q 249 403 249 515 q 239 267 249 358 q 229 138 229 176 q 254 63 229 63 q 308 125 281 63 q 336 214 333 178 q 349 229 338 229 q 361 218 361 229 m 208 346 q 104 263 153 338 q 56 108 56 188 q 90 49 56 49 q 163 122 121 49 q 204 243 204 194 q 208 346 204 285 m 257 600 q 222 564 257 564 q 186 600 186 564 q 222 636 186 636 q 257 600 257 636 m 133 600 q 97 564 133 564 q 63 600 63 564 q 97 636 63 636 q 133 600 133 636 z "},"ã":{"ha":286,"x_min":18,"x_max":361,"o":"m 361 218 q 328 103 361 181 q 251 11 289 11 q 189 108 196 11 l 186 108 q 72 -25 124 -25 q 18 85 18 -25 q 83 278 18 186 q 210 372 144 365 q 214 425 214 417 q 169 496 214 496 q 122 464 144 496 q 100 390 100 432 q 82 360 100 360 q 61 390 61 360 q 95 472 61 428 q 169 515 129 515 q 249 403 249 515 q 239 267 249 358 q 229 138 229 176 q 254 63 229 63 q 308 125 281 63 q 336 214 333 178 q 349 229 338 229 q 361 218 361 229 m 208 346 q 104 263 153 338 q 56 108 56 188 q 90 49 56 49 q 163 122 121 49 q 204 243 204 194 q 208 346 204 285 m 286 624 q 268 578 286 597 q 224 558 250 558 q 169 578 204 558 q 115 599 135 599 q 74 579 89 599 q 61 560 68 569 q 57 574 57 563 q 77 619 57 599 q 124 640 97 640 q 187 622 150 640 q 235 603 224 603 q 266 619 251 603 q 281 635 281 635 q 286 624 286 635 z "},"å":{"ha":286,"x_min":18,"x_max":361,"o":"m 361 218 q 328 103 361 181 q 251 11 289 11 q 189 108 196 11 l 186 108 q 72 -25 124 -25 q 18 85 18 -25 q 83 278 18 186 q 210 372 144 365 q 214 425 214 417 q 169 496 214 496 q 122 464 144 496 q 100 390 100 432 q 82 360 100 360 q 61 390 61 360 q 95 472 61 428 q 169 515 129 515 q 249 403 249 515 q 239 267 249 358 q 229 138 229 176 q 254 63 229 63 q 308 125 281 63 q 336 214 333 178 q 349 229 338 229 q 361 218 361 229 m 208 346 q 104 263 153 338 q 56 108 56 188 q 90 49 56 49 q 163 122 121 49 q 204 243 204 194 q 208 346 204 285 m 282 706 q 249 625 282 658 q 168 592 215 592 q 88 625 121 592 q 54 706 54 658 q 88 786 54 753 q 168 819 121 819 q 249 786 215 819 q 282 706 282 753 m 243 706 q 221 760 243 738 q 167 782 199 782 q 114 760 136 782 q 92 706 92 738 q 114 653 92 675 q 167 631 136 631 q 221 653 199 631 q 243 706 243 675 z "},"ç":{"ha":317,"x_min":31,"x_max":382,"o":"m 382 183 q 326 58 382 118 q 204 -1 269 -1 l 197 -1 q 183 -64 183 -62 q 208 -56 204 -56 q 275 -118 275 -56 q 250 -181 275 -153 q 185 -208 225 -208 q 128 -187 151 -208 q 104 -129 104 -167 q 115 -114 104 -114 q 121 -128 121 -114 q 179 -168 121 -168 q 222 -152 206 -168 q 239 -115 239 -136 q 203 -81 239 -81 q 183 -87 194 -81 q 165 -94 171 -94 q 154 -86 154 -94 q 174 1 154 -82 q 31 183 31 19 q 83 369 31 282 q 201 456 135 456 q 263 419 239 456 q 282 338 282 386 q 260 256 282 290 q 200 221 239 221 q 188 231 188 221 q 201 240 188 240 q 233 272 221 240 q 246 346 246 304 q 199 436 246 436 q 113 358 150 436 q 76 190 76 279 q 197 24 76 24 q 310 81 264 24 q 360 181 346 122 q 374 201 364 201 q 382 183 382 201 z "},"é":{"ha":264,"x_min":26,"x_max":329,"o":"m 329 183 q 277 61 329 124 q 165 -1 225 -1 q 61 43 99 -1 q 26 142 26 82 q 56 232 26 190 q 135 289 86 274 q 94 343 114 308 q 61 465 61 403 q 81 524 61 503 q 132 546 101 546 q 197 511 169 546 q 221 458 221 482 q 207 443 221 443 q 193 474 206 443 q 149 504 181 504 q 106 442 106 504 q 131 341 106 392 q 189 290 157 290 q 210 274 210 290 q 179 258 210 258 q 92 217 125 258 q 60 126 60 176 q 144 35 60 35 q 251 85 203 35 q 306 181 294 129 q 321 201 311 201 q 329 183 329 201 m 265 743 q 207 662 265 726 q 138 597 149 597 q 126 608 126 597 q 176 694 126 622 q 246 765 226 765 q 265 743 265 765 z "},"è":{"ha":264,"x_min":26,"x_max":329,"o":"m 329 183 q 277 61 329 124 q 165 -1 225 -1 q 61 43 99 -1 q 26 142 26 82 q 56 232 26 190 q 135 289 86 274 q 94 343 114 308 q 61 465 61 403 q 81 524 61 503 q 132 546 101 546 q 197 511 169 546 q 221 458 221 482 q 207 443 221 443 q 193 474 206 443 q 149 504 181 504 q 106 442 106 504 q 131 341 106 392 q 189 290 157 290 q 210 274 210 290 q 179 258 210 258 q 92 217 125 258 q 60 126 60 176 q 144 35 60 35 q 251 85 203 35 q 306 181 294 129 q 321 201 311 201 q 329 183 329 201 m 181 614 q 171 603 181 603 q 101 667 160 603 q 42 749 42 732 q 63 771 42 771 q 131 699 81 771 q 181 614 181 628 z "},"ê":{"ha":264,"x_min":26,"x_max":329,"o":"m 329 183 q 277 61 329 124 q 165 -1 225 -1 q 61 43 99 -1 q 26 142 26 82 q 56 232 26 190 q 135 289 86 274 q 94 343 114 308 q 61 465 61 403 q 81 524 61 503 q 132 546 101 546 q 197 511 169 546 q 221 458 221 482 q 207 443 221 443 q 193 474 206 443 q 149 504 181 504 q 106 442 106 504 q 131 341 106 392 q 189 290 157 290 q 210 274 210 290 q 179 258 210 258 q 92 217 125 258 q 60 126 60 176 q 144 35 60 35 q 251 85 203 35 q 306 181 294 129 q 321 201 311 201 q 329 183 329 201 m 267 583 q 257 572 267 572 q 210 612 249 572 q 147 685 172 651 q 84 612 122 651 q 38 572 46 572 q 28 583 28 572 q 69 658 28 596 q 135 736 111 719 q 147 742 142 742 q 160 736 154 742 q 225 658 183 719 q 267 583 267 596 z "},"ë":{"ha":264,"x_min":26,"x_max":329,"o":"m 329 183 q 277 61 329 124 q 165 -1 225 -1 q 61 43 99 -1 q 26 142 26 82 q 56 232 26 190 q 135 289 86 274 q 94 343 114 308 q 61 465 61 403 q 81 524 61 503 q 132 546 101 546 q 197 511 169 546 q 221 458 221 482 q 207 443 221 443 q 193 474 206 443 q 149 504 181 504 q 106 442 106 504 q 131 341 106 392 q 189 290 157 290 q 210 274 210 290 q 179 258 210 258 q 92 217 125 258 q 60 126 60 176 q 144 35 60 35 q 251 85 203 35 q 306 181 294 129 q 321 201 311 201 q 329 183 329 201 m 229 633 q 194 597 229 597 q 158 633 158 597 q 194 669 158 669 q 229 633 229 669 m 106 633 q 69 597 106 597 q 35 633 35 597 q 69 669 35 669 q 106 633 106 669 z "},"í":{"ha":171,"x_min":46,"x_max":243,"o":"m 243 218 q 207 93 243 175 q 124 0 164 0 q 46 179 46 0 q 57 304 46 222 q 90 410 71 410 q 103 396 103 410 q 93 326 103 394 q 82 176 82 249 q 138 63 82 63 q 194 125 165 63 q 221 214 221 182 q 233 229 221 229 q 243 218 243 229 m 225 615 q 166 533 225 597 q 96 468 107 468 q 86 479 86 468 q 136 565 86 493 q 204 636 186 636 q 225 615 225 636 z "},"ì":{"ha":171,"x_min":3,"x_max":243,"o":"m 243 218 q 207 93 243 175 q 124 0 164 0 q 46 179 46 0 q 57 304 46 222 q 90 410 71 410 q 103 396 103 410 q 93 326 103 394 q 82 176 82 249 q 138 63 82 63 q 194 125 165 63 q 221 214 221 182 q 233 229 221 229 q 243 218 243 229 m 142 479 q 131 468 142 468 q 61 533 119 468 q 3 615 3 597 q 22 636 3 636 q 92 565 42 636 q 142 479 142 493 z "},"î":{"ha":171,"x_min":-24,"x_max":243,"o":"m 243 218 q 207 93 243 175 q 124 0 164 0 q 46 179 46 0 q 57 304 46 222 q 90 410 71 410 q 103 396 103 410 q 93 326 103 394 q 82 176 82 249 q 138 63 82 63 q 194 125 165 63 q 221 214 221 182 q 233 229 221 229 q 243 218 243 229 m 215 426 q 206 415 215 415 q 159 454 197 415 q 96 526 121 493 q 33 454 71 493 q -12 415 -6 415 q -24 426 -24 415 q 18 499 -24 438 q 83 578 60 561 q 96 583 90 583 q 108 578 103 583 q 174 499 132 561 q 215 426 215 438 z "},"ï":{"ha":171,"x_min":-6,"x_max":243,"o":"m 243 218 q 207 93 243 175 q 124 0 164 0 q 46 179 46 0 q 57 304 46 222 q 90 410 71 410 q 103 396 103 410 q 93 326 103 394 q 82 176 82 249 q 138 63 82 63 q 194 125 165 63 q 221 214 221 182 q 233 229 221 229 q 243 218 243 229 m 190 504 q 154 468 190 468 q 118 504 118 468 q 154 540 118 540 q 190 504 190 540 m 67 504 q 31 468 67 468 q -6 504 -6 468 q 31 540 -6 540 q 67 504 67 540 z "},"ñ":{"ha":267,"x_min":36,"x_max":329,"o":"m 329 167 q 328 158 329 169 q 290 72 322 128 q 215 0 250 0 q 147 258 147 0 q 168 483 147 360 l 165 482 q 110 294 140 422 q 78 103 78 161 q 76 43 78 82 q 76 4 76 4 q 64 -17 76 -17 q 46 10 46 -17 q 46 133 46 36 q 44 274 44 231 q 79 564 44 564 q 93 493 93 564 q 83 388 93 474 q 74 254 75 296 l 76 256 q 126 447 90 335 q 204 590 172 590 q 222 581 211 590 q 232 561 232 571 q 208 442 232 579 q 183 142 183 304 q 221 39 183 39 q 275 93 244 39 q 306 171 297 136 q 317 183 310 183 q 329 167 329 183 m 265 707 q 247 661 265 681 q 203 642 229 642 q 148 662 183 642 q 94 682 113 682 q 53 663 68 682 q 39 643 46 653 q 36 657 36 646 q 56 703 36 682 q 103 724 76 724 q 166 705 129 724 q 214 686 203 686 q 245 702 231 686 q 258 718 260 718 q 265 707 265 718 z "},"ó":{"ha":353,"x_min":36,"x_max":419,"o":"m 419 190 q 375 76 419 132 q 272 15 328 15 q 250 18 261 15 q 174 -12 217 -12 q 75 55 114 -12 q 36 235 36 122 q 78 410 36 338 q 179 482 119 482 q 281 410 239 482 q 322 235 322 338 q 276 53 322 126 q 397 189 357 54 q 411 203 401 203 q 419 190 419 203 m 283 251 q 263 381 283 321 q 192 340 224 374 q 149 219 149 294 q 174 120 149 167 q 239 58 200 74 q 283 251 283 136 m 256 400 q 189 458 231 458 q 103 367 135 458 q 78 215 78 294 q 99 85 78 144 q 172 8 125 8 q 219 31 197 8 q 152 104 179 54 q 125 213 125 154 q 171 347 125 294 q 256 400 208 393 m 314 674 q 255 592 314 657 q 185 528 196 528 q 175 539 175 528 q 225 624 175 551 q 293 696 275 696 q 314 674 314 696 z "},"ò":{"ha":353,"x_min":36,"x_max":419,"o":"m 419 190 q 375 76 419 132 q 272 15 328 15 q 250 18 261 15 q 174 -12 217 -12 q 75 55 114 -12 q 36 235 36 122 q 78 410 36 338 q 179 482 119 482 q 281 410 239 482 q 322 235 322 338 q 276 53 322 126 q 397 189 357 54 q 411 203 401 203 q 419 190 419 203 m 283 251 q 263 381 283 321 q 192 340 224 374 q 149 219 149 294 q 174 120 149 167 q 239 58 200 74 q 283 251 283 136 m 256 400 q 189 458 231 458 q 103 367 135 458 q 78 215 78 294 q 99 85 78 144 q 172 8 125 8 q 219 31 197 8 q 152 104 179 54 q 125 213 125 154 q 171 347 125 294 q 256 400 208 393 m 213 540 q 203 529 213 529 q 133 594 192 529 q 75 675 75 658 q 94 697 75 697 q 163 625 113 697 q 213 540 213 553 z "},"ô":{"ha":353,"x_min":36,"x_max":419,"o":"m 419 190 q 375 76 419 132 q 272 15 328 15 q 250 18 261 15 q 174 -12 217 -12 q 75 55 114 -12 q 36 235 36 122 q 78 410 36 338 q 179 482 119 482 q 281 410 239 482 q 322 235 322 338 q 276 53 322 126 q 397 189 357 54 q 411 203 401 203 q 419 190 419 203 m 283 251 q 263 381 283 321 q 192 340 224 374 q 149 219 149 294 q 174 120 149 167 q 239 58 200 74 q 283 251 283 136 m 256 400 q 189 458 231 458 q 103 367 135 458 q 78 215 78 294 q 99 85 78 144 q 172 8 125 8 q 219 31 197 8 q 152 104 179 54 q 125 213 125 154 q 171 347 125 294 q 256 400 208 393 m 311 521 q 300 510 311 510 q 253 549 292 510 q 190 621 215 588 q 128 549 167 588 q 82 510 89 510 q 71 521 71 510 q 113 594 71 532 q 179 674 154 656 q 190 678 186 678 q 203 674 197 678 q 269 594 228 656 q 311 521 311 532 z "},"ö":{"ha":353,"x_min":36,"x_max":419,"o":"m 419 190 q 375 76 419 132 q 272 15 328 15 q 250 18 261 15 q 174 -12 217 -12 q 75 55 114 -12 q 36 235 36 122 q 78 410 36 338 q 179 482 119 482 q 281 410 239 482 q 322 235 322 338 q 276 53 322 126 q 397 189 357 54 q 411 203 401 203 q 419 190 419 203 m 283 251 q 263 381 283 321 q 192 340 224 374 q 149 219 149 294 q 174 120 149 167 q 239 58 200 74 q 283 251 283 136 m 256 400 q 189 458 231 458 q 103 367 135 458 q 78 215 78 294 q 99 85 78 144 q 172 8 125 8 q 219 31 197 8 q 152 104 179 54 q 125 213 125 154 q 171 347 125 294 q 256 400 208 393 m 292 569 q 256 533 292 533 q 219 569 219 533 q 256 604 219 604 q 292 569 292 604 m 168 569 q 132 533 168 533 q 96 569 96 533 q 132 604 96 604 q 168 569 168 604 z "},"õ":{"ha":353,"x_min":36,"x_max":419,"o":"m 419 190 q 375 76 419 132 q 272 15 328 15 q 250 18 261 15 q 174 -12 217 -12 q 75 55 114 -12 q 36 235 36 122 q 78 410 36 338 q 179 482 119 482 q 281 410 239 482 q 322 235 322 338 q 276 53 322 126 q 397 189 357 54 q 411 203 401 203 q 419 190 419 203 m 283 251 q 263 381 283 321 q 192 340 224 374 q 149 219 149 294 q 174 120 149 167 q 239 58 200 74 q 283 251 283 136 m 256 400 q 189 458 231 458 q 103 367 135 458 q 78 215 78 294 q 99 85 78 144 q 172 8 125 8 q 219 31 197 8 q 152 104 179 54 q 125 213 125 154 q 171 347 125 294 q 256 400 208 393 m 307 599 q 289 553 307 572 q 244 533 271 533 q 190 553 225 533 q 136 574 154 574 q 94 556 110 574 q 82 536 88 546 q 78 549 78 538 q 98 594 78 574 q 144 615 118 615 q 208 597 171 615 q 256 578 244 578 q 287 594 272 578 q 300 610 301 610 q 307 599 307 610 z "},"ú":{"ha":285,"x_min":40,"x_max":358,"o":"m 358 218 q 324 97 358 179 q 244 0 285 0 q 183 131 196 0 q 117 14 167 14 q 40 225 40 14 q 57 410 40 321 q 93 499 74 499 q 108 472 108 499 q 91 381 108 465 q 74 189 74 296 q 121 78 74 78 q 182 207 165 78 q 196 319 189 263 q 226 410 208 410 q 239 396 239 410 q 229 326 239 393 q 217 172 217 249 q 250 44 217 44 q 304 115 274 44 q 335 214 332 178 q 344 229 336 229 q 358 218 358 229 m 310 650 q 251 567 310 632 q 181 503 192 503 q 171 514 171 503 q 221 600 171 528 q 289 672 271 672 q 310 650 310 672 z "},"ù":{"ha":285,"x_min":40,"x_max":358,"o":"m 358 218 q 324 97 358 179 q 244 0 285 0 q 183 131 196 0 q 117 14 167 14 q 40 225 40 14 q 57 410 40 321 q 93 499 74 499 q 108 472 108 499 q 91 381 108 465 q 74 189 74 296 q 121 78 74 78 q 182 207 165 78 q 196 319 189 263 q 226 410 208 410 q 239 396 239 410 q 229 326 239 393 q 217 172 217 249 q 250 44 217 44 q 304 115 274 44 q 335 214 332 178 q 344 229 336 229 q 358 218 358 229 m 197 532 q 186 521 197 521 q 117 585 175 521 q 58 667 58 650 q 78 689 58 689 q 147 617 97 689 q 197 532 197 546 z "},"û":{"ha":285,"x_min":40,"x_max":358,"o":"m 358 218 q 324 97 358 179 q 244 0 285 0 q 183 131 196 0 q 117 14 167 14 q 40 225 40 14 q 57 410 40 321 q 93 499 74 499 q 108 472 108 499 q 91 381 108 465 q 74 189 74 296 q 121 78 74 78 q 182 207 165 78 q 196 319 189 263 q 226 410 208 410 q 239 396 239 410 q 229 326 239 393 q 217 172 217 249 q 250 44 217 44 q 304 115 274 44 q 335 214 332 178 q 344 229 336 229 q 358 218 358 229 m 300 554 q 290 543 300 543 q 244 582 282 543 q 181 656 206 621 q 117 582 156 621 q 72 543 79 543 q 61 554 61 543 q 103 628 61 565 q 168 707 144 690 q 181 711 175 711 q 193 707 188 711 q 258 628 217 690 q 300 554 300 565 z "},"ü":{"ha":285,"x_min":40,"x_max":358,"o":"m 358 218 q 324 97 358 179 q 244 0 285 0 q 183 131 196 0 q 117 14 167 14 q 40 225 40 14 q 57 410 40 321 q 93 499 74 499 q 108 472 108 499 q 91 381 108 465 q 74 189 74 296 q 121 78 74 78 q 182 207 165 78 q 196 319 189 263 q 226 410 208 410 q 239 396 239 410 q 229 326 239 393 q 217 172 217 249 q 250 44 217 44 q 304 115 274 44 q 335 214 332 178 q 344 229 336 229 q 358 218 358 229 m 275 592 q 239 557 275 557 q 203 592 203 557 q 239 628 203 628 q 275 592 275 628 m 151 592 q 115 557 151 557 q 79 592 79 557 q 115 628 79 628 q 151 592 151 628 z "},"†":{"ha":340,"x_min":29,"x_max":319,"o":"m 319 864 q 306 847 319 847 q 249 851 286 847 q 192 856 211 856 q 174 399 189 800 q 156 369 172 369 q 139 389 139 369 q 146 529 139 442 q 154 668 153 636 q 158 854 158 772 q 61 844 61 844 q 29 863 29 844 q 83 890 29 890 q 160 889 122 890 q 158 963 160 913 q 156 1036 156 1013 q 176 1089 156 1089 q 208 1050 208 1089 q 197 921 208 1068 l 194 889 q 303 881 251 886 q 319 864 319 879 z "},"°":{"ha":533,"x_min":36,"x_max":490,"o":"m 490 896 q 424 736 490 803 q 263 669 357 669 q 103 736 169 669 q 36 896 36 803 q 103 1057 36 990 q 263 1124 169 1124 q 424 1057 357 1124 q 490 896 490 990 m 450 897 q 395 1030 450 975 q 263 1085 340 1085 q 130 1030 185 1085 q 75 897 75 975 q 130 763 75 818 q 263 708 185 708 q 395 763 340 708 q 450 897 450 818 z "},"¢":{"ha":600,"x_min":54,"x_max":557,"o":"m 557 454 q 519 294 557 383 q 314 139 454 139 q 294 15 314 15 q 265 50 271 15 q 264 144 264 67 q 117 257 172 165 q 54 533 54 360 q 122 850 54 725 q 269 994 179 957 l 272 1067 q 292 1126 274 1126 q 311 1076 311 1126 q 311 1007 311 1044 q 349 1011 329 1011 q 449 974 408 1011 q 489 875 489 938 q 458 778 489 818 q 364 735 424 735 q 344 747 344 735 q 365 758 344 758 q 438 885 438 758 q 416 961 438 929 q 356 993 394 993 q 310 982 335 993 q 304 794 310 951 q 300 607 300 681 q 307 383 300 517 q 314 165 314 243 q 533 439 450 169 q 550 465 542 465 q 557 454 557 465 m 269 957 q 157 799 201 903 q 107 526 107 679 q 264 171 107 213 q 269 957 264 763 z "},"£":{"ha":579,"x_min":32,"x_max":563,"o":"m 563 100 q 561 94 563 97 q 521 44 551 69 q 417 7 475 7 q 294 63 360 7 q 196 161 246 111 q 108 25 178 25 q 54 52 76 25 q 32 122 32 79 q 57 197 32 168 q 117 225 82 225 q 154 217 135 225 q 132 418 151 271 q 72 411 94 411 q 42 432 42 411 q 96 467 42 467 q 126 467 111 467 q 119 593 119 531 q 183 986 119 843 q 317 1113 239 1113 q 422 1029 381 1113 q 469 789 469 939 q 429 607 469 672 q 344 549 394 549 q 272 592 303 549 q 242 711 242 636 q 269 829 242 782 q 301 864 289 864 q 314 854 314 864 q 297 819 314 863 q 279 718 279 776 q 298 606 279 647 q 343 565 317 565 q 393 615 372 565 q 418 775 418 674 q 386 1013 418 924 q 315 1094 357 1094 q 222 972 263 1094 q 179 618 179 838 q 186 465 179 550 q 324 454 260 463 q 339 435 339 451 q 326 414 339 414 q 267 420 307 414 q 208 426 228 426 q 189 425 199 426 q 201 264 201 297 q 199 190 201 224 q 307 101 253 146 q 440 51 378 51 q 508 69 475 51 q 544 101 536 85 q 556 107 549 107 q 563 100 563 107 m 154 165 q 154 193 154 179 q 119 204 136 204 q 72 119 72 204 q 85 67 72 89 q 114 46 99 46 q 154 165 154 46 z "},"§":{"ha":553,"x_min":6,"x_max":517,"o":"m 517 521 q 472 410 517 456 q 315 354 418 354 q 450 154 450 250 q 400 40 450 86 q 229 -17 340 -17 q 89 28 139 -17 q 47 122 47 65 q 61 171 47 149 q 110 199 78 199 q 175 138 175 199 q 155 88 175 115 q 135 56 135 61 q 164 26 135 42 q 236 11 193 11 q 324 32 289 11 q 367 108 367 58 q 344 186 367 150 q 247 286 321 222 l 125 393 q 6 588 6 497 q 51 699 6 651 q 204 756 106 756 q 107 853 133 817 q 71 957 71 903 q 132 1086 71 1038 q 274 1132 189 1132 q 397 1092 342 1132 q 453 993 453 1051 q 433 938 453 960 q 379 917 413 917 q 338 932 356 917 q 319 967 319 947 q 342 1010 319 988 q 365 1060 365 1032 q 335 1089 365 1076 q 269 1101 304 1101 q 156 1006 156 1101 q 172 932 156 961 q 278 821 197 886 l 400 721 q 517 521 517 625 m 438 496 q 350 635 432 554 q 240 726 297 688 q 128 701 169 726 q 86 633 86 676 q 169 496 86 592 q 286 386 246 410 q 381 407 340 386 q 438 496 438 436 z "},"•":{"ha":486,"x_min":97,"x_max":389,"o":"m 389 358 q 346 256 389 299 q 243 213 303 213 q 140 256 183 213 q 97 358 97 299 q 140 462 97 419 q 243 504 183 504 q 346 462 303 504 q 389 358 389 419 z "},"¶":{"ha":694,"x_min":57,"x_max":638,"o":"m 638 956 l 550 956 l 550 0 l 496 0 l 496 956 l 369 956 l 369 0 l 313 0 l 313 532 q 124 595 192 533 q 57 768 57 657 q 117 926 57 863 q 322 1004 188 1004 l 638 1004 l 638 956 z "},"ß":{"ha":343,"x_min":-108,"x_max":351,"o":"m 351 54 q 326 -29 351 1 q 265 -60 301 -60 q 170 0 215 -60 q 125 131 125 60 q 147 221 125 221 q 156 211 156 221 q 151 194 156 214 q 147 140 147 174 q 184 22 147 76 q 264 -33 221 -33 q 308 26 308 -33 q 224 223 308 71 q 139 433 139 375 q 203 655 139 518 q 268 872 268 792 q 242 972 268 935 q 178 1008 217 1008 q 60 644 60 1008 q 83 238 60 490 q 106 -37 106 -15 q -67 -308 106 -308 q -108 -285 -108 -308 q -97 -260 -108 -271 q -72 -249 -86 -249 q -53 -255 -62 -249 q -36 -261 -44 -261 q 53 -186 32 -261 q 68 46 68 -131 q 46 292 68 71 q 24 650 24 513 q 179 1036 24 1036 q 274 981 238 1036 q 311 842 311 926 q 239 630 311 760 q 167 450 167 500 q 259 265 167 403 q 351 54 351 126 z "},"®":{"ha":868,"x_min":56,"x_max":839,"o":"m 839 707 q 724 430 839 544 q 447 315 610 315 q 170 430 285 315 q 56 707 56 544 q 170 984 56 869 q 447 1099 285 1099 q 724 984 610 1099 q 839 707 839 869 m 808 707 q 703 963 808 857 q 447 1068 597 1068 q 192 963 299 1068 q 86 707 86 857 q 192 451 86 557 q 447 346 299 346 q 703 451 597 346 q 808 707 808 557 m 615 431 q 607 421 615 421 q 497 488 529 421 q 464 618 488 507 q 435 614 450 614 q 425 614 429 614 q 424 518 425 592 q 422 422 422 458 q 408 406 422 406 q 397 419 397 406 q 399 521 397 456 q 400 621 400 592 q 360 683 360 640 q 400 733 360 732 q 396 847 399 768 q 392 961 392 921 q 407 988 392 988 q 431 946 431 988 q 428 838 431 907 q 425 729 425 763 q 481 660 458 717 q 531 835 531 706 q 497 967 531 919 q 424 1007 468 1007 q 340 961 376 1007 q 300 828 300 910 q 329 753 300 753 q 356 833 356 753 q 350 882 356 863 q 346 894 350 883 l 344 903 q 343 908 343 906 q 350 917 343 917 l 353 917 q 379 829 379 899 q 369 772 379 799 q 329 736 356 736 q 282 774 297 736 q 269 836 269 801 q 318 975 269 921 q 426 1025 364 1025 q 525 976 486 1025 q 568 825 568 922 q 550 719 568 771 q 490 631 529 657 q 531 504 501 588 q 607 440 558 440 q 615 431 615 440 m 457 644 q 425 708 443 696 l 425 640 q 431 640 428 640 q 457 644 444 640 m 400 649 q 400 714 400 682 q 381 688 381 711 q 400 649 381 663 z "},"©":{"ha":1256,"x_min":61,"x_max":1172,"o":"m 1172 556 q 1010 163 1172 325 q 617 0 847 0 q 224 163 388 0 q 61 556 61 325 q 224 949 61 786 q 617 1111 388 1111 q 1010 949 847 1111 q 1172 556 1172 786 m 1140 556 q 988 925 1140 772 q 618 1078 835 1078 q 249 925 401 1078 q 96 556 96 772 q 249 186 96 339 q 618 33 401 33 q 988 186 835 33 q 1140 556 1140 339 m 792 443 q 763 281 792 372 q 601 122 711 122 q 460 217 515 122 q 399 524 399 325 q 468 889 399 754 q 633 1015 533 1015 q 731 946 694 1015 q 768 751 768 876 q 719 492 768 611 q 588 357 667 357 q 522 393 550 357 q 490 494 490 432 q 513 588 490 550 q 540 617 529 617 q 551 606 551 617 q 550 601 551 604 l 547 597 q 526 500 526 557 q 544 417 526 451 q 588 383 561 383 q 681 489 639 383 q 725 761 725 601 q 705 931 725 878 q 638 983 685 983 q 507 861 564 983 q 444 517 444 726 q 599 156 444 156 q 768 429 704 156 q 785 457 775 457 q 792 443 792 457 z "},"™":{"ha":1032,"x_min":51,"x_max":1022,"o":"m 1022 438 q 1000 378 1022 406 q 946 351 978 351 q 838 665 833 351 l 826 588 q 801 475 815 511 q 793 463 797 463 q 781 500 788 463 q 764 632 771 551 q 703 463 742 532 q 569 360 646 360 q 432 465 479 360 q 394 649 394 546 q 428 796 394 729 q 542 879 469 879 q 624 825 594 879 q 647 725 647 782 q 640 674 647 706 q 619 632 631 632 q 608 646 608 632 q 615 678 608 651 q 622 721 622 704 q 607 803 622 767 q 546 850 586 850 q 457 764 488 850 q 436 632 436 703 q 457 489 436 551 q 550 396 486 396 q 707 544 647 396 q 754 775 754 661 q 749 895 754 815 q 744 1015 744 975 q 775 1179 744 1179 q 800 1069 800 1179 q 790 847 800 967 q 781 746 781 728 q 793 538 781 744 q 817 665 799 542 q 836 807 836 788 q 850 1032 836 913 q 871 1103 860 1103 q 888 1040 888 1103 q 874 861 888 981 q 861 682 861 742 q 875 515 861 594 q 946 383 896 383 q 992 417 976 383 q 1010 450 1008 450 q 1022 438 1022 450 m 367 1100 q 356 1075 367 1093 q 364 922 364 994 q 339 600 364 746 q 199 358 296 358 q 94 456 132 358 q 67 610 67 528 q 85 719 67 669 q 158 790 110 790 q 228 728 204 790 q 243 628 243 683 q 235 579 243 613 q 217 539 226 539 q 204 557 204 539 q 210 588 204 567 q 215 619 215 608 q 206 701 215 663 q 165 757 192 757 q 119 693 135 757 q 108 600 108 649 q 126 475 108 538 q 196 388 150 388 q 326 878 326 388 q 321 1024 326 946 q 203 958 269 958 q 115 991 161 958 q 54 1064 69 1024 q 51 1072 51 1071 q 67 1089 51 1089 l 74 1085 q 194 1000 118 1000 q 275 1031 242 1000 q 317 1088 296 1050 q 340 1119 333 1119 q 367 1100 367 1119 z "},"´":{"ha":207,"x_min":40,"x_max":179,"o":"m 179 1075 q 121 992 179 1057 q 51 928 63 928 q 40 939 40 928 q 90 1025 40 953 q 160 1097 140 1097 q 179 1075 179 1097 z "},"¨":{"ha":264,"x_min":35,"x_max":229,"o":"m 229 1038 q 194 1001 229 1001 q 158 1038 158 1001 q 194 1074 158 1074 q 229 1038 229 1074 m 106 1038 q 69 1001 106 1001 q 35 1038 35 1001 q 69 1074 35 1074 q 106 1038 106 1074 z "},"Æ":{"ha":1257,"x_min":14,"x_max":1247,"o":"m 1247 36 q 1183 -147 1247 -76 q 1007 -217 1119 -217 q 840 -136 907 -217 q 751 49 789 -74 q 700 246 726 147 q 593 253 651 253 q 524 246 556 253 q 203 -203 390 -203 q 61 -104 111 -203 q 14 125 14 -14 q 81 417 14 276 q 250 568 154 568 q 336 514 306 568 q 363 385 363 464 q 318 188 363 278 q 208 93 272 93 q 199 103 199 93 q 210 114 199 114 q 285 181 251 114 q 322 372 322 254 q 254 549 322 549 q 128 421 186 549 q 69 132 69 293 q 185 -171 69 -171 q 322 -69 249 -171 q 467 231 403 39 q 404 204 400 204 q 375 224 375 204 q 481 272 375 254 q 601 900 567 543 q 607 1017 607 947 q 607 1071 607 1024 q 607 1144 607 1118 q 616 1199 607 1175 q 636 1224 625 1224 q 656 1200 647 1224 q 665 1153 665 1176 q 655 1028 665 1113 q 644 890 644 944 q 670 583 644 764 q 732 265 696 401 q 821 238 792 253 q 982 351 892 326 q 779 707 779 464 q 878 1004 779 878 q 1072 1121 969 1121 q 1199 1049 1156 1121 q 1238 883 1238 985 q 1190 661 1238 763 q 1071 557 1139 557 q 996 605 1029 557 q 963 729 963 653 q 986 839 963 792 q 1015 875 1006 875 q 1024 865 1024 875 q 1011 833 1024 874 q 999 736 999 792 q 1019 626 999 672 q 1069 581 1040 581 q 1157 674 1121 581 q 1192 874 1192 763 q 1163 1032 1192 971 q 1064 1101 1128 1101 q 910 996 982 1101 q 832 732 832 882 q 915 475 832 579 q 1067 383 988 383 q 1110 386 1090 383 q 1135 389 1131 389 q 1158 368 1158 389 q 1146 346 1158 358 q 1122 333 1133 333 q 1103 333 1117 333 q 1076 335 1089 335 q 885 251 958 335 q 815 64 815 174 q 874 -117 815 -43 q 1017 -192 932 -192 q 1153 -126 1104 -192 q 1201 38 1201 -61 q 1174 161 1201 108 q 1135 206 1151 206 q 1126 215 1126 206 q 1140 226 1126 226 q 1207 168 1169 226 q 1247 36 1247 104 m 693 274 q 622 725 635 510 q 532 278 585 464 q 599 281 565 281 q 693 274 646 281 m 806 217 q 740 239 786 228 l 768 138 q 806 217 781 179 z "},"Ø":{"ha":581,"x_min":-31,"x_max":642,"o":"m 642 1132 q 625 1114 642 1114 q 617 1115 622 1114 q 611 1117 613 1117 q 501 928 576 1117 q 568 493 568 757 q 501 22 568 222 q 313 -194 428 -194 q 131 -71 204 -194 q 15 -203 63 -203 q -17 -187 -3 -203 q -31 -154 -31 -172 q -12 -140 -31 -140 q 3 -155 1 -140 q 17 -169 6 -169 q 113 -37 51 -169 q 21 433 21 146 q 58 713 21 607 q 72 724 63 724 q 78 715 78 724 q 76 708 78 713 q 74 699 75 703 q 63 501 63 618 q 133 14 63 194 q 231 272 172 106 q 136 453 172 325 q 104 711 104 571 q 153 986 104 879 q 307 1108 207 1108 q 485 967 417 1108 q 618 1147 567 1147 q 642 1132 642 1147 m 467 924 q 310 1082 408 1082 q 199 993 243 1082 q 150 728 150 896 q 174 483 150 599 q 242 303 199 361 q 354 629 299 465 q 467 924 421 817 m 390 443 q 374 565 390 514 q 271 272 339 467 q 308 260 289 260 q 367 314 343 260 q 390 443 390 368 m 524 522 q 482 875 524 728 q 385 601 449 788 q 429 435 429 544 q 390 288 429 340 q 307 242 356 242 q 263 251 285 242 q 151 -26 199 76 q 293 -137 208 -137 q 463 72 397 -137 q 524 522 524 263 z "},"ª":{"ha":365,"x_min":18,"x_max":361,"o":"m 361 801 q 328 686 361 765 q 251 596 289 596 q 189 692 196 596 l 186 693 q 72 558 124 558 q 18 669 18 558 q 83 861 18 771 q 210 956 144 950 q 214 1010 214 1000 q 169 1079 214 1079 q 122 1048 144 1079 q 100 974 100 1017 q 82 944 100 944 q 61 974 61 944 q 94 1053 61 1011 q 169 1100 129 1100 q 249 986 249 1100 q 239 851 249 942 q 229 721 229 760 q 254 646 229 646 q 308 708 281 646 q 336 799 333 763 q 349 813 338 813 q 361 801 361 813 m 322 490 q 310 475 322 475 q 251 479 290 475 q 192 483 211 483 q 124 478 169 483 q 57 474 79 474 q 25 489 25 474 q 81 514 25 514 q 308 504 204 514 q 322 490 322 503 m 208 929 q 104 846 153 921 q 56 692 56 771 q 90 632 56 632 q 163 706 121 632 q 204 826 204 779 q 208 929 204 868 z "},"º":{"ha":432,"x_min":39,"x_max":426,"o":"m 426 808 q 380 693 426 751 q 278 635 333 635 q 256 638 267 635 q 181 606 222 606 q 81 674 119 606 q 42 853 42 742 q 84 1028 42 956 q 185 1101 126 1101 q 287 1028 244 1101 q 329 853 329 956 q 283 672 329 744 q 403 807 363 674 q 417 822 407 822 q 426 808 426 822 m 336 544 q 324 529 336 529 q 265 533 304 529 q 206 538 225 538 q 138 533 182 538 q 69 528 93 528 q 39 543 39 528 q 93 568 39 568 q 321 558 218 568 q 336 544 336 557 m 289 871 q 269 1000 289 940 q 197 960 229 992 q 154 839 154 914 q 180 739 154 785 q 246 678 206 693 q 289 871 289 756 m 261 1018 q 194 1076 236 1076 q 108 986 142 1076 q 83 835 83 913 q 104 704 83 764 q 178 628 131 628 q 225 650 204 628 q 158 723 185 672 q 131 832 131 774 q 176 967 131 913 q 261 1018 214 1011 z "},"æ":{"ha":422,"x_min":18,"x_max":488,"o":"m 488 183 q 435 61 488 124 q 322 -1 383 -1 q 188 108 210 -1 l 186 108 q 72 -25 124 -25 q 18 85 18 -25 q 82 278 18 186 q 210 372 144 365 q 213 425 213 417 q 169 496 213 496 q 122 464 144 496 q 99 390 99 432 q 82 360 99 360 q 61 390 61 360 q 95 472 61 428 q 169 515 129 515 q 222 493 201 515 q 290 546 238 546 q 356 511 328 546 q 378 458 378 482 q 365 443 378 443 q 351 474 364 443 q 307 504 339 504 q 264 442 264 504 q 290 341 264 392 q 346 290 315 290 q 367 274 367 290 q 338 258 367 258 q 251 217 283 258 q 218 126 218 176 q 301 35 218 35 q 410 85 361 35 q 464 181 453 129 q 478 201 469 201 q 488 183 488 201 m 293 289 q 247 353 268 311 q 238 258 243 318 q 293 289 260 279 m 208 346 q 104 263 153 338 q 56 108 56 188 q 90 49 56 49 q 164 121 124 49 q 204 243 204 193 q 208 346 204 285 z "},"ø":{"ha":353,"x_min":8,"x_max":421,"o":"m 421 190 q 376 76 421 132 q 272 15 328 15 q 250 18 261 15 q 175 -12 218 -12 q 94 28 129 -12 q 38 -12 64 -12 q 17 0 26 -12 q 8 25 8 13 q 19 33 8 33 q 29 24 28 33 q 38 14 31 14 q 79 49 57 14 q 36 235 36 117 q 78 410 36 338 q 181 482 121 482 q 257 443 222 482 q 328 507 296 507 q 343 497 343 507 q 332 486 343 486 q 328 488 331 486 q 322 488 325 488 q 271 425 303 488 q 324 235 324 351 q 278 53 324 126 q 397 189 357 54 q 411 203 403 203 q 421 190 421 203 m 217 361 q 149 219 149 315 q 150 197 149 208 q 217 361 172 253 m 285 251 q 264 381 285 321 q 250 376 257 379 q 160 153 221 301 q 240 58 185 81 q 285 251 285 136 m 244 421 q 189 458 222 458 q 104 367 136 458 q 78 215 78 294 q 100 82 78 143 q 133 156 114 111 q 125 213 125 183 q 160 333 125 282 q 231 392 189 375 q 244 421 238 408 m 219 31 q 144 119 172 58 q 111 54 128 81 q 172 8 136 8 q 219 31 199 8 z "},"¿":{"ha":550,"x_min":42,"x_max":486,"o":"m 414 1049 q 399 1020 414 1032 q 367 1008 383 1008 q 333 1020 349 1008 q 318 1049 318 1032 q 333 1078 318 1067 q 367 1090 347 1090 q 399 1078 385 1090 q 414 1049 414 1067 m 486 240 q 422 56 486 132 q 249 -25 354 -25 q 94 46 153 -25 q 42 210 42 111 q 132 450 42 325 q 301 653 217 551 q 392 851 392 767 q 367 922 392 890 q 342 951 342 953 q 358 964 342 964 q 406 926 385 964 q 422 863 422 893 q 338 650 422 769 q 179 440 258 546 q 94 189 94 310 q 131 61 94 114 q 244 0 171 0 q 393 85 336 0 q 443 256 443 160 q 389 367 443 367 q 347 322 361 367 q 336 253 336 290 q 365 151 336 203 q 354 144 364 144 q 317 192 333 144 q 304 257 304 231 q 324 343 304 304 q 392 389 350 389 q 467 336 442 389 q 486 240 486 296 z "},"¡":{"ha":240,"x_min":68,"x_max":176,"o":"m 176 1046 q 132 1004 176 1004 q 88 1046 88 1004 q 132 1088 88 1088 q 176 1046 176 1088 m 154 915 q 146 729 154 844 q 135 543 136 586 q 128 253 128 379 q 130 155 128 221 q 132 57 132 89 q 132 15 132 21 q 107 -10 128 -10 q 68 39 68 -10 q 83 210 68 24 q 114 901 92 329 q 135 936 115 936 q 154 915 154 936 z "},"«":{"ha":513,"x_min":85,"x_max":442,"o":"m 442 601 q 288 421 442 588 q 377 310 317 389 q 438 222 438 231 q 422 208 438 208 q 317 308 411 208 q 224 421 224 407 q 319 525 224 435 q 425 615 415 615 q 442 601 442 615 m 303 601 q 149 421 303 588 q 238 310 178 389 q 299 222 299 231 q 283 208 299 208 q 178 308 272 208 q 85 421 85 407 q 181 525 85 435 q 286 615 276 615 q 303 601 303 615 z "},"»":{"ha":569,"x_min":136,"x_max":504,"o":"m 504 401 q 408 297 504 388 q 301 207 313 207 q 286 221 286 207 q 439 401 286 231 q 350 513 410 435 q 290 600 290 592 q 306 614 290 614 q 410 515 317 614 q 504 401 504 415 m 354 401 q 258 297 354 388 q 151 207 163 207 q 136 221 136 207 q 289 401 136 231 q 200 513 260 435 q 140 600 140 592 q 156 614 140 614 q 260 515 167 614 q 354 401 354 415 z "},"…":{"ha":478,"x_min":69,"x_max":421,"o":"m 421 17 q 383 -25 421 -25 q 346 17 346 -25 q 383 60 346 60 q 421 17 421 60 m 282 17 q 244 -25 282 -25 q 207 17 207 -25 q 244 60 207 60 q 282 17 282 60 m 144 17 q 107 -25 144 -25 q 69 17 69 -25 q 107 60 69 60 q 144 17 144 60 z "}," ":{"ha":313,"x_min":0,"x_max":0,"o":""},"À":{"ha":872,"x_min":15,"x_max":976,"o":"m 976 -101 q 947 -122 976 -122 q 701 246 799 -122 q 594 253 653 253 q 525 246 557 253 q 204 -203 390 -203 q 61 -104 113 -203 q 15 125 15 -14 q 82 417 15 276 q 251 568 156 568 q 338 514 307 568 q 364 385 364 464 q 319 188 364 278 q 210 93 274 93 q 200 103 200 93 q 211 114 200 114 q 286 181 253 114 q 324 372 324 254 q 256 549 324 549 q 129 421 188 549 q 71 132 71 293 q 186 -171 71 -171 q 324 -69 250 -171 q 468 231 403 39 q 406 204 401 204 q 376 224 376 204 q 482 272 376 254 q 603 900 568 543 q 608 1017 608 947 q 608 1071 608 1024 q 607 1144 607 1118 q 616 1199 607 1175 q 638 1224 625 1224 q 658 1200 649 1224 q 667 1153 667 1176 q 656 1028 667 1113 q 646 890 646 944 q 672 583 646 764 q 733 265 697 401 q 808 243 763 260 q 872 207 872 219 q 860 197 872 197 q 815 211 844 197 q 769 231 776 229 q 742 239 756 235 q 965 -85 833 -85 q 976 -101 976 -85 m 694 274 q 624 725 636 510 q 533 278 586 464 q 600 281 565 281 q 694 274 647 281 m 685 1306 q 674 1294 685 1294 q 604 1359 663 1294 q 546 1440 546 1424 q 565 1463 546 1463 q 635 1391 585 1463 q 685 1306 685 1319 z "},"Ã":{"ha":872,"x_min":15,"x_max":976,"o":"m 976 -101 q 947 -122 976 -122 q 701 246 799 -122 q 594 253 653 253 q 525 246 557 253 q 204 -203 390 -203 q 61 -104 113 -203 q 15 125 15 -14 q 82 417 15 276 q 251 568 156 568 q 338 514 307 568 q 364 385 364 464 q 319 188 364 278 q 210 93 274 93 q 200 103 200 93 q 211 114 200 114 q 286 181 253 114 q 324 372 324 254 q 256 549 324 549 q 129 421 188 549 q 71 132 71 293 q 186 -171 71 -171 q 324 -69 250 -171 q 468 231 403 39 q 406 204 401 204 q 376 224 376 204 q 482 272 376 254 q 603 900 568 543 q 608 1017 608 947 q 608 1071 608 1024 q 607 1144 607 1118 q 616 1199 607 1175 q 638 1224 625 1224 q 658 1200 649 1224 q 667 1153 667 1176 q 656 1028 667 1113 q 646 890 646 944 q 672 583 646 764 q 733 265 697 401 q 808 243 763 260 q 872 207 872 219 q 860 197 872 197 q 815 211 844 197 q 769 231 776 229 q 742 239 756 235 q 965 -85 833 -85 q 976 -101 976 -85 m 694 274 q 624 725 636 510 q 533 278 586 464 q 600 281 565 281 q 694 274 647 281 m 750 1340 q 732 1294 750 1314 q 688 1275 714 1275 q 633 1295 668 1275 q 579 1315 599 1315 q 538 1297 553 1315 q 525 1278 531 1288 q 521 1290 521 1279 q 541 1336 521 1315 q 588 1357 561 1357 q 651 1338 614 1357 q 699 1319 688 1319 q 730 1335 715 1319 q 743 1351 744 1351 q 750 1340 750 1351 z "},"Õ":{"ha":581,"x_min":21,"x_max":568,"o":"m 568 493 q 501 22 568 222 q 313 -194 428 -194 q 90 13 171 -194 q 21 433 21 190 q 58 713 21 607 q 72 724 63 724 q 78 715 78 724 q 76 708 78 713 q 74 699 75 703 q 63 501 63 618 q 111 81 63 256 q 293 -137 174 -137 q 463 72 397 -137 q 524 522 524 263 q 471 910 524 757 q 310 1082 414 1082 q 199 993 243 1082 q 150 728 150 896 q 192 410 150 549 q 308 260 239 260 q 367 314 343 260 q 390 443 390 368 q 374 563 390 511 q 357 604 357 614 q 369 615 357 615 q 401 574 382 615 q 429 435 429 518 q 390 288 429 340 q 307 242 356 242 q 157 390 215 242 q 104 711 104 526 q 153 986 104 879 q 307 1108 207 1108 q 506 918 435 1108 q 568 493 568 750 m 428 1236 q 410 1189 428 1208 q 364 1169 392 1169 q 310 1190 344 1169 q 256 1210 275 1210 q 215 1192 231 1210 q 201 1172 208 1182 q 199 1185 199 1175 q 219 1231 199 1211 q 265 1251 239 1251 q 328 1233 292 1251 q 376 1214 365 1214 q 408 1231 393 1214 q 421 1247 422 1247 q 428 1236 428 1247 z "},"Œ":{"ha":975,"x_min":15,"x_max":965,"o":"m 965 36 q 904 -146 965 -76 q 725 -217 839 -217 q 579 -165 646 -217 q 485 -8 506 -107 q 307 -194 413 -194 q 85 13 165 -194 q 15 433 15 190 q 53 713 15 607 q 65 724 57 724 q 72 715 72 724 q 70 708 72 713 q 68 699 68 703 q 56 501 56 618 q 106 81 56 256 q 286 -137 168 -137 q 457 72 392 -137 q 517 522 517 263 q 517 571 517 546 q 499 707 499 632 q 501 757 499 732 q 303 1082 451 1082 q 193 993 236 1082 q 144 728 144 896 q 186 410 144 549 q 303 260 232 260 q 361 314 338 260 q 385 443 385 368 q 368 563 385 511 q 351 604 351 614 q 363 615 351 615 q 396 574 375 615 q 424 435 424 518 q 383 288 424 340 q 301 242 349 242 q 151 390 208 242 q 99 711 99 526 q 146 986 99 879 q 301 1108 201 1108 q 519 854 450 1108 q 635 1046 556 971 q 792 1121 714 1121 q 918 1049 874 1121 q 957 883 957 985 q 908 660 957 763 q 790 557 858 557 q 714 605 747 557 q 681 729 681 653 q 706 839 681 792 q 733 875 725 875 q 743 865 743 875 q 731 833 743 874 q 718 736 718 792 q 739 626 718 672 q 789 581 760 581 q 876 674 840 581 q 911 874 911 763 q 881 1032 911 971 q 783 1101 847 1101 q 629 996 701 1101 q 550 732 550 882 q 633 475 550 579 q 786 383 707 383 q 830 386 810 383 q 854 389 850 389 q 878 368 878 389 q 865 346 878 358 q 842 333 853 333 q 822 333 835 333 q 796 335 808 335 q 603 251 678 335 q 533 64 533 174 q 592 -117 533 -43 q 736 -192 650 -192 q 874 -125 822 -192 q 921 38 921 -61 q 893 161 921 108 q 854 206 871 206 q 846 215 846 206 q 860 226 846 226 q 925 168 889 226 q 965 36 965 104 m 700 351 q 638 392 661 374 q 563 472 593 426 q 546 244 561 356 q 700 351 615 328 z "},"œ":{"ha":517,"x_min":36,"x_max":582,"o":"m 582 183 q 530 61 582 124 q 418 -1 478 -1 q 292 78 325 -1 q 175 -12 249 -12 q 75 55 114 -12 q 36 235 36 122 q 78 410 36 338 q 181 482 121 482 q 278 414 238 482 q 324 249 319 346 q 388 289 350 278 q 347 343 367 308 q 314 465 314 403 q 334 524 314 503 q 385 546 354 546 q 450 511 422 546 q 474 458 474 482 q 460 443 474 443 q 446 474 458 443 q 401 504 433 504 q 358 442 358 504 q 384 341 358 392 q 442 290 410 290 q 463 274 463 290 q 432 258 463 258 q 345 217 378 258 q 313 126 313 176 q 397 35 313 35 q 504 85 456 35 q 558 181 547 129 q 574 201 564 201 q 582 183 582 201 m 285 232 q 260 388 285 322 q 189 458 232 458 q 104 367 136 458 q 78 215 78 294 q 99 85 78 144 q 172 8 125 8 q 258 78 228 8 q 285 232 285 139 z "},"–":{"ha":493,"x_min":57,"x_max":438,"o":"m 438 322 q 422 303 438 303 q 346 308 396 303 q 269 314 296 314 q 183 307 240 314 q 96 300 125 300 q 57 319 57 300 q 126 354 57 354 q 418 342 286 354 q 438 322 438 340 z "},"—":{"ha":774,"x_min":57,"x_max":710,"o":"m 710 322 q 683 303 710 303 q 553 308 639 303 q 422 314 467 314 q 274 307 372 314 q 125 300 175 300 q 57 319 57 300 q 176 354 57 354 q 678 342 450 354 q 710 322 710 340 z "},"“":{"ha":254,"x_min":32,"x_max":214,"o":"m 214 781 q 176 739 214 739 q 139 781 139 739 q 153 876 139 822 q 186 958 168 931 q 194 964 190 964 q 203 957 203 964 q 192 930 203 958 q 182 868 182 901 q 198 820 182 846 q 214 781 214 794 m 107 781 q 69 739 107 739 q 32 781 32 739 q 47 876 32 822 q 79 958 61 931 q 88 964 82 964 q 96 957 96 964 q 85 930 96 958 q 75 868 75 901 q 91 820 75 846 q 107 781 107 794 z "},"”":{"ha":274,"x_min":51,"x_max":235,"o":"m 235 922 q 220 826 235 881 q 188 744 206 772 q 178 739 183 739 q 171 746 171 739 q 181 773 171 744 q 190 835 190 801 q 174 883 190 857 q 158 921 158 908 q 196 964 158 964 q 235 922 235 964 m 126 922 q 113 826 126 881 q 81 744 99 772 q 71 739 76 739 q 63 746 63 739 q 73 773 63 744 q 83 835 83 801 q 67 883 83 857 q 51 921 51 908 q 89 964 51 964 q 126 922 126 964 z "},"‘":{"ha":149,"x_min":32,"x_max":107,"o":"m 107 781 q 69 739 107 739 q 32 781 32 739 q 47 876 32 822 q 79 958 61 931 q 88 964 82 964 q 96 957 96 964 q 85 930 96 958 q 75 868 75 901 q 91 820 75 846 q 107 781 107 794 z "},"’":{"ha":153,"x_min":51,"x_max":126,"o":"m 126 922 q 112 826 126 881 q 79 744 97 772 q 71 739 76 739 q 63 746 63 739 q 73 773 63 744 q 83 835 83 801 q 67 883 83 857 q 51 921 51 908 q 89 964 51 964 q 126 922 126 964 z "},"ÿ":{"ha":254,"x_min":11,"x_max":258,"o":"m 258 631 q 235 429 258 593 q 211 196 211 265 q 218 52 211 129 q 225 -71 225 -25 q 51 -342 225 -342 q 11 -318 11 -342 q 22 -293 11 -304 q 47 -282 33 -282 q 65 -289 56 -282 q 83 -296 75 -296 q 186 -176 164 -296 q 194 13 194 -132 q 186 132 194 110 q 165 67 182 103 q 115 14 142 14 q 68 56 88 14 q 43 211 43 110 l 43 235 q 74 438 43 438 q 90 350 90 438 q 81 261 90 322 q 72 189 72 200 q 119 78 72 78 q 171 158 153 78 q 189 342 189 231 q 199 592 189 478 q 236 739 213 739 q 258 631 258 739 m 247 851 q 211 817 247 817 q 175 851 175 817 q 211 888 175 888 q 247 851 247 888 m 122 851 q 88 817 122 817 q 51 851 51 817 q 88 888 51 888 q 122 851 122 888 z "},"Ÿ":{"ha":735,"x_min":13,"x_max":694,"o":"m 694 -35 q 619 -213 694 -137 q 431 -289 543 -289 q 297 -250 349 -289 q 239 -125 239 -206 q 254 -57 239 -94 q 275 -19 265 -28 q 289 -14 281 -14 q 300 -22 300 -14 q 300 -25 300 -24 q 268 -124 268 -67 q 319 -221 268 -183 q 438 -258 369 -258 q 638 -15 638 -258 q 615 317 638 90 q 453 97 569 97 q 342 311 342 97 q 361 581 342 390 q 381 856 381 771 q 261 1115 381 1115 q 126 1000 183 1115 q 65 669 65 874 q 106 410 65 514 q 190 315 143 315 q 253 374 226 315 q 282 560 282 440 q 263 693 282 631 q 217 778 244 756 q 211 789 211 782 q 221 801 211 801 q 231 799 225 801 q 298 702 274 769 q 322 557 322 635 q 279 360 322 433 q 190 294 243 294 q 71 394 124 294 q 13 668 13 504 q 89 1014 13 882 q 254 1135 157 1135 q 429 793 429 1135 q 413 517 429 700 q 396 269 396 333 q 458 121 396 121 q 560 226 515 121 q 601 426 600 324 q 601 465 601 446 q 591 721 601 557 q 581 963 581 885 q 611 1003 581 1003 q 636 943 636 1003 q 636 838 636 908 q 635 733 635 768 q 665 358 635 583 q 694 -35 694 132 m 601 1147 q 565 1111 601 1111 q 531 1147 531 1111 q 565 1183 531 1183 q 601 1147 601 1183 m 478 1147 q 442 1111 478 1111 q 407 1147 407 1111 q 442 1183 407 1183 q 478 1147 478 1183 z "},"‹":{"ha":378,"x_min":85,"x_max":303,"o":"m 303 601 q 149 421 303 588 q 238 310 178 389 q 299 222 299 231 q 283 208 299 208 q 178 308 272 208 q 85 421 85 407 q 181 525 85 435 q 286 615 276 615 q 303 601 303 615 z "},"›":{"ha":415,"x_min":136,"x_max":354,"o":"m 354 401 q 258 297 354 388 q 151 207 163 207 q 136 221 136 207 q 289 401 136 231 q 200 513 260 435 q 140 600 140 592 q 156 614 140 614 q 260 515 167 614 q 354 401 354 415 z "},"‡":{"ha":340,"x_min":29,"x_max":319,"o":"m 319 864 q 306 847 319 847 q 249 851 286 847 q 192 856 211 856 q 185 724 189 796 q 303 715 254 721 q 318 699 318 714 q 304 682 318 682 q 246 686 286 682 q 183 692 199 690 q 174 399 181 593 q 156 369 172 369 q 139 389 139 369 q 146 529 139 442 q 154 668 153 635 l 156 690 q 61 679 72 679 q 29 697 29 679 q 83 725 29 725 q 157 725 124 725 q 158 854 158 794 q 61 844 61 844 q 29 863 29 844 q 83 890 29 890 q 160 889 122 890 q 158 963 160 913 q 156 1036 156 1013 q 176 1089 156 1089 q 208 1050 208 1089 q 197 921 208 1068 l 194 889 q 303 881 251 886 q 319 864 319 879 z "},"·":{"ha":200,"x_min":69,"x_max":144,"o":"m 144 294 q 107 253 144 253 q 69 294 69 253 q 107 338 69 338 q 144 294 144 338 z "},"‚":{"ha":200,"x_min":71,"x_max":146,"o":"m 146 18 q 132 -78 146 -24 q 100 -160 118 -132 q 90 -165 96 -165 q 83 -158 83 -165 q 93 -131 83 -160 q 103 -69 103 -103 q 87 -22 103 -47 q 71 17 71 4 q 108 60 71 60 q 146 18 146 60 z "},"„":{"ha":282,"x_min":71,"x_max":254,"o":"m 254 18 q 240 -78 254 -24 q 207 -160 225 -132 q 199 -165 203 -165 q 190 -158 190 -165 q 201 -131 190 -160 q 211 -69 211 -103 q 195 -22 211 -47 q 179 17 179 4 q 217 60 179 60 q 254 18 254 60 m 146 18 q 132 -78 146 -24 q 100 -160 118 -132 q 90 -165 96 -165 q 83 -158 83 -165 q 93 -131 83 -160 q 103 -69 103 -103 q 87 -22 103 -47 q 71 17 71 4 q 108 60 71 60 q 146 18 146 60 z "},"‰":{"ha":1149,"x_min":56,"x_max":1100,"o":"m 1100 290 q 1055 71 1100 163 q 944 -21 1010 -21 q 834 71 879 -21 q 789 290 789 163 q 834 510 789 418 q 944 601 879 601 q 1055 510 1010 601 q 1100 290 1100 418 m 744 290 q 700 71 744 163 q 590 -21 656 -21 q 479 71 524 -21 q 435 290 435 163 q 479 510 435 418 q 590 601 524 601 q 700 510 656 601 q 744 290 744 418 m 633 1058 q 528 783 633 1024 q 394 479 461 631 l 332 322 q 183 -29 288 213 q 161 -53 174 -53 q 143 -33 143 -53 q 240 207 143 -18 q 358 478 299 343 q 486 800 403 585 q 526 924 497 835 q 365 801 451 822 l 365 800 q 321 581 365 672 q 211 489 276 489 q 100 581 144 489 q 56 800 56 672 q 100 1019 56 928 q 211 1111 144 1111 q 316 1030 272 1111 q 365 831 360 949 q 488 917 429 849 q 578 1050 521 957 q 611 1090 601 1090 q 633 1058 633 1090 m 1058 290 q 1024 492 1058 408 q 944 575 990 575 q 865 492 899 575 q 831 290 831 408 q 865 87 831 171 q 944 3 900 3 q 1024 87 989 3 q 1058 290 1058 171 m 324 824 q 265 1049 319 974 q 210 1015 233 1049 q 188 938 188 981 q 217 860 188 889 q 314 824 250 824 q 324 824 318 824 m 325 796 l 322 796 q 194 839 239 796 q 157 935 157 876 q 183 1020 157 982 q 253 1064 210 1058 q 211 1085 232 1085 q 131 1001 165 1085 q 97 800 97 918 q 131 597 97 681 q 211 513 165 513 q 290 596 256 513 q 325 796 324 679 m 704 290 q 669 492 704 408 q 590 575 635 575 q 510 492 544 575 q 476 290 476 408 q 510 87 476 171 q 590 3 544 3 q 669 87 635 3 q 704 290 704 171 z "},"Â":{"ha":872,"x_min":15,"x_max":976,"o":"m 976 -101 q 947 -122 976 -122 q 701 246 799 -122 q 594 253 653 253 q 525 246 557 253 q 204 -203 390 -203 q 61 -104 113 -203 q 15 125 15 -14 q 82 417 15 276 q 251 568 156 568 q 338 514 307 568 q 364 385 364 464 q 319 188 364 278 q 210 93 274 93 q 200 103 200 93 q 211 114 200 114 q 286 181 253 114 q 324 372 324 254 q 256 549 324 549 q 129 421 188 549 q 71 132 71 293 q 186 -171 71 -171 q 324 -69 250 -171 q 468 231 403 39 q 406 204 401 204 q 376 224 376 204 q 482 272 376 254 q 603 900 568 543 q 608 1017 608 947 q 608 1071 608 1024 q 607 1144 607 1118 q 616 1199 607 1175 q 638 1224 625 1224 q 658 1200 649 1224 q 667 1153 667 1176 q 656 1028 667 1113 q 646 890 646 944 q 672 583 646 764 q 733 265 697 401 q 808 243 763 260 q 872 207 872 219 q 860 197 872 197 q 815 211 844 197 q 769 231 776 229 q 742 239 756 235 q 965 -85 833 -85 q 976 -101 976 -85 m 694 274 q 624 725 636 510 q 533 278 586 464 q 600 281 565 281 q 694 274 647 281 m 767 1233 q 757 1222 767 1222 q 710 1261 749 1222 q 647 1333 672 1300 q 584 1261 622 1300 q 539 1222 546 1222 q 528 1233 528 1222 q 568 1304 528 1244 q 635 1386 611 1369 q 647 1390 642 1390 q 660 1386 654 1390 q 726 1304 683 1369 q 767 1233 767 1244 z "},"Ê":{"ha":517,"x_min":18,"x_max":507,"o":"m 507 36 q 444 -147 507 -76 q 267 -217 381 -217 q 100 -147 172 -217 q 18 64 18 -68 q 108 268 18 181 q 242 351 174 333 q 40 707 40 464 q 138 1004 40 878 q 333 1121 229 1121 q 460 1049 415 1121 q 499 883 499 985 q 449 660 499 763 q 332 557 400 557 q 256 605 289 557 q 222 729 222 653 q 247 839 222 792 q 275 875 265 875 q 285 865 285 875 q 272 833 285 874 q 260 736 260 792 q 281 626 260 672 q 331 581 301 581 q 418 674 382 581 q 451 874 451 763 q 422 1032 451 971 q 325 1101 389 1101 q 169 996 243 1101 q 92 732 92 882 q 175 475 92 579 q 326 383 249 383 q 371 386 350 383 q 396 389 392 389 q 419 368 419 389 q 407 346 419 358 q 382 333 394 333 q 364 333 376 333 q 338 335 350 335 q 144 251 219 335 q 75 64 75 174 q 133 -117 75 -43 q 278 -192 192 -192 q 413 -126 364 -192 q 461 38 461 -61 q 435 161 461 108 q 396 206 413 206 q 388 215 388 206 q 400 226 388 226 q 467 168 429 226 q 507 36 507 104 m 438 1167 q 428 1156 438 1156 q 381 1195 419 1156 q 318 1268 343 1235 q 255 1195 293 1235 q 210 1156 217 1156 q 199 1167 199 1156 q 240 1241 199 1179 q 306 1319 282 1303 q 318 1325 313 1325 q 331 1319 325 1325 q 396 1241 354 1303 q 438 1167 438 1179 z "},"Á":{"ha":872,"x_min":15,"x_max":976,"o":"m 976 -101 q 947 -122 976 -122 q 701 246 799 -122 q 594 253 653 253 q 525 246 557 253 q 204 -203 390 -203 q 61 -104 113 -203 q 15 125 15 -14 q 82 417 15 276 q 251 568 156 568 q 338 514 307 568 q 364 385 364 464 q 319 188 364 278 q 210 93 274 93 q 200 103 200 93 q 211 114 200 114 q 286 181 253 114 q 324 372 324 254 q 256 549 324 549 q 129 421 188 549 q 71 132 71 293 q 186 -171 71 -171 q 324 -69 250 -171 q 468 231 403 39 q 406 204 401 204 q 376 224 376 204 q 482 272 376 254 q 603 900 568 543 q 608 1017 608 947 q 608 1071 608 1024 q 607 1144 607 1118 q 616 1199 607 1175 q 638 1224 625 1224 q 658 1200 649 1224 q 667 1153 667 1176 q 656 1028 667 1113 q 646 890 646 944 q 672 583 646 764 q 733 265 697 401 q 808 243 763 260 q 872 207 872 219 q 860 197 872 197 q 815 211 844 197 q 769 231 776 229 q 742 239 756 235 q 965 -85 833 -85 q 976 -101 976 -85 m 694 274 q 624 725 636 510 q 533 278 586 464 q 600 281 565 281 q 694 274 647 281 m 740 1439 q 681 1358 740 1422 q 611 1293 622 1293 q 601 1304 601 1293 q 651 1390 601 1318 q 719 1461 701 1461 q 740 1439 740 1461 z "},"Ë":{"ha":517,"x_min":18,"x_max":507,"o":"m 507 36 q 444 -147 507 -76 q 267 -217 381 -217 q 100 -147 172 -217 q 18 64 18 -68 q 108 268 18 181 q 242 351 174 333 q 40 707 40 464 q 138 1004 40 878 q 333 1121 229 1121 q 460 1049 415 1121 q 499 883 499 985 q 449 660 499 763 q 332 557 400 557 q 256 605 289 557 q 222 729 222 653 q 247 839 222 792 q 275 875 265 875 q 285 865 285 875 q 272 833 285 874 q 260 736 260 792 q 281 626 260 672 q 331 581 301 581 q 418 674 382 581 q 451 874 451 763 q 422 1032 451 971 q 325 1101 389 1101 q 169 996 243 1101 q 92 732 92 882 q 175 475 92 579 q 326 383 249 383 q 371 386 350 383 q 396 389 392 389 q 419 368 419 389 q 407 346 419 358 q 382 333 394 333 q 364 333 376 333 q 338 335 350 335 q 144 251 219 335 q 75 64 75 174 q 133 -117 75 -43 q 278 -192 192 -192 q 413 -126 364 -192 q 461 38 461 -61 q 435 161 461 108 q 396 206 413 206 q 388 215 388 206 q 400 226 388 226 q 467 168 429 226 q 507 36 507 104 m 413 1226 q 378 1190 413 1190 q 342 1226 342 1190 q 378 1263 342 1263 q 413 1226 413 1263 m 289 1226 q 253 1190 289 1190 q 218 1226 218 1190 q 253 1263 218 1263 q 289 1226 289 1263 z "},"È":{"ha":517,"x_min":18,"x_max":507,"o":"m 507 36 q 444 -147 507 -76 q 267 -217 381 -217 q 100 -147 172 -217 q 18 64 18 -68 q 108 268 18 181 q 242 351 174 333 q 40 707 40 464 q 138 1004 40 878 q 333 1121 229 1121 q 460 1049 415 1121 q 499 883 499 985 q 449 660 499 763 q 332 557 400 557 q 256 605 289 557 q 222 729 222 653 q 247 839 222 792 q 275 875 265 875 q 285 865 285 875 q 272 833 285 874 q 260 736 260 792 q 281 626 260 672 q 331 581 301 581 q 418 674 382 581 q 451 874 451 763 q 422 1032 451 971 q 325 1101 389 1101 q 169 996 243 1101 q 92 732 92 882 q 175 475 92 579 q 326 383 249 383 q 371 386 350 383 q 396 389 392 389 q 419 368 419 389 q 407 346 419 358 q 382 333 394 333 q 364 333 376 333 q 338 335 350 335 q 144 251 219 335 q 75 64 75 174 q 133 -117 75 -43 q 278 -192 192 -192 q 413 -126 364 -192 q 461 38 461 -61 q 435 161 461 108 q 396 206 413 206 q 388 215 388 206 q 400 226 388 226 q 467 168 429 226 q 507 36 507 104 m 342 1201 q 331 1190 342 1190 q 261 1256 319 1190 q 203 1338 203 1321 q 222 1360 203 1360 q 292 1288 242 1360 q 342 1201 342 1215 z "},"Í":{"ha":493,"x_min":32,"x_max":485,"o":"m 485 600 q 410 117 485 315 q 165 -114 322 -114 q 74 -81 110 -114 q 39 -11 39 -47 q 65 10 39 10 q 85 -8 85 10 q 106 -65 85 -42 q 175 -94 131 -94 q 368 133 300 -94 q 428 608 428 329 q 386 953 428 819 q 257 1101 340 1101 q 133 990 179 1101 q 90 732 90 888 q 132 510 90 599 q 217 429 169 429 q 278 479 253 429 q 307 638 307 536 q 289 753 307 700 q 243 825 271 806 q 238 835 238 829 q 247 844 238 844 q 257 842 251 844 q 323 760 299 818 q 347 636 347 703 q 306 468 347 531 q 215 413 268 413 q 93 497 149 413 q 32 731 32 592 q 95 1010 32 899 q 253 1121 158 1121 q 428 963 364 1121 q 485 600 485 819 m 375 1333 q 317 1252 375 1317 q 246 1188 258 1188 q 236 1199 236 1188 q 286 1284 236 1213 q 354 1356 336 1356 q 375 1333 375 1356 z "},"Î":{"ha":493,"x_min":32,"x_max":485,"o":"m 485 600 q 410 117 485 315 q 165 -114 322 -114 q 74 -81 110 -114 q 39 -11 39 -47 q 65 10 39 10 q 85 -8 85 10 q 106 -65 85 -42 q 175 -94 131 -94 q 368 133 300 -94 q 428 608 428 329 q 386 953 428 819 q 257 1101 340 1101 q 133 990 179 1101 q 90 732 90 888 q 132 510 90 599 q 217 429 169 429 q 278 479 253 429 q 307 638 307 536 q 289 753 307 700 q 243 825 271 806 q 238 835 238 829 q 247 844 238 844 q 257 842 251 844 q 323 760 299 818 q 347 636 347 703 q 306 468 347 531 q 215 413 268 413 q 93 497 149 413 q 32 731 32 592 q 95 1010 32 899 q 253 1121 158 1121 q 428 963 364 1121 q 485 600 485 819 m 372 1174 q 363 1163 372 1163 q 316 1202 354 1163 q 253 1275 278 1242 q 190 1202 228 1242 q 143 1163 151 1163 q 133 1174 133 1163 q 175 1248 133 1186 q 240 1326 217 1310 q 253 1332 247 1332 q 265 1326 260 1332 q 331 1248 289 1310 q 372 1174 372 1186 z "},"Ï":{"ha":493,"x_min":32,"x_max":485,"o":"m 485 600 q 410 117 485 315 q 165 -114 322 -114 q 74 -81 110 -114 q 39 -11 39 -47 q 65 10 39 10 q 85 -8 85 10 q 106 -65 85 -42 q 175 -94 131 -94 q 368 133 300 -94 q 428 608 428 329 q 386 953 428 819 q 257 1101 340 1101 q 133 990 179 1101 q 90 732 90 888 q 132 510 90 599 q 217 429 169 429 q 278 479 253 429 q 307 638 307 536 q 289 753 307 700 q 243 825 271 806 q 238 835 238 829 q 247 844 238 844 q 257 842 251 844 q 323 760 299 818 q 347 636 347 703 q 306 468 347 531 q 215 413 268 413 q 93 497 149 413 q 32 731 32 592 q 95 1010 32 899 q 253 1121 158 1121 q 428 963 364 1121 q 485 600 485 819 m 351 1239 q 315 1203 351 1203 q 279 1239 279 1203 q 315 1275 279 1275 q 351 1239 351 1275 m 226 1239 q 192 1203 226 1203 q 156 1239 156 1203 q 192 1275 156 1275 q 226 1239 226 1275 z "},"Ì":{"ha":493,"x_min":32,"x_max":485,"o":"m 485 600 q 410 117 485 315 q 165 -114 322 -114 q 74 -81 110 -114 q 39 -11 39 -47 q 65 10 39 10 q 85 -8 85 10 q 106 -65 85 -42 q 175 -94 131 -94 q 368 133 300 -94 q 428 608 428 329 q 386 953 428 819 q 257 1101 340 1101 q 133 990 179 1101 q 90 732 90 888 q 132 510 90 599 q 217 429 169 429 q 278 479 253 429 q 307 638 307 536 q 289 753 307 700 q 243 825 271 806 q 238 835 238 829 q 247 844 238 844 q 257 842 251 844 q 323 760 299 818 q 347 636 347 703 q 306 468 347 531 q 215 413 268 413 q 93 497 149 413 q 32 731 32 592 q 95 1010 32 899 q 253 1121 158 1121 q 428 963 364 1121 q 485 600 485 819 m 282 1186 q 271 1175 282 1175 q 201 1240 260 1175 q 143 1321 143 1304 q 163 1343 143 1343 q 232 1272 182 1343 q 282 1186 282 1200 z "},"Ó":{"ha":581,"x_min":21,"x_max":568,"o":"m 568 493 q 501 22 568 222 q 313 -194 428 -194 q 90 13 171 -194 q 21 433 21 190 q 58 713 21 607 q 72 724 63 724 q 78 715 78 724 q 76 708 78 713 q 74 699 75 703 q 63 501 63 618 q 111 81 63 256 q 293 -137 174 -137 q 463 72 397 -137 q 524 522 524 263 q 471 910 524 757 q 310 1082 414 1082 q 199 993 243 1082 q 150 728 150 896 q 192 410 150 549 q 308 260 239 260 q 367 314 343 260 q 390 443 390 368 q 374 563 390 511 q 357 604 357 614 q 369 615 357 615 q 401 574 382 615 q 429 435 429 518 q 390 288 429 340 q 307 242 356 242 q 157 390 215 242 q 104 711 104 526 q 153 986 104 879 q 307 1108 207 1108 q 506 918 435 1108 q 568 493 568 750 m 429 1326 q 371 1245 429 1310 q 300 1181 313 1181 q 290 1192 290 1181 q 340 1277 290 1206 q 408 1349 390 1349 q 429 1326 429 1349 z "},"Ô":{"ha":581,"x_min":21,"x_max":568,"o":"m 568 493 q 501 22 568 222 q 313 -194 428 -194 q 90 13 171 -194 q 21 433 21 190 q 58 713 21 607 q 72 724 63 724 q 78 715 78 724 q 76 708 78 713 q 74 699 75 703 q 63 501 63 618 q 111 81 63 256 q 293 -137 174 -137 q 463 72 397 -137 q 524 522 524 263 q 471 910 524 757 q 310 1082 414 1082 q 199 993 243 1082 q 150 728 150 896 q 192 410 150 549 q 308 260 239 260 q 367 314 343 260 q 390 443 390 368 q 374 563 390 511 q 357 604 357 614 q 369 615 357 615 q 401 574 382 615 q 429 435 429 518 q 390 288 429 340 q 307 242 356 242 q 157 390 215 242 q 104 711 104 526 q 153 986 104 879 q 307 1108 207 1108 q 506 918 435 1108 q 568 493 568 750 m 433 1151 q 424 1140 433 1140 q 377 1180 415 1140 q 314 1253 339 1219 q 251 1180 289 1219 q 204 1140 213 1140 q 194 1151 194 1140 q 236 1225 194 1163 q 301 1304 278 1288 q 314 1308 308 1308 q 326 1304 321 1308 q 392 1225 350 1288 q 433 1151 433 1163 z "},"Ò":{"ha":581,"x_min":21,"x_max":568,"o":"m 568 493 q 501 22 568 222 q 313 -194 428 -194 q 90 13 171 -194 q 21 433 21 190 q 58 713 21 607 q 72 724 63 724 q 78 715 78 724 q 76 708 78 713 q 74 699 75 703 q 63 501 63 618 q 111 81 63 256 q 293 -137 174 -137 q 463 72 397 -137 q 524 522 524 263 q 471 910 524 757 q 310 1082 414 1082 q 199 993 243 1082 q 150 728 150 896 q 192 410 150 549 q 308 260 239 260 q 367 314 343 260 q 390 443 390 368 q 374 563 390 511 q 357 604 357 614 q 369 615 357 615 q 401 574 382 615 q 429 435 429 518 q 390 288 429 340 q 307 242 356 242 q 157 390 215 242 q 104 711 104 526 q 153 986 104 879 q 307 1108 207 1108 q 506 918 435 1108 q 568 493 568 750 m 324 1211 q 314 1200 324 1200 q 244 1265 303 1200 q 185 1346 185 1329 q 206 1368 185 1368 q 274 1297 224 1368 q 324 1211 324 1225 z "},"Ú":{"ha":706,"x_min":15,"x_max":832,"o":"m 832 -74 q 808 -146 832 -110 q 728 -192 778 -192 q 604 47 628 -192 q 456 -212 564 -212 q 350 -111 385 -212 q 322 85 322 -32 q 348 440 322 238 q 374 822 374 642 q 335 1036 374 958 q 246 1107 300 1107 q 125 997 176 1107 q 67 669 67 874 q 108 410 67 514 q 193 315 146 315 q 254 374 229 315 q 283 560 283 440 q 265 693 283 631 q 219 778 247 756 q 214 789 214 782 q 224 801 214 801 q 233 799 228 801 q 299 702 275 769 q 324 557 324 635 q 282 360 324 433 q 192 294 244 294 q 74 394 126 294 q 15 668 15 504 q 88 1014 15 883 q 242 1129 153 1129 q 364 1046 315 1129 q 418 793 418 953 q 394 425 418 647 q 371 51 371 203 q 392 -96 371 -28 q 461 -181 417 -181 q 599 218 557 -181 q 590 651 599 325 q 583 1063 583 940 q 614 1115 583 1115 q 639 1036 639 1115 q 636 764 639 861 q 636 279 636 764 q 664 -53 636 64 q 728 -158 688 -158 q 783 -133 761 -158 q 810 -87 799 -117 q 819 -62 819 -62 q 832 -74 832 -62 m 597 1319 q 539 1238 597 1303 q 469 1174 481 1174 q 458 1185 458 1174 q 508 1270 458 1199 q 576 1342 558 1342 q 597 1319 597 1342 z "},"Û":{"ha":706,"x_min":15,"x_max":832,"o":"m 832 -74 q 808 -146 832 -110 q 728 -192 778 -192 q 604 47 628 -192 q 456 -212 564 -212 q 350 -111 385 -212 q 322 85 322 -32 q 348 440 322 238 q 374 822 374 642 q 335 1036 374 958 q 246 1107 300 1107 q 125 997 176 1107 q 67 669 67 874 q 108 410 67 514 q 193 315 146 315 q 254 374 229 315 q 283 560 283 440 q 265 693 283 631 q 219 778 247 756 q 214 789 214 782 q 224 801 214 801 q 233 799 228 801 q 299 702 275 769 q 324 557 324 635 q 282 360 324 433 q 192 294 244 294 q 74 394 126 294 q 15 668 15 504 q 88 1014 15 883 q 242 1129 153 1129 q 364 1046 315 1129 q 418 793 418 953 q 394 425 418 647 q 371 51 371 203 q 392 -96 371 -28 q 461 -181 417 -181 q 599 218 557 -181 q 590 651 599 325 q 583 1063 583 940 q 614 1115 583 1115 q 639 1036 639 1115 q 636 764 639 861 q 636 279 636 764 q 664 -53 636 64 q 728 -158 688 -158 q 783 -133 761 -158 q 810 -87 799 -117 q 819 -62 819 -62 q 832 -74 832 -62 m 575 1199 q 565 1188 575 1188 q 519 1226 557 1188 q 456 1299 481 1265 q 392 1226 431 1265 q 346 1188 354 1188 q 336 1199 336 1188 q 378 1272 336 1210 q 443 1351 419 1335 q 456 1356 450 1356 q 468 1351 463 1356 q 533 1272 492 1335 q 575 1199 575 1210 z "},"Ù":{"ha":706,"x_min":15,"x_max":832,"o":"m 832 -74 q 808 -146 832 -110 q 728 -192 778 -192 q 604 47 628 -192 q 456 -212 564 -212 q 350 -111 385 -212 q 322 85 322 -32 q 348 440 322 238 q 374 822 374 642 q 335 1036 374 958 q 246 1107 300 1107 q 125 997 176 1107 q 67 669 67 874 q 108 410 67 514 q 193 315 146 315 q 254 374 229 315 q 283 560 283 440 q 265 693 283 631 q 219 778 247 756 q 214 789 214 782 q 224 801 214 801 q 233 799 228 801 q 299 702 275 769 q 324 557 324 635 q 282 360 324 433 q 192 294 244 294 q 74 394 126 294 q 15 668 15 504 q 88 1014 15 883 q 242 1129 153 1129 q 364 1046 315 1129 q 418 793 418 953 q 394 425 418 647 q 371 51 371 203 q 392 -96 371 -28 q 461 -181 417 -181 q 599 218 557 -181 q 590 651 599 325 q 583 1063 583 940 q 614 1115 583 1115 q 639 1036 639 1115 q 636 764 639 861 q 636 279 636 764 q 664 -53 636 64 q 728 -158 688 -158 q 783 -133 761 -158 q 810 -87 799 -117 q 819 -62 819 -62 q 832 -74 832 -62 m 496 1158 q 485 1147 496 1147 q 415 1212 474 1147 q 357 1293 357 1276 q 376 1315 357 1315 q 446 1244 396 1315 q 496 1158 496 1172 z "},"ˆ":{"ha":286,"x_min":25,"x_max":264,"o":"m 264 938 q 253 926 264 926 q 208 965 246 926 q 144 1039 169 1004 q 81 965 119 1004 q 35 926 43 926 q 25 938 25 926 q 67 1011 25 949 q 132 1090 108 1074 q 144 1094 139 1094 q 156 1090 151 1094 q 222 1011 181 1074 q 264 938 264 949 z "},"˜":{"ha":286,"x_min":28,"x_max":257,"o":"m 257 1053 q 239 1007 257 1026 q 194 988 221 988 q 140 1008 175 988 q 86 1028 106 1028 q 46 1010 60 1028 q 32 990 39 1000 q 28 1003 28 993 q 49 1049 28 1029 q 94 1069 69 1069 q 158 1051 121 1069 q 206 1032 194 1032 q 237 1049 222 1032 q 251 1065 251 1065 q 257 1053 257 1065 z "},"¯":{"ha":311,"x_min":33,"x_max":276,"o":"m 276 1058 q 256 1038 276 1038 l 54 1038 q 33 1060 33 1038 q 54 1081 33 1081 l 256 1081 q 276 1058 276 1081 z "},"¸":{"ha":265,"x_min":46,"x_max":217,"o":"m 217 -118 q 192 -181 217 -153 q 126 -208 167 -208 q 69 -187 93 -208 q 46 -129 46 -167 q 57 -114 46 -114 q 63 -128 63 -114 q 121 -168 63 -168 q 164 -152 147 -168 q 181 -115 181 -136 q 144 -81 181 -81 q 124 -87 136 -81 q 107 -94 113 -94 q 96 -86 96 -94 q 114 -7 96 -96 q 126 -1 115 -1 q 139 -7 139 -1 q 132 -35 139 -8 q 125 -64 125 -61 q 151 -56 146 -56 q 217 -118 217 -56 z "},"Š":{"ha":564,"x_min":8,"x_max":546,"o":"m 546 68 q 461 -128 546 -56 q 275 -192 385 -192 q 86 -133 160 -192 q 8 33 8 -71 q 54 163 8 106 q 133 214 94 214 q 150 203 150 214 q 139 192 150 192 q 90 153 118 192 q 57 35 57 104 q 117 -110 57 -53 q 278 -167 176 -167 q 432 -106 368 -167 q 496 35 496 -46 q 382 251 496 157 q 169 417 275 335 q 54 707 54 533 q 138 983 54 851 q 342 1124 226 1124 q 525 869 525 1124 q 464 618 525 735 q 297 489 396 489 q 214 525 250 489 q 174 624 174 564 q 201 711 174 676 q 235 738 222 738 q 246 731 246 738 q 229 704 246 736 q 213 629 213 672 q 236 548 213 582 q 294 514 260 514 q 419 617 365 514 q 476 879 476 725 q 347 1100 476 1100 q 182 985 253 1100 q 107 696 107 865 q 221 447 107 557 q 432 281 326 364 q 546 68 546 182 m 458 1338 q 417 1264 458 1326 q 351 1185 375 1201 q 339 1181 344 1181 q 328 1185 332 1181 q 261 1264 303 1201 q 219 1338 219 1326 q 231 1349 219 1349 q 276 1309 238 1349 q 339 1236 314 1269 q 402 1309 364 1269 q 449 1349 440 1349 q 458 1338 458 1349 z "},"š":{"ha":288,"x_min":29,"x_max":269,"o":"m 268 54 q 243 -29 268 1 q 182 -60 218 -60 q 87 0 132 -60 q 42 131 42 60 q 64 221 42 221 q 72 211 72 221 q 69 194 72 214 q 65 140 65 174 q 101 22 65 76 q 181 -33 138 -33 q 225 26 225 -33 q 140 223 225 71 q 56 433 56 375 q 79 509 56 482 q 139 536 103 536 q 219 486 186 536 q 251 392 251 442 q 229 356 251 356 q 200 397 200 356 q 138 513 200 513 q 90 450 90 513 q 179 265 90 403 q 268 54 268 126 m 269 756 q 229 683 269 743 q 161 603 186 619 q 150 597 154 597 q 138 603 143 597 q 71 683 113 619 q 29 756 29 743 q 40 767 29 767 q 87 727 49 767 q 150 654 125 688 q 213 727 174 688 q 258 767 251 767 q 269 756 269 767 z "},"Ð":{"ha":719,"x_min":14,"x_max":703,"o":"m 703 503 q 619 28 703 231 q 392 -192 531 -192 q 349 -186 369 -192 l 349 -206 q 347 -242 349 -236 q 329 -256 344 -256 q 311 -239 314 -256 q 310 -192 308 -231 l 310 -172 q 240 -100 265 -149 q 221 -17 221 -60 q 231 -1 221 -1 q 238 -15 238 -1 q 310 -133 238 -86 q 321 310 321 253 l 321 339 q 217 332 242 332 q 178 347 178 332 q 246 374 178 374 q 321 374 283 374 q 311 800 321 596 q 303 964 307 882 l 303 993 q 326 1049 303 1049 q 367 969 367 1049 q 361 797 367 983 q 354 374 354 590 q 528 364 447 371 q 547 350 547 363 q 532 335 547 335 q 458 339 507 335 q 385 343 410 343 q 354 342 371 343 l 354 157 q 349 -151 354 135 q 394 -157 371 -157 q 576 61 503 -157 q 644 531 644 265 q 561 969 644 818 q 375 1101 489 1101 q 161 969 256 1101 q 63 631 63 829 q 88 493 63 547 q 160 439 114 439 q 218 493 194 439 q 242 622 242 547 q 225 742 242 690 q 208 783 208 793 q 219 796 208 796 q 253 754 232 796 q 281 614 281 697 q 240 467 281 521 q 158 421 206 421 q 51 489 90 421 q 14 653 14 553 q 125 992 14 854 q 367 1122 231 1122 q 597 979 507 1122 q 703 503 703 813 z "},"ð":{"ha":353,"x_min":36,"x_max":421,"o":"m 421 190 q 376 76 421 132 q 272 15 328 15 q 250 18 261 15 q 175 -12 218 -12 q 75 55 114 -12 q 36 235 36 122 q 78 410 36 338 q 181 482 121 482 q 278 415 236 482 q 199 701 261 626 q 147 649 182 683 q 132 640 138 640 q 117 660 117 640 q 179 722 117 671 q 126 740 154 740 q 109 734 118 740 q 90 728 100 728 q 65 738 76 728 q 54 764 54 749 q 96 788 54 788 q 200 739 151 788 q 272 786 261 786 q 288 771 286 786 l 283 765 q 217 719 261 750 q 324 257 324 585 q 278 53 324 128 q 397 189 357 54 q 411 203 403 203 q 421 190 421 203 m 285 251 q 264 381 285 321 q 192 340 224 374 q 149 219 149 294 q 174 120 149 167 q 240 58 200 74 q 285 251 285 136 m 257 400 q 189 458 231 458 q 104 367 136 458 q 78 215 78 294 q 99 85 78 144 q 172 8 125 8 q 219 31 199 8 q 152 104 179 54 q 125 213 125 154 q 171 347 125 294 q 257 400 208 393 z "},"Ý":{"ha":735,"x_min":13,"x_max":694,"o":"m 694 -35 q 619 -213 694 -137 q 431 -289 543 -289 q 297 -250 349 -289 q 239 -125 239 -206 q 254 -57 239 -94 q 275 -19 265 -28 q 289 -14 281 -14 q 300 -22 300 -14 q 300 -25 300 -24 q 268 -124 268 -67 q 319 -221 268 -183 q 438 -258 369 -258 q 638 -15 638 -258 q 615 317 638 90 q 453 97 569 97 q 342 311 342 97 q 361 581 342 390 q 381 856 381 771 q 261 1115 381 1115 q 126 1000 183 1115 q 65 669 65 874 q 106 410 65 514 q 190 315 143 315 q 253 374 226 315 q 282 560 282 440 q 263 693 282 631 q 217 778 244 756 q 211 789 211 782 q 221 801 211 801 q 231 799 225 801 q 298 702 274 769 q 322 557 322 635 q 279 360 322 433 q 190 294 243 294 q 71 394 124 294 q 13 668 13 504 q 89 1014 13 882 q 254 1135 157 1135 q 429 793 429 1135 q 413 517 429 700 q 396 269 396 333 q 458 121 396 121 q 560 226 515 121 q 601 426 600 324 q 601 465 601 446 q 591 721 601 557 q 581 963 581 885 q 611 1003 581 1003 q 636 943 636 1003 q 636 838 636 908 q 635 733 635 768 q 665 358 635 583 q 694 -35 694 132 m 621 1257 q 563 1176 621 1240 q 492 1111 504 1111 q 482 1122 482 1111 q 532 1208 482 1136 q 600 1279 582 1279 q 621 1257 621 1279 z "},"ý":{"ha":254,"x_min":11,"x_max":261,"o":"m 258 631 q 235 429 258 593 q 211 196 211 265 q 218 52 211 129 q 225 -71 225 -25 q 51 -342 225 -342 q 11 -318 11 -342 q 22 -293 11 -304 q 47 -282 33 -282 q 65 -289 56 -282 q 83 -296 75 -296 q 186 -176 164 -296 q 194 13 194 -132 q 186 132 194 110 q 165 67 182 103 q 115 14 142 14 q 68 56 88 14 q 43 211 43 110 l 43 235 q 74 438 43 438 q 90 350 90 438 q 81 261 90 322 q 72 189 72 200 q 119 78 72 78 q 171 158 153 78 q 189 342 189 231 q 199 592 189 478 q 236 739 213 739 q 258 631 258 739 m 261 867 q 203 785 261 850 q 133 721 144 721 q 122 732 122 721 q 172 817 122 746 q 242 889 222 889 q 261 867 261 889 z "},"Þ":{"ha":792,"x_min":21,"x_max":774,"o":"m 774 460 q 689 153 774 286 q 465 11 599 11 q 394 25 426 11 q 297 -201 372 -201 q 265 -192 281 -201 q 250 -174 250 -182 q 271 -156 250 -156 q 283 -165 278 -156 q 292 -174 288 -174 q 351 53 344 -174 q 294 185 294 106 q 304 201 294 201 q 311 188 311 201 q 353 96 311 139 q 353 156 353 124 q 350 406 353 221 q 347 667 347 592 q 351 840 347 767 q 153 692 231 806 q 67 379 67 564 q 92 244 67 297 q 164 192 118 192 q 222 246 199 192 q 246 375 246 300 q 229 494 246 443 q 213 536 213 546 q 224 549 213 549 q 257 507 236 549 q 285 367 285 450 q 244 219 285 274 q 161 174 210 174 q 57 240 94 174 q 21 401 21 303 q 122 722 21 594 q 353 865 213 838 q 450 1131 368 1131 q 464 1117 464 1131 q 442 1103 464 1103 q 400 872 403 1103 q 425 872 413 872 q 667 771 569 872 q 774 460 774 658 m 719 482 q 631 761 719 660 q 432 851 551 851 q 400 850 415 851 l 400 826 q 403 578 400 750 q 406 313 406 389 q 397 63 406 161 q 468 46 431 46 q 647 185 572 46 q 719 482 719 315 z "},"þ":{"ha":317,"x_min":38,"x_max":392,"o":"m 389 207 q 360 111 375 140 q 257 47 326 47 q 185 67 218 47 q 139 54 163 54 q 72 97 100 54 l 72 60 q 74 -149 72 -67 q 76 -254 76 -237 q 57 -286 76 -286 q 38 -256 38 -286 q 43 -154 38 -247 q 46 64 47 -68 l 46 468 q 46 653 46 472 q 46 838 46 833 q 68 876 46 876 q 90 854 90 876 q 88 822 90 867 q 78 464 83 646 q 169 529 118 529 q 249 469 218 529 q 281 306 281 408 q 207 85 281 156 q 257 72 232 72 q 361 186 335 72 q 376 221 368 221 q 389 207 392 221 m 240 296 q 217 427 240 372 q 154 482 193 482 q 103 447 125 482 q 81 358 81 413 q 183 100 81 182 q 240 296 240 161 m 161 83 q 75 226 103 132 q 74 149 74 188 q 144 81 90 81 q 161 83 153 81 z "},"€":{"ha":782,"x_min":49,"x_max":726,"o":"m 726 444 q 689 254 726 361 q 483 69 624 69 q 322 154 389 69 q 229 431 247 250 q 92 418 100 418 q 49 439 49 418 q 125 474 49 474 q 226 472 176 474 q 225 540 225 504 q 225 582 225 561 q 174 579 196 579 q 131 600 131 579 q 207 635 131 635 l 228 635 q 339 997 244 868 q 518 1108 418 1108 q 619 1064 579 1108 q 660 944 660 1019 q 628 831 660 878 q 535 779 593 779 q 514 793 514 779 q 536 807 514 807 q 607 957 607 807 q 586 1049 607 1011 q 526 1086 565 1086 q 381 969 453 1086 q 281 633 299 836 q 526 621 414 632 q 547 603 547 619 q 531 582 547 582 q 447 588 503 582 q 364 593 392 593 q 278 588 332 593 q 276 532 276 560 q 278 471 276 500 q 444 461 367 468 q 465 442 465 458 q 449 421 465 421 q 366 427 421 421 q 282 433 311 433 l 281 433 q 481 103 304 103 q 703 426 619 103 q 721 458 711 458 q 726 444 726 458 z "},"Ł":{"ha":472,"x_min":15,"x_max":544,"o":"m 544 -94 q 543 -101 544 -97 q 503 -161 533 -131 q 399 -206 458 -206 q 278 -140 342 -206 q 178 -22 228 -81 q 90 -183 160 -183 q 38 -151 60 -183 q 15 -68 15 -119 q 40 20 15 -14 q 100 54 65 54 q 136 44 117 54 q 118 258 133 118 q 56 194 65 196 q 49 206 49 197 q 113 315 49 249 q 103 493 103 408 q 167 963 103 790 q 300 1111 221 1111 q 406 1013 363 1111 q 451 726 451 904 q 413 508 451 588 q 328 440 378 440 q 254 492 285 440 q 224 635 224 544 q 251 774 224 718 q 285 815 272 815 q 296 804 296 815 q 279 763 296 814 q 263 643 263 711 q 281 508 263 558 q 325 458 300 458 q 376 519 354 458 q 400 710 400 589 q 368 993 400 888 q 297 1089 339 1089 q 206 946 244 1089 q 161 522 161 785 q 167 379 161 456 q 249 460 236 460 q 254 449 254 460 q 239 408 254 424 q 169 321 236 404 q 183 100 183 131 q 181 13 183 53 q 290 -92 236 -40 q 422 -151 361 -151 q 489 -132 458 -151 q 528 -93 519 -112 q 538 -86 531 -86 q 544 -94 544 -86 m 138 -17 q 138 17 138 0 q 103 29 118 29 q 56 -71 56 29 q 68 -133 56 -107 q 96 -158 81 -158 q 138 -17 138 -158 z "},"ł":{"ha":196,"x_min":-43,"x_max":282,"o":"m 282 951 q 267 911 282 926 q 197 821 258 901 q 71 314 157 483 q 103 128 78 194 q 163 63 129 63 q 219 125 190 63 q 246 214 246 182 q 258 229 246 229 q 268 218 268 229 q 231 93 268 175 q 149 0 189 0 q 68 86 103 0 q 28 357 28 186 q 42 618 28 478 q -37 529 -28 529 q -43 540 -43 532 q 51 694 -43 572 q 111 1003 75 876 q 179 1135 149 1135 q 213 1017 213 1135 q 204 885 213 967 q 275 963 264 963 q 282 951 282 963 m 182 1036 q 172 1076 182 1075 q 136 985 160 1078 q 93 746 111 886 q 139 801 124 785 q 169 840 144 806 q 182 1036 182 950 m 161 772 q 83 671 115 711 q 67 418 67 521 q 68 368 67 393 q 161 772 125 506 z "},"Ž":{"ha":493,"x_min":26,"x_max":508,"o":"m 508 99 q 503 92 508 92 q 496 94 499 92 q 433 125 468 118 q 439 65 439 97 q 354 -169 439 -67 q 139 -278 265 -278 q 57 -244 88 -278 q 26 -162 26 -211 q 143 44 26 -51 q 371 147 251 135 q 300 264 351 218 q 150 221 233 221 q 87 238 114 221 q 60 275 60 256 q 92 319 60 303 q 172 335 124 335 q 296 306 236 335 q 390 494 357 372 q 422 735 422 607 q 379 990 422 888 q 256 1101 333 1101 q 132 990 178 1101 q 90 732 90 888 q 132 510 90 599 q 217 429 169 429 q 278 479 253 429 q 307 638 307 536 q 289 753 307 700 q 242 825 271 806 q 238 835 238 829 q 247 844 238 844 q 256 842 251 844 q 323 760 299 818 q 347 636 347 703 q 306 468 347 531 q 215 413 268 413 q 93 497 149 413 q 32 731 32 592 q 94 1010 32 899 q 251 1121 157 1121 q 419 990 356 1121 q 479 700 479 871 q 443 467 479 574 q 329 286 404 350 q 429 146 406 235 q 475 129 449 143 q 508 99 508 114 m 272 283 q 171 315 224 315 q 104 272 104 315 q 156 240 104 240 q 272 283 221 240 m 382 63 q 376 128 382 97 q 170 19 269 117 q 71 -174 71 -79 q 94 -235 71 -211 q 149 -258 118 -258 q 318 -156 250 -258 q 382 63 382 -61 m 381 1329 q 339 1256 381 1318 q 274 1176 297 1193 q 261 1172 267 1172 q 250 1176 254 1172 q 183 1256 225 1193 q 142 1329 142 1318 q 153 1340 142 1340 q 198 1301 160 1340 q 261 1228 236 1263 q 324 1301 286 1263 q 371 1340 363 1340 q 381 1329 381 1340 z "},"ž":{"ha":308,"x_min":36,"x_max":379,"o":"m 379 210 q 378 194 379 200 q 265 8 354 75 q 268 -36 268 -12 q 226 -215 268 -137 q 104 -303 179 -303 q 44 -233 44 -303 q 218 7 44 -126 q 140 101 203 101 q 78 31 101 31 q 64 47 64 31 q 122 124 64 93 l 268 388 q 238 383 254 383 q 167 389 196 383 q 133 394 139 394 q 88 306 101 394 q 62 164 67 176 q 44 151 57 151 q 36 160 36 151 q 38 168 36 163 q 58 282 50 200 q 76 399 68 369 q 126 453 93 453 q 185 444 151 453 q 249 435 219 435 q 284 442 264 435 q 307 450 304 450 q 319 438 319 450 q 153 125 319 407 q 260 38 235 125 q 356 203 339 101 q 371 231 360 231 q 379 210 379 231 m 222 -46 q 221 -24 222 -35 q 67 -236 67 -142 q 107 -282 67 -282 q 190 -204 156 -282 q 222 -46 222 -132 m 319 685 q 279 613 319 672 q 211 532 236 549 q 200 526 206 526 q 188 532 193 526 q 121 613 164 549 q 81 685 81 672 q 90 696 81 696 q 137 656 99 696 q 200 583 175 617 q 263 656 225 617 q 308 696 301 696 q 319 685 319 696 z "},"ﬁ":{"ha":360,"x_min":1,"x_max":432,"o":"m 346 571 q 333 524 346 549 q 300 494 321 494 q 274 539 274 494 q 285 586 274 563 q 318 617 299 617 q 346 571 346 617 m 432 218 q 396 93 432 175 q 313 0 353 0 q 238 114 250 0 q 169 47 213 64 l 169 46 q 149 -167 169 -68 q 103 -265 129 -265 q 51 75 57 -265 q 1 229 1 129 q 50 376 1 335 l 50 421 q 75 879 50 644 q 115 1094 96 1094 q 129 1024 129 1094 q 107 707 129 914 q 85 389 86 492 q 169 76 165 389 q 235 178 226 106 q 249 308 242 243 q 279 410 261 410 q 292 396 292 410 q 282 326 292 394 q 271 176 271 249 q 326 63 271 63 q 383 125 354 63 q 408 214 408 182 q 422 229 408 229 q 432 218 432 229 m 138 68 q 131 224 138 163 q 83 351 118 346 q 82 286 82 297 q 85 81 82 186 q 129 67 104 67 q 138 68 133 67 m 50 124 l 50 331 q 31 232 31 296 q 50 124 31 168 m 138 40 q 128 40 133 40 q 85 49 104 40 q 107 -185 93 -185 q 128 -119 118 -185 q 138 40 138 -53 z "},"ﬂ":{"ha":390,"x_min":1,"x_max":463,"o":"m 463 218 q 425 93 463 175 q 343 0 383 0 q 247 135 283 0 q 169 47 221 67 l 169 46 q 149 -167 169 -68 q 103 -265 129 -265 q 51 75 57 -265 q 1 229 1 129 q 50 376 1 335 l 50 421 q 75 879 50 644 q 115 1094 96 1094 q 129 1024 129 1094 q 107 707 129 914 q 85 389 86 492 q 169 76 165 389 q 236 183 217 100 q 222 357 222 260 q 275 874 222 608 q 374 1135 326 1135 q 407 1017 407 1135 q 374 696 407 892 q 264 314 332 446 q 298 128 272 194 q 357 63 324 63 q 414 125 385 63 q 440 214 440 182 q 453 229 440 229 q 463 218 463 229 m 372 1036 q 363 1076 372 1075 q 311 919 344 1078 q 261 533 276 744 q 257 418 257 474 q 258 368 257 393 q 337 676 301 472 q 372 1036 372 879 m 138 68 q 131 224 138 163 q 83 351 118 346 q 82 286 82 297 q 85 81 82 186 q 129 67 104 67 q 138 68 133 67 m 50 124 l 50 331 q 31 232 31 296 q 50 124 31 168 m 138 40 q 128 40 133 40 q 85 49 104 40 q 107 -185 93 -185 q 128 -119 118 -185 q 138 40 138 -53 z "},"ı":{"ha":171,"x_min":46,"x_max":243,"o":"m 243 218 q 207 93 243 175 q 124 0 164 0 q 46 179 46 0 q 57 304 46 222 q 90 410 71 410 q 103 396 103 410 q 93 326 103 394 q 82 176 82 249 q 138 63 82 63 q 194 125 165 63 q 221 214 221 182 q 233 229 221 229 q 243 218 243 229 z "},"˘":{"ha":346,"x_min":38,"x_max":306,"o":"m 306 1063 q 264 961 306 1008 q 168 914 222 914 q 74 964 114 914 q 38 1063 38 1010 q 51 1078 38 1078 q 64 1050 54 1078 q 93 999 75 1017 q 168 971 121 971 q 247 999 217 971 q 281 1050 268 1018 q 293 1078 292 1078 q 306 1063 306 1078 z "},"˙":{"ha":150,"x_min":39,"x_max":111,"o":"m 111 1043 q 75 1007 111 1007 q 39 1043 39 1007 q 75 1079 39 1079 q 111 1043 111 1079 z "},"˚":{"ha":358,"x_min":64,"x_max":292,"o":"m 292 972 q 258 892 292 926 q 178 858 225 858 q 97 892 131 858 q 64 972 64 926 q 97 1053 64 1019 q 178 1086 131 1086 q 258 1053 225 1086 q 292 972 292 1019 m 253 972 q 231 1026 253 1004 q 178 1049 208 1049 q 124 1026 146 1049 q 101 972 101 1004 q 124 919 101 942 q 178 897 146 897 q 231 919 208 897 q 253 972 253 942 z "},"˝":{"ha":300,"x_min":40,"x_max":275,"o":"m 275 1075 q 217 992 275 1057 q 146 928 158 928 q 136 939 136 928 q 186 1025 136 953 q 254 1097 236 1097 q 275 1075 275 1097 m 179 1075 q 121 992 179 1057 q 51 928 63 928 q 40 939 40 928 q 90 1025 40 953 q 160 1097 140 1097 q 179 1075 179 1097 z "},"˛":{"ha":326,"x_min":79,"x_max":247,"o":"m 247 -153 q 219 -197 247 -175 q 156 -219 192 -219 q 101 -201 124 -219 q 79 -150 79 -182 q 192 0 79 -72 l 215 0 q 129 -128 129 -68 q 178 -185 129 -185 q 222 -168 201 -185 q 240 -146 231 -157 q 244 -147 242 -144 q 247 -153 247 -150 z "},"ˇ":{"ha":286,"x_min":22,"x_max":263,"o":"m 263 1056 q 221 982 263 1044 q 154 903 179 919 q 142 899 147 899 q 131 903 136 899 q 64 982 106 919 q 22 1056 22 1044 q 33 1067 22 1067 q 79 1028 40 1067 q 142 954 118 989 q 206 1028 167 989 q 251 1067 244 1067 q 263 1056 263 1067 z "},"А":{"ha":872,"x_min":15,"x_max":976,"o":"m 976 -101 q 947 -122 976 -122 q 701 246 799 -122 q 594 253 653 253 q 525 246 557 253 q 204 -203 390 -203 q 61 -104 113 -203 q 15 125 15 -14 q 82 417 15 276 q 251 568 156 568 q 338 514 307 568 q 364 385 364 464 q 319 188 364 278 q 210 93 274 93 q 200 103 200 93 q 211 114 200 114 q 286 181 253 114 q 324 372 324 254 q 256 549 324 549 q 129 421 188 549 q 71 132 71 293 q 186 -171 71 -171 q 324 -69 250 -171 q 468 231 403 39 q 406 204 401 204 q 376 224 376 204 q 482 272 376 254 q 603 900 568 543 q 608 1017 608 947 q 608 1071 608 1024 q 607 1144 607 1118 q 616 1199 607 1175 q 638 1224 625 1224 q 658 1200 649 1224 q 667 1153 667 1176 q 656 1028 667 1113 q 646 890 646 944 q 672 583 646 764 q 733 265 697 401 q 808 243 763 260 q 872 207 872 219 q 860 197 872 197 q 815 211 844 197 q 769 231 776 229 q 742 239 756 235 q 965 -85 833 -85 q 976 -101 976 -85 m 694 274 q 624 725 636 510 q 533 278 586 464 q 600 281 565 281 q 694 274 647 281 z "},"В":{"ha":733,"x_min":24,"x_max":703,"o":"m 703 257 q 617 -49 703 89 q 406 -192 526 -192 q 361 -186 382 -192 q 342 -256 361 -256 q 322 -174 322 -256 l 322 -172 q 254 -100 278 -149 q 233 -17 233 -60 q 243 -1 233 -1 q 251 -15 251 -1 q 324 -133 251 -86 q 333 310 333 247 q 325 785 333 583 q 317 964 321 875 q 315 978 317 967 q 315 996 315 989 q 339 1049 315 1049 q 381 969 381 1049 q 363 -151 381 815 q 407 -157 385 -157 q 583 -21 510 -157 q 653 268 653 110 q 515 561 653 492 q 453 536 486 536 q 414 569 414 536 q 444 606 414 606 q 510 594 485 606 q 589 817 589 663 q 536 1029 589 951 q 410 1100 488 1100 q 161 885 261 1100 q 72 481 72 694 q 98 318 72 381 q 172 256 124 256 q 231 310 207 256 q 256 439 256 364 q 238 558 256 507 q 221 600 221 610 q 233 611 221 611 q 267 569 246 611 q 293 431 293 514 q 254 283 293 336 q 171 238 219 238 q 60 315 99 238 q 24 507 24 388 q 125 913 24 726 q 414 1122 240 1122 q 576 1046 513 1122 q 644 824 644 964 q 540 576 644 674 q 703 257 703 483 z "},"Г":{"ha":660,"x_min":51,"x_max":844,"o":"m 386 758 q 340 753 378 757 q 256 747 301 750 q 167 742 210 744 q 108 740 125 740 q 92 744 96 743 q 89 747 89 744 q 123 777 90 763 q 218 799 156 792 q 397 796 318 792 q 539 811 476 800 q 529 930 536 872 q 517 1033 522 988 q 509 1109 511 1079 q 514 1146 507 1139 q 557 1156 542 1174 q 571 1110 565 1144 q 582 964 578 1035 q 586 825 586 893 l 586 821 q 738 894 690 847 q 789 1001 786 942 q 774 1063 792 1042 q 725 1097 756 1085 q 703 1102 701 1100 q 704 1106 704 1104 q 714 1117 706 1117 q 729 1118 722 1118 q 807 1081 772 1115 q 843 1000 842 1047 q 824 922 844 956 q 767 864 803 889 q 685 822 732 839 q 586 793 638 806 q 544 242 585 486 q 288 -200 469 -200 q 113 -54 181 -200 q 51 250 51 79 q 101 490 51 400 q 211 571 147 571 q 314 499 272 571 q 360 283 360 419 q 358 249 360 269 q 350 201 356 229 q 321 133 338 133 q 311 151 311 133 q 321 199 311 160 q 331 268 331 239 q 297 468 331 394 q 224 535 268 535 q 143 458 176 535 q 106 232 106 375 q 150 -39 106 79 q 283 -174 200 -174 q 506 225 440 -174 q 531 466 524 338 q 540 744 539 594 l 540 783 q 461 770 500 776 q 386 758 422 764 z "},"Д":{"ha":719,"x_min":14,"x_max":703,"o":"m 703 503 q 619 28 703 231 q 392 -192 531 -192 q 349 -186 369 -192 l 349 -206 q 347 -242 349 -236 q 329 -256 344 -256 q 311 -239 314 -256 q 310 -192 308 -231 l 310 -172 q 240 -100 265 -149 q 221 -17 221 -60 q 231 -1 221 -1 q 238 -15 238 -1 q 310 -133 238 -86 q 321 310 321 247 q 311 785 321 583 q 303 964 307 875 l 303 993 q 326 1049 303 1049 q 367 969 367 1049 q 361 782 367 992 q 354 313 354 581 l 354 157 q 349 -151 354 135 q 394 -157 371 -157 q 576 61 503 -157 q 644 531 644 265 q 561 969 644 818 q 375 1101 489 1101 q 161 969 256 1101 q 63 631 63 829 q 88 493 63 547 q 160 439 114 439 q 218 493 194 439 q 242 622 242 547 q 225 742 242 690 q 208 783 208 793 q 219 796 208 796 q 253 754 232 796 q 281 614 281 697 q 240 467 281 521 q 158 421 206 421 q 51 489 90 421 q 14 653 14 553 q 125 992 14 854 q 367 1122 231 1122 q 597 979 507 1122 q 703 503 703 813 z "},"Е":{"ha":517,"x_min":18,"x_max":507,"o":"m 507 36 q 444 -147 507 -76 q 267 -217 381 -217 q 100 -147 172 -217 q 18 64 18 -68 q 108 268 18 181 q 242 351 174 333 q 40 707 40 464 q 138 1004 40 878 q 333 1121 229 1121 q 460 1049 415 1121 q 499 883 499 985 q 449 660 499 763 q 332 557 400 557 q 256 605 289 557 q 222 729 222 653 q 247 839 222 792 q 275 875 265 875 q 285 865 285 875 q 272 833 285 874 q 260 736 260 792 q 281 626 260 672 q 331 581 301 581 q 418 674 382 581 q 451 874 451 763 q 422 1032 451 971 q 325 1101 389 1101 q 169 996 243 1101 q 92 732 92 882 q 175 475 92 579 q 326 383 249 383 q 371 386 350 383 q 396 389 392 389 q 419 368 419 389 q 407 346 419 358 q 382 333 394 333 q 364 333 376 333 q 338 335 350 335 q 144 251 219 335 q 75 64 75 174 q 133 -117 75 -43 q 278 -192 192 -192 q 413 -126 364 -192 q 461 38 461 -61 q 435 161 461 108 q 396 206 413 206 q 388 215 388 206 q 400 226 388 226 q 467 168 429 226 q 507 36 507 104 z "},"Ж":{"ha":1117,"x_min":8,"x_max":1057,"o":"m 624 351 q 628 513 624 438 q 591 494 610 504 q 553 474 572 485 q 551 438 551 456 q 551 404 551 421 q 608 -103 551 -10 q 611 -112 611 -111 q 601 -121 611 -121 q 592 -115 594 -121 q 507 413 507 36 l 507 415 l 507 444 q 472 422 489 433 q 439 397 456 410 q 435 272 438 340 q 424 135 432 204 q 401 2 415 67 q 362 -112 386 -62 q 303 -193 338 -162 q 221 -224 268 -224 q 172 -212 194 -224 q 132 -181 149 -200 q 106 -136 115 -161 q 97 -85 97 -111 q 107 -3 97 -44 q 140 83 117 38 q 206 184 164 129 q 311 308 247 239 q 344 343 326 326 q 381 376 361 360 q 379 457 379 419 q 379 522 379 494 q 367 747 379 644 q 333 925 356 850 q 281 1042 311 1000 q 215 1083 251 1083 q 160 1058 188 1083 q 113 985 133 1033 q 78 865 92 936 q 65 701 65 794 q 72 580 65 635 q 93 485 79 525 q 127 424 107 446 q 172 401 147 401 q 206 417 190 401 q 235 460 222 433 q 255 522 247 486 q 263 597 263 557 q 259 652 263 625 q 251 700 256 679 q 242 734 247 721 q 236 747 238 747 q 249 757 236 757 q 266 742 257 757 q 283 701 275 726 q 297 642 292 675 q 301 576 301 610 q 260 436 297 489 q 171 383 222 383 q 103 410 133 383 q 51 484 72 438 q 19 594 31 531 q 8 729 8 657 q 28 883 8 813 q 78 1006 49 954 q 144 1085 108 1057 q 214 1114 181 1114 q 305 1066 264 1114 q 376 933 346 1018 q 422 728 406 847 q 439 469 439 610 l 439 425 q 473 451 456 439 q 508 476 490 464 q 523 656 513 568 q 548 811 533 743 q 578 921 563 879 q 610 963 594 963 q 649 932 649 963 q 637 911 649 921 q 622 894 625 901 q 602 839 613 878 q 583 748 592 800 q 566 633 574 696 q 554 506 558 571 q 631 546 592 529 q 713 931 650 788 q 872 1107 776 1074 l 879 1107 q 957 1083 924 1107 q 1013 1019 990 1058 q 1046 931 1035 979 q 1057 833 1057 882 q 1049 756 1057 793 q 1027 692 1042 719 q 990 647 1013 664 q 939 629 968 629 q 895 640 918 629 q 853 671 872 651 q 823 719 835 690 q 811 782 811 747 q 817 824 811 804 q 831 860 822 844 q 847 885 839 875 q 861 894 856 894 q 871 888 871 894 q 863 862 868 888 q 857 803 857 836 q 881 694 857 738 q 936 650 904 650 q 965 663 953 650 q 985 698 976 676 q 997 749 993 719 q 1000 810 1000 778 q 992 904 1000 856 q 970 992 985 953 q 935 1058 956 1032 q 888 1083 914 1083 q 874 1082 878 1083 l 872 1082 q 801 1028 833 1069 q 746 920 769 986 q 706 765 722 854 q 682 569 690 676 q 747 590 714 582 q 760 593 754 593 q 772 593 767 593 q 783 589 783 593 q 755 570 783 582 q 681 538 726 558 q 676 450 678 494 q 675 358 675 406 q 683 183 675 272 q 712 22 692 94 q 767 -96 732 -50 q 856 -142 801 -142 q 908 -118 882 -142 q 954 -54 935 -94 q 986 40 974 -14 q 999 154 999 93 q 989 257 999 208 q 963 342 979 306 q 926 401 947 379 q 883 424 906 424 q 821 367 844 424 q 797 219 797 311 q 815 106 797 157 q 858 36 832 56 q 864 26 864 32 q 854 18 864 18 q 844 21 853 18 q 783 99 806 44 q 760 221 760 154 q 794 379 760 318 q 885 440 829 440 q 949 415 918 440 q 1002 347 979 390 q 1038 248 1025 304 q 1051 129 1051 192 q 1031 14 1049 67 q 984 -78 1013 -39 q 921 -138 956 -117 q 849 -160 886 -160 q 757 -122 799 -160 q 686 -17 715 -85 q 640 145 657 51 q 624 351 624 239 m 308 269 q 223 154 254 207 q 176 55 192 101 q 156 -32 160 8 q 151 -108 151 -72 q 171 -178 151 -153 q 214 -204 190 -204 q 303 -151 269 -204 q 353 -18 336 -99 q 376 156 371 63 q 381 332 381 250 l 381 347 q 343 310 361 329 q 308 269 325 290 z "},"З":{"ha":493,"x_min":26,"x_max":508,"o":"m 508 99 q 503 92 508 92 q 496 94 499 92 q 433 125 468 118 q 439 65 439 97 q 354 -169 439 -67 q 139 -278 265 -278 q 57 -244 88 -278 q 26 -162 26 -211 q 143 44 26 -51 q 371 147 251 135 q 300 264 351 218 q 150 221 233 221 q 87 238 114 221 q 60 275 60 256 q 92 319 60 303 q 172 335 124 335 q 296 306 236 335 q 390 494 357 372 q 422 735 422 607 q 379 990 422 888 q 256 1101 333 1101 q 132 990 178 1101 q 90 732 90 888 q 132 510 90 599 q 217 429 169 429 q 278 479 253 429 q 307 638 307 536 q 289 753 307 700 q 242 825 271 806 q 238 835 238 829 q 247 844 238 844 q 256 842 251 844 q 323 760 299 818 q 347 636 347 703 q 306 468 347 531 q 215 413 268 413 q 93 497 149 413 q 32 731 32 592 q 94 1010 32 899 q 251 1121 157 1121 q 419 990 356 1121 q 479 700 479 871 q 443 467 479 574 q 329 286 404 350 q 429 146 406 235 q 475 129 449 143 q 508 99 508 114 m 272 283 q 171 315 224 315 q 104 272 104 315 q 156 240 104 240 q 272 283 221 240 m 382 63 q 376 128 382 97 q 170 19 269 117 q 71 -174 71 -79 q 94 -235 71 -211 q 149 -258 118 -258 q 318 -156 250 -258 q 382 63 382 -61 z "},"И":{"ha":706,"x_min":15,"x_max":832,"o":"m 832 -74 q 808 -146 832 -110 q 728 -192 778 -192 q 604 47 628 -192 q 456 -212 564 -212 q 350 -111 385 -212 q 322 85 322 -32 q 348 440 322 238 q 374 822 374 642 q 335 1036 374 958 q 246 1107 300 1107 q 125 997 176 1107 q 67 669 67 874 q 108 410 67 514 q 193 315 146 315 q 254 374 229 315 q 283 560 283 440 q 265 693 283 631 q 219 778 247 756 q 214 789 214 782 q 224 801 214 801 q 233 799 228 801 q 299 702 275 769 q 324 557 324 635 q 282 360 324 433 q 192 294 244 294 q 74 394 126 294 q 15 668 15 504 q 88 1014 15 883 q 242 1129 153 1129 q 364 1046 315 1129 q 418 793 418 953 q 394 425 418 647 q 371 51 371 203 q 392 -96 371 -28 q 461 -181 417 -181 q 599 218 557 -181 q 590 651 599 325 q 583 1063 583 940 q 614 1115 583 1115 q 639 1036 639 1115 q 636 764 639 861 l 636 279 q 664 -53 636 64 q 728 -158 688 -158 q 783 -133 761 -158 q 810 -87 799 -117 q 826 -62 819 -62 q 832 -74 832 -62 z "},"Й":{"ha":706,"x_min":15,"x_max":832,"o":"m 832 -74 q 808 -146 832 -110 q 728 -192 778 -192 q 604 47 628 -192 q 456 -212 564 -212 q 350 -111 385 -212 q 322 85 322 -32 q 348 440 322 238 q 374 822 374 642 q 335 1036 374 958 q 246 1107 300 1107 q 125 997 176 1107 q 67 669 67 874 q 108 410 67 514 q 193 315 146 315 q 254 374 229 315 q 283 560 283 440 q 265 693 283 631 q 219 778 247 756 q 214 789 214 782 q 224 801 214 801 q 233 799 228 801 q 299 702 275 769 q 324 557 324 635 q 282 360 324 433 q 192 294 244 294 q 74 394 126 294 q 15 668 15 504 q 88 1014 15 883 q 242 1129 153 1129 q 364 1046 315 1129 q 418 793 418 953 q 394 425 418 647 q 371 51 371 203 q 392 -96 371 -28 q 461 -181 417 -181 q 599 218 557 -181 q 590 651 599 325 q 583 1063 583 940 q 614 1115 583 1115 q 639 1036 639 1115 q 636 764 639 861 l 636 279 q 664 -53 636 64 q 728 -158 688 -158 q 783 -133 761 -158 q 810 -87 799 -117 q 826 -62 819 -62 q 832 -74 832 -62 m 686 1328 q 525 1260 681 1311 q 568 1156 547 1215 l 567 1156 q 508 1235 556 1160 q 475 1144 489 1182 q 439 1068 447 1072 q 481 1247 436 1090 q 418 1229 444 1236 q 354 1221 368 1218 l 353 1222 q 482 1278 358 1236 q 397 1454 393 1431 l 400 1454 q 499 1307 422 1449 q 625 1636 597 1622 q 614 1567 628 1621 q 529 1293 594 1490 q 686 1331 660 1335 l 686 1328 z "},"К":{"ha":715,"x_min":10,"x_max":797,"o":"m 797 -222 l 796 -231 q 733 -240 763 -240 q 594 -101 624 -240 q 568 154 582 26 q 454 292 546 292 q 429 289 447 292 q 367 -87 414 96 q 339 -187 360 -122 q 326 -199 335 -199 q 314 -182 314 -199 q 317 -165 314 -176 q 379 522 379 28 q 353 836 379 683 q 215 1083 310 1083 q 67 614 67 1083 q 86 411 67 504 q 188 260 117 260 q 253 335 231 260 q 269 443 269 388 q 257 551 269 501 q 236 604 246 576 q 249 615 236 615 q 258 608 250 615 q 308 435 308 554 q 282 311 308 365 q 186 242 249 242 q 43 396 90 242 q 10 625 10 503 q 49 931 10 799 q 214 1114 103 1114 q 399 851 339 1114 q 439 493 439 678 q 433 331 439 411 l 443 329 q 642 671 594 351 q 663 1099 663 810 q 678 1122 663 1122 q 703 1110 689 1122 q 717 1089 717 1099 q 675 669 717 879 q 503 311 617 375 q 619 140 596 279 q 643 -96 632 22 q 754 -215 664 -215 q 792 -210 772 -215 q 797 -222 797 -215 z "},"Л":{"ha":872,"x_min":15,"x_max":976,"o":"m 742 239 q 965 -85 833 -85 q 976 -101 976 -85 q 947 -122 976 -122 q 701 246 799 -122 q 651 490 672 364 q 624 725 631 617 q 602 594 614 660 q 578 467 590 529 q 551 348 565 404 q 525 246 538 292 q 204 -203 389 -203 q 61 -104 114 -203 q 15 125 15 -15 q 82 417 15 276 q 251 568 154 568 q 338 514 306 568 q 364 385 364 465 q 319 188 364 279 q 210 93 274 93 q 200 103 200 93 q 211 114 200 114 q 286 181 253 114 q 324 372 324 253 q 256 549 324 549 q 129 421 188 549 q 71 132 71 293 q 186 -171 71 -171 q 324 -69 251 -171 q 468 231 404 40 q 510 378 489 299 q 548 544 531 457 q 580 721 565 631 q 603 900 594 811 q 607 953 606 924 q 608 1017 608 982 l 608 1071 q 607 1113 607 1094 q 607 1144 607 1131 q 616 1199 607 1175 q 638 1224 625 1224 q 658 1200 649 1224 q 667 1153 667 1176 q 664 1102 667 1133 q 656 1028 661 1071 q 648 952 650 986 q 646 890 646 918 q 671 582 646 763 q 704 399 685 490 q 742 239 724 307 z "},"М":{"ha":933,"x_min":22,"x_max":1157,"o":"m 1157 -64 q 1128 -156 1157 -110 q 1026 -214 1089 -214 q 876 -71 929 -214 q 835 200 835 44 q 836 299 835 236 q 836 382 836 361 q 833 432 836 432 q 798 210 832 432 q 747 -11 764 -11 q 694 357 719 -11 q 575 -11 658 140 q 336 -197 472 -197 q 117 -61 206 -197 q 22 322 22 83 q 101 622 22 503 q 285 735 178 735 q 416 660 364 735 q 468 461 468 585 q 451 346 468 397 q 425 300 438 300 q 414 318 414 300 q 428 356 414 313 q 442 456 442 399 q 400 631 442 561 q 292 700 358 700 q 147 597 207 700 q 82 292 82 483 q 136 -18 82 103 q 300 -149 196 -149 q 576 82 461 -149 q 683 554 683 296 q 675 791 683 668 q 667 993 667 914 q 711 1283 667 1283 q 749 1093 749 1283 q 715 500 749 824 q 747 110 739 110 q 794 345 754 110 q 833 614 833 581 q 853 899 833 675 q 889 1146 875 1146 q 910 1039 910 1146 q 906 942 910 994 q 881 738 893 840 q 863 383 863 569 q 906 -15 863 136 q 1026 -171 951 -171 q 1097 -139 1068 -171 q 1131 -81 1117 -118 q 1143 -50 1142 -50 q 1157 -64 1157 -50 z "},"Н":{"ha":701,"x_min":10,"x_max":729,"o":"m 729 1074 q 717 1051 729 1063 q 700 1029 704 1039 q 658 860 681 990 q 624 446 626 674 q 690 375 675 422 q 692 369 692 372 q 686 360 692 360 q 672 371 676 360 q 624 418 660 401 q 686 -187 624 -78 q 689 -199 689 -193 q 678 -208 689 -208 q 667 -201 671 -208 q 575 428 575 -19 l 575 429 l 569 429 q 433 335 499 431 q 383 -50 421 114 q 308 -214 344 -214 q 272 -106 272 -214 q 375 296 272 103 q 379 522 379 407 q 328 943 379 788 q 215 1083 282 1083 q 113 965 154 1083 q 67 614 67 835 q 96 368 67 465 q 188 260 129 260 q 246 314 222 260 q 269 443 269 368 q 253 563 269 511 q 236 604 236 614 q 249 615 236 615 q 281 574 260 615 q 308 435 308 518 q 268 288 308 340 q 186 242 233 242 q 56 358 106 242 q 10 625 10 468 q 75 988 10 849 q 214 1114 133 1114 q 365 963 301 1114 q 439 493 439 789 q 436 386 439 440 q 563 460 499 460 q 575 458 569 460 q 621 936 578 732 q 688 1111 657 1111 q 729 1074 729 1111 m 371 213 q 299 -137 299 33 q 311 -165 299 -165 q 371 213 350 -165 z "},"О":{"ha":581,"x_min":21,"x_max":568,"o":"m 568 493 q 501 22 568 222 q 313 -194 428 -194 q 90 13 171 -194 q 21 433 21 190 q 58 713 21 607 q 72 724 63 724 q 78 715 78 724 q 76 708 78 713 q 74 699 75 703 q 63 501 63 618 q 111 81 63 256 q 293 -137 174 -137 q 463 72 397 -137 q 524 522 524 263 q 471 910 524 757 q 310 1082 414 1082 q 199 993 243 1082 q 150 728 150 896 q 192 410 150 549 q 308 260 239 260 q 367 314 343 260 q 390 443 390 368 q 374 563 390 511 q 357 604 357 614 q 369 615 357 615 q 401 574 382 615 q 429 435 429 518 q 390 288 429 340 q 307 242 356 242 q 157 390 215 242 q 104 711 104 526 q 153 986 104 879 q 307 1108 207 1108 q 506 918 435 1108 q 568 493 568 750 z "},"П":{"ha":794,"x_min":22,"x_max":849,"o":"m 807 -122 q 818 -101 814 -112 q 826 -78 822 -90 q 838 -53 833 -54 q 846 -62 843 -51 q 831 -129 849 -97 q 761 -179 808 -175 q 701 -155 728 -183 q 655 -81 674 -126 q 626 19 636 -36 q 617 124 617 74 q 623 288 617 197 q 640 492 629 379 q 658 697 651 604 q 664 865 664 789 q 643 1013 664 943 q 574 1097 618 1097 q 436 699 478 1097 q 444 265 436 592 q 449 18 447 119 q 451 -146 451 -83 q 421 -199 451 -199 q 396 -119 396 -199 q 397 36 396 -32 q 399 153 397 104 l 399 638 q 371 969 399 850 q 357 1011 364 993 q 342 1044 350 1029 q 253 1115 306 1115 q 132 1006 183 1115 q 74 678 74 882 q 115 418 74 522 q 200 324 153 324 q 261 382 236 324 q 290 568 290 449 q 285 638 290 603 q 272 701 281 672 q 252 753 264 731 q 226 786 240 775 q 221 797 221 790 q 231 810 221 810 q 240 807 232 810 q 278 767 261 792 q 306 711 294 743 q 324 642 318 679 q 331 565 331 604 q 289 368 331 440 q 199 303 251 303 q 81 403 132 303 q 22 676 22 513 q 94 1022 22 892 q 249 1138 160 1138 q 371 1054 322 1138 q 389 1016 379 1039 q 407 968 399 993 q 422 917 415 943 q 431 869 428 892 q 579 1129 469 1129 q 685 1028 650 1129 q 713 832 713 947 q 706 667 713 756 q 686 476 700 578 q 661 94 661 274 q 667 29 661 71 q 685 -53 672 -12 q 715 -122 697 -93 q 758 -150 733 -151 q 807 -122 788 -146 z "},"Р":{"ha":779,"x_min":21,"x_max":774,"o":"m 774 707 q 689 400 774 533 q 465 260 599 260 q 404 269 433 260 q 297 -201 401 -201 q 265 -192 281 -201 q 250 -174 250 -182 q 271 -156 250 -156 q 283 -165 278 -156 q 292 -174 288 -174 q 353 156 353 -174 q 351 301 353 213 q 294 433 294 354 q 304 450 294 450 q 311 435 311 450 q 350 346 311 388 q 347 599 347 525 q 450 1063 347 1063 q 464 1049 464 1063 q 442 1035 464 1035 q 400 760 400 1035 q 403 545 400 696 q 406 313 406 394 l 406 306 q 468 293 435 293 q 647 432 572 293 q 718 729 718 564 q 631 1008 718 907 q 432 1099 551 1099 q 183 978 289 1099 q 67 626 67 844 q 92 492 67 544 q 164 439 117 439 q 222 493 199 439 q 246 622 246 547 q 229 742 246 690 q 213 783 213 793 q 224 796 213 796 q 257 754 236 796 q 285 614 285 697 q 244 467 285 521 q 161 421 210 421 q 57 488 94 421 q 21 649 21 550 q 149 1000 21 868 q 425 1119 264 1119 q 667 1018 569 1119 q 774 707 774 906 z "},"С":{"ha":532,"x_min":22,"x_max":525,"o":"m 525 253 q 486 6 525 144 q 281 -233 421 -233 q 103 -90 172 -233 q 22 375 22 72 q 113 925 22 724 q 324 1108 196 1108 q 442 1013 396 1108 q 493 722 493 907 q 432 333 493 510 q 264 138 364 138 q 182 185 217 138 q 142 331 142 238 q 169 471 142 415 q 203 513 190 513 q 214 500 214 513 q 197 459 214 510 q 181 339 181 408 q 204 210 181 264 q 263 157 228 157 q 388 319 332 157 q 444 738 444 492 q 418 996 444 917 q 328 1081 392 1081 q 156 892 231 1081 q 75 365 75 685 q 278 -192 75 -192 q 501 229 417 -192 q 518 269 510 269 q 525 253 525 269 z "},"Т":{"ha":894,"x_min":22,"x_max":968,"o":"m 431 869 q 443 960 438 917 q 458 1038 449 1003 q 483 1098 468 1072 q 524 1135 497 1124 q 555 1126 543 1132 q 574 1113 567 1121 q 586 1096 582 1106 q 594 1075 590 1086 q 610 1010 607 1047 q 612 929 613 974 q 611 835 611 885 q 617 732 611 785 l 621 731 q 633 888 626 822 q 649 997 640 954 q 728 1136 675 1136 q 780 1100 760 1136 q 812 1015 800 1064 q 828 914 824 965 q 832 833 832 863 q 826 668 832 757 q 806 478 819 579 q 781 96 781 275 q 785 47 781 78 q 797 -18 789 17 q 817 -84 804 -53 q 845 -134 829 -115 q 881 -152 861 -153 q 926 -121 901 -151 q 938 -100 933 -111 q 946 -76 942 -89 q 958 -51 953 -53 q 965 -61 963 -50 q 950 -128 968 -96 q 881 -178 928 -174 q 820 -153 847 -182 q 774 -80 793 -125 q 746 20 756 -35 q 736 125 736 75 q 742 290 736 199 q 760 493 749 381 q 777 698 771 606 q 783 867 783 790 q 777 957 783 914 q 763 1033 771 1000 q 745 1085 754 1065 q 728 1104 736 1104 q 649 813 675 1104 q 635 602 639 708 q 631 385 631 496 q 635 222 631 307 q 639 129 639 136 l 639 107 q 611 -18 639 -18 q 588 129 588 -18 q 588 293 588 213 q 593 454 588 374 q 594 570 596 497 q 590 725 593 643 q 589 808 589 765 q 588 890 589 850 q 585 966 588 931 q 576 1029 582 1001 q 553 1087 568 1069 q 524 1103 539 1104 q 494 1059 507 1093 q 472 972 482 1025 q 453 850 461 919 q 436 699 444 781 q 444 265 436 592 q 449 18 447 119 q 451 -146 451 -83 q 421 -199 451 -199 q 396 -119 396 -199 q 397 36 396 -32 q 399 153 397 104 l 399 638 q 371 969 399 850 q 357 1011 364 993 q 342 1044 350 1029 q 253 1115 306 1115 q 132 1006 183 1115 q 74 678 74 882 q 115 418 74 522 q 200 324 153 324 q 261 382 236 324 q 290 568 290 449 q 285 638 290 603 q 272 701 281 672 q 252 753 264 731 q 226 786 240 775 q 221 797 221 790 q 231 810 221 810 q 240 807 232 810 q 278 767 261 792 q 306 711 294 743 q 324 642 318 679 q 331 565 331 604 q 289 368 331 440 q 199 303 251 303 q 81 403 132 303 q 22 676 22 513 q 94 1022 22 892 q 249 1138 160 1138 q 371 1054 322 1138 q 389 1016 379 1039 q 407 968 399 993 q 422 917 415 943 q 431 869 428 892 z "},"У":{"ha":735,"x_min":13,"x_max":694,"o":"m 694 -35 q 619 -213 694 -137 q 431 -289 543 -289 q 297 -250 349 -289 q 239 -125 239 -206 q 254 -57 239 -94 q 275 -19 265 -28 q 289 -14 281 -14 q 300 -22 300 -14 q 300 -25 300 -24 q 268 -124 268 -67 q 319 -221 268 -183 q 438 -258 369 -258 q 638 -15 638 -258 q 615 317 638 90 q 453 97 569 97 q 342 311 342 97 q 361 581 342 390 q 381 856 381 771 q 261 1115 381 1115 q 126 1000 183 1115 q 65 669 65 874 q 106 410 65 514 q 190 315 143 315 q 253 374 226 315 q 282 560 282 440 q 263 693 282 631 q 217 778 244 756 q 211 789 211 782 q 221 801 211 801 q 231 799 225 801 q 298 702 274 769 q 322 557 322 635 q 279 360 322 433 q 190 294 243 294 q 71 394 124 294 q 13 668 13 504 q 89 1014 13 882 q 254 1135 157 1135 q 429 793 429 1135 q 413 517 429 700 q 396 269 396 333 q 458 121 396 121 q 560 226 515 121 q 601 426 600 324 q 601 465 601 446 q 591 721 601 557 q 581 963 581 885 q 611 1003 581 1003 q 636 943 636 1003 q 636 838 636 908 q 635 733 635 768 q 665 358 635 583 q 694 -35 694 132 z "},"Ф":{"ha":781,"x_min":42,"x_max":747,"o":"m 167 956 q 104 929 101 929 q 75 949 75 929 q 181 997 75 979 q 208 1000 192 999 q 242 1003 225 1001 q 274 1005 258 1004 q 299 1006 290 1006 q 344 1003 322 1006 q 389 999 365 1001 q 423 1099 403 1064 q 471 1133 443 1133 q 485 1119 485 1133 q 463 1106 485 1106 q 425 990 436 1106 q 469 980 446 986 q 507 968 492 974 q 571 932 571 946 q 558 922 571 922 q 514 936 542 922 q 483 950 494 946 q 468 956 471 954 q 449 960 463 957 q 424 965 436 963 q 422 923 422 946 q 421 875 421 900 l 438 878 q 565 849 508 878 q 663 765 622 819 q 725 635 703 711 q 747 464 747 558 q 721 299 747 378 q 649 159 694 221 q 544 57 604 97 q 414 7 483 17 q 378 -149 401 -100 q 318 -199 354 -199 q 286 -189 301 -199 q 271 -171 271 -179 q 292 -153 271 -153 q 303 -162 299 -153 q 313 -171 308 -171 q 335 -162 325 -171 q 353 -134 346 -154 q 365 -81 360 -114 q 372 4 369 -47 l 336 6 q 215 40 269 10 q 122 125 161 71 q 63 253 83 179 q 42 419 42 328 q 68 582 42 504 q 139 722 94 660 q 244 824 183 783 q 374 875 304 864 q 378 926 376 903 q 385 972 381 950 q 340 976 364 975 q 293 978 317 978 q 265 975 283 978 q 228 968 247 972 q 192 960 208 964 q 167 956 175 957 m 368 669 q 369 767 368 719 q 372 850 369 814 q 268 799 317 842 q 183 694 219 757 q 125 555 146 632 q 104 397 104 478 q 120 246 104 314 q 167 129 136 178 q 244 53 199 81 q 349 26 289 26 l 374 26 l 374 158 q 373 211 374 172 q 372 301 372 250 q 370 408 371 351 q 369 517 369 465 q 368 610 368 569 q 368 669 368 651 m 421 829 q 422 767 421 808 q 422 674 422 725 q 424 567 422 622 q 425 461 425 511 q 426 372 425 411 q 426 315 426 333 q 426 240 426 279 q 424 163 425 201 q 420 91 422 125 q 417 32 418 57 q 522 82 472 40 q 608 186 571 124 q 666 327 644 249 q 688 486 688 406 q 672 638 688 569 q 624 754 656 706 q 548 830 593 803 q 443 857 503 857 q 432 856 436 857 q 421 853 428 854 l 421 829 z "},"Х":{"ha":692,"x_min":14,"x_max":858,"o":"m 858 -153 q 844 -186 858 -171 q 813 -201 831 -201 q 619 -35 700 -201 q 506 347 560 90 q 213 -203 314 -203 q 180 -187 193 -203 q 167 -154 167 -172 q 185 -140 167 -140 q 200 -155 199 -140 q 213 -169 201 -169 q 333 24 257 -169 q 483 457 374 126 q 386 904 413 817 q 244 1107 326 1107 q 124 997 175 1107 q 65 669 65 874 q 107 410 65 514 q 192 315 144 315 q 253 374 228 315 q 282 560 282 440 q 264 693 282 631 q 218 778 246 756 q 213 789 213 782 q 222 801 213 801 q 232 799 226 801 q 298 702 274 769 q 322 557 322 635 q 281 360 322 433 q 190 294 243 294 q 72 394 125 294 q 14 668 14 504 q 86 1014 14 883 q 240 1129 151 1129 q 411 957 340 1129 q 518 563 463 835 q 671 968 611 839 q 814 1147 754 1147 q 838 1132 838 1147 q 821 1114 838 1114 q 815 1115 819 1114 q 807 1117 810 1117 q 696 910 772 1117 q 540 453 685 881 q 646 18 604 138 q 813 -176 715 -176 q 825 -157 824 -176 q 840 -137 826 -137 q 858 -153 858 -137 z "},"Ц":{"ha":842,"x_min":31,"x_max":803,"o":"m 692 -142 q 715 -131 703 -139 q 710 -32 711 -81 q 722 31 707 7 q 756 58 738 54 q 788 40 774 61 q 797 -33 803 18 q 778 -94 794 -65 q 740 -144 763 -124 q 742 -154 742 -150 q 753 -249 749 -203 q 756 -338 757 -296 q 742 -414 754 -381 q 703 -470 731 -447 q 631 -499 676 -493 q 525 -476 575 -507 q 467 -385 475 -443 q 484 -310 461 -346 q 553 -256 507 -275 l 561 -251 q 575 -258 572 -250 q 573 -261 574 -260 q 567 -262 572 -262 q 520 -310 538 -278 q 508 -379 503 -343 q 531 -437 513 -414 q 576 -469 550 -460 q 630 -472 601 -478 q 683 -442 658 -465 q 721 -369 713 -414 q 726 -268 729 -324 q 718 -161 725 -218 q 688 -175 704 -169 q 633 -172 660 -183 q 601 -97 611 -153 q 588 35 590 -40 q 422 -214 531 -222 q 324 -107 353 -210 q 309 -17 313 -67 q 308 90 306 32 q 326 255 314 167 q 357 443 338 343 q 389 638 376 543 q 408 824 401 732 q 407 945 413 892 q 383 1039 401 999 q 300 1115 351 1114 q 172 1014 232 1121 q 92 692 107 897 q 117 429 81 535 q 194 329 149 333 q 260 383 231 326 q 301 567 293 447 q 301 636 303 601 q 292 701 299 671 q 276 753 286 731 q 251 789 265 776 q 247 800 244 793 q 257 813 247 813 q 267 808 260 813 q 326 708 307 776 q 342 563 346 640 q 324 451 338 500 q 286 368 310 403 q 192 308 244 306 q 81 417 126 313 q 40 693 31 531 q 135 1033 56 908 q 297 1139 207 1143 q 414 1047 369 1132 q 451 792 461 950 q 434 627 446 718 q 403 425 422 536 q 372 222 383 314 q 356 54 360 131 q 367 -94 350 -22 q 431 -183 385 -179 q 593 206 526 -190 q 614 639 599 311 q 625 886 621 785 q 633 1050 629 988 q 667 1100 638 1101 q 688 1019 692 1099 q 676 864 681 932 q 667 747 671 796 l 635 264 q 627 156 631 210 q 624 52 624 103 q 630 -45 624 1 q 653 -132 636 -92 q 692 -142 669 -149 m 774 6 q 764 20 771 19 q 749 11 757 21 q 737 -17 742 1 q 735 -62 732 -36 q 738 -110 735 -86 q 765 -60 754 -89 q 774 6 778 -28 z "},"Ч":{"ha":733,"x_min":15,"x_max":864,"o":"m 636 47 q 632 111 633 68 q 630 211 631 154 q 628 335 629 268 q 626 471 628 403 q 482 239 585 239 q 376 340 411 239 q 364 445 365 382 q 365 577 363 508 q 370 711 367 646 q 374 822 374 776 q 335 1036 374 960 q 246 1107 299 1107 q 125 997 176 1107 q 67 669 67 874 q 108 410 67 514 q 193 315 146 315 q 254 374 229 315 q 283 560 283 440 q 278 629 283 594 q 265 693 274 664 q 245 744 257 722 q 219 778 233 767 q 214 789 214 782 q 224 801 214 801 q 233 799 225 801 q 271 759 254 783 q 299 703 288 735 q 317 633 311 671 q 324 557 324 596 q 282 360 324 432 q 192 294 244 294 q 74 394 125 294 q 15 668 15 504 q 88 1014 15 883 q 242 1129 153 1129 q 364 1046 315 1129 q 418 793 418 951 q 415 698 418 757 q 410 576 413 639 q 409 453 408 513 q 418 356 410 393 q 488 271 443 271 q 622 626 581 271 l 622 651 q 617 899 619 797 q 615 1063 615 1000 q 646 1115 615 1115 q 671 1036 671 1115 q 670 881 671 949 q 668 764 669 813 l 668 279 q 696 -53 668 67 q 760 -158 718 -158 q 815 -133 792 -158 q 842 -87 832 -114 q 858 -62 851 -62 q 864 -74 864 -62 q 840 -146 864 -110 q 760 -192 808 -192 q 636 47 658 -192 z "},"Ш":{"ha":1050,"x_min":24,"x_max":1063,"o":"m 589 228 q 592 288 592 249 q 594 377 593 328 q 595 479 594 426 q 597 581 596 532 q 598 671 597 631 q 599 733 599 711 q 596 896 599 810 q 593 989 593 981 l 593 1011 q 622 1136 594 1136 q 644 989 646 1136 q 642 825 643 906 q 635 664 642 744 q 633 579 633 638 q 632 453 632 521 q 632 319 632 385 q 632 214 632 254 q 633 131 633 174 q 632 49 632 89 q 635 -27 632 8 q 643 -90 638 -62 q 672 -152 653 -142 q 712 -145 690 -162 q 756 -86 733 -128 q 796 9 778 -44 q 824 123 814 63 q 832 240 835 183 q 829 674 833 346 q 827 921 828 819 q 828 1085 826 1022 q 858 1138 828 1138 q 883 1058 883 1138 q 881 903 882 971 q 876 786 879 835 l 871 301 q 894 -31 868 89 q 957 -136 915 -136 q 1013 -111 989 -136 q 1040 -65 1031 -92 q 1056 -40 1050 -40 q 1063 -51 1063 -40 q 1038 -124 1063 -87 q 957 -169 1006 -169 q 836 69 856 -169 q 829 -8 840 33 q 799 -87 818 -50 q 754 -153 779 -125 q 704 -189 729 -181 q 647 -171 668 -200 q 615 -97 625 -142 q 603 -2 604 -51 q 606 75 603 47 q 456 -185 564 -185 q 351 -83 385 -185 q 325 113 324 -3 q 354 467 328 264 q 377 663 369 568 q 386 850 385 758 q 350 1064 388 988 q 261 1135 314 1135 q 139 1025 192 1135 q 76 697 79 901 q 115 438 75 542 q 199 343 151 343 q 261 401 235 343 q 292 588 290 468 q 288 657 293 622 q 276 721 283 692 q 256 772 268 750 q 231 806 244 794 q 225 817 225 810 q 236 829 226 829 q 246 826 238 829 q 282 787 265 811 q 310 731 299 763 q 327 661 321 699 q 332 585 333 624 q 289 388 331 460 q 197 322 250 322 q 81 422 131 322 q 25 696 24 532 q 101 1042 28 911 q 257 1157 168 1157 q 379 1074 331 1157 q 429 821 432 979 q 422 656 429 747 q 401 453 414 565 q 382 248 389 340 q 374 79 375 156 q 393 -68 372 0 q 461 -153 417 -153 q 538 -62 508 -153 q 589 228 567 29 z "},"Щ":{"ha":1114,"x_min":32,"x_max":1067,"o":"m 974 -29 q 986 33 971 10 q 1019 60 1001 57 q 1052 42 1038 64 q 1061 -31 1067 21 q 1042 -92 1058 -62 q 1004 -142 1026 -121 q 1006 -151 1006 -147 q 1017 -247 1013 -200 q 1019 -335 1021 -293 q 1006 -411 1018 -378 q 967 -467 993 -444 q 894 -496 940 -490 q 789 -474 839 -504 q 731 -382 739 -440 q 748 -308 725 -343 q 817 -253 771 -272 l 825 -249 q 839 -256 836 -247 q 837 -258 838 -257 q 831 -260 836 -260 q 784 -308 801 -275 q 772 -376 767 -340 q 795 -434 776 -411 q 840 -466 814 -457 q 894 -469 865 -475 q 947 -439 922 -462 q 985 -366 976 -411 q 990 -265 993 -321 q 982 -158 989 -214 q 956 -169 969 -165 q 906 -165 929 -178 q 833 69 843 -119 q 824 -8 836 33 q 792 -87 813 -50 q 747 -153 772 -125 q 696 -189 721 -181 q 638 -171 658 -200 q 608 -97 618 -142 q 599 -1 599 -51 q 603 69 600 43 q 447 -185 553 -185 q 344 -83 378 -185 q 327 6 332 -43 q 324 113 322 54 q 335 277 326 189 q 360 467 344 365 q 387 663 378 568 q 399 850 396 758 q 367 1064 403 989 q 282 1136 333 1135 q 156 1026 211 1136 q 88 699 94 906 q 92 556 85 619 q 119 439 100 492 q 201 344 156 344 q 265 403 238 344 q 301 588 294 467 q 299 657 303 622 q 287 722 294 692 q 268 774 279 751 q 243 807 257 796 q 239 818 239 810 q 249 831 239 831 q 258 828 250 831 q 322 731 299 797 q 342 585 344 664 q 292 389 335 460 q 200 324 251 324 q 85 424 135 324 q 36 697 32 532 q 118 1043 42 911 q 278 1158 189 1158 q 396 1074 353 1156 q 443 821 447 981 q 431 656 440 747 q 407 453 422 565 q 383 248 392 340 q 372 79 375 156 q 388 -68 368 3 q 454 -153 408 -153 q 533 -62 503 -153 q 590 228 563 28 q 594 288 592 249 q 598 377 596 328 q 601 479 600 426 q 605 581 603 532 q 608 671 607 631 q 610 733 608 711 q 610 896 611 810 q 609 962 610 939 q 608 989 608 985 l 610 1011 q 643 1136 614 1136 q 660 989 664 1136 q 655 825 657 906 q 644 664 653 744 q 640 579 642 638 q 637 453 639 521 q 634 319 635 385 q 633 214 633 254 q 632 131 633 174 q 630 49 631 89 q 631 -27 629 8 q 636 -90 632 -62 q 664 -151 646 -140 q 704 -145 682 -162 q 750 -86 726 -128 q 792 9 774 -44 q 822 123 811 63 q 833 240 833 183 q 837 401 836 293 q 840 672 838 508 q 844 1083 842 960 q 879 1136 849 1136 q 900 1057 901 1136 q 894 901 897 969 q 889 785 892 833 l 875 300 q 876 110 872 199 q 890 -37 881 22 q 919 -129 901 -104 q 965 -137 942 -144 q 979 -131 972 -135 q 974 -29 975 -79 m 999 -60 q 1001 -114 999 -86 q 1007 -108 1004 -111 q 1035 -56 1025 -87 q 1040 8 1044 -25 q 1030 23 1038 22 q 1014 14 1022 24 q 1001 -15 1006 4 q 999 -60 996 -33 z "},"Ъ":{"ha":676,"x_min":31,"x_max":643,"o":"m 585 268 q 573 408 585 340 q 541 527 561 475 q 494 610 521 579 q 438 642 467 642 q 401 628 418 642 q 371 592 385 615 q 349 540 357 569 q 342 476 342 510 q 351 410 342 439 q 363 382 360 382 l 364 383 q 354 375 361 375 q 323 406 342 375 q 304 488 304 438 q 316 558 304 525 q 347 615 328 590 q 390 653 365 639 q 442 667 415 667 q 517 631 481 667 q 581 538 553 596 q 626 404 610 479 q 643 250 643 329 q 625 86 643 165 q 576 -53 607 7 q 504 -151 544 -114 q 418 -187 464 -187 q 320 -155 365 -187 q 243 -62 275 -122 q 193 80 211 -3 q 175 261 175 163 q 181 421 175 329 q 212 614 188 513 q 283 819 236 715 q 351 939 311 881 q 293 963 322 950 q 200 990 244 983 q 117 979 156 997 q 50 897 78 961 q 38 894 46 890 q 36 908 31 901 q 171 1057 89 1031 q 237 1060 203 1068 q 306 1034 271 1051 q 374 996 340 1017 q 388 988 381 992 q 415 1021 400 1004 q 484 1067 446 1056 q 550 1068 522 1078 q 588 1031 578 1058 q 574 964 597 1004 q 487 917 533 921 q 392 928 440 914 q 382 929 388 929 q 282 685 317 822 q 232 290 235 501 q 245 112 231 194 q 286 -32 260 29 q 349 -128 313 -93 q 426 -165 385 -164 q 489 -129 460 -165 q 540 -33 518 -93 q 573 106 561 28 q 585 268 585 183 m 431 999 q 413 974 421 986 q 440 961 426 967 q 501 949 472 949 q 553 976 529 950 q 565 1024 571 1006 q 538 1048 558 1043 q 487 1041 517 1053 q 431 999 457 1029 z "},"Ы":{"ha":882,"x_min":11,"x_max":879,"o":"m 226 1082 q 126 1050 168 1079 q 57 977 83 1021 q 21 881 31 933 q 19 780 11 829 q 53 690 28 731 q 124 631 79 650 q 133 638 133 628 q 125 651 136 647 q 78 707 92 669 q 65 790 64 744 q 78 883 65 835 q 113 970 92 931 q 160 1036 133 1010 q 215 1063 188 1063 q 265 1017 253 1058 q 274 910 278 975 q 256 763 271 844 q 226 596 242 681 q 197 430 210 511 q 185 285 185 349 q 204 100 185 186 q 258 -50 224 14 q 338 -151 292 -114 q 436 -187 383 -187 q 522 -147 482 -187 q 594 -42 563 -107 q 643 106 625 24 q 661 274 661 189 q 644 428 661 353 q 599 561 628 503 q 535 655 571 619 q 460 690 499 690 q 408 676 433 690 q 365 638 383 663 q 334 581 346 614 q 322 511 322 549 q 341 430 322 461 q 372 399 360 399 q 382 407 379 399 q 381 406 381 406 q 369 434 378 406 q 360 500 360 463 q 367 563 360 533 q 389 616 375 593 q 419 652 403 639 q 456 665 436 665 q 511 634 485 665 q 558 551 538 603 q 589 431 578 499 q 600 292 600 364 q 588 125 600 207 q 556 -22 576 43 q 506 -126 535 -86 q 444 -165 478 -165 q 366 -124 403 -164 q 302 -19 329 -85 q 260 132 275 46 q 249 314 244 218 q 263 462 251 381 q 288 627 275 543 q 308 791 300 711 q 314 934 317 871 q 291 1038 311 997 q 226 1082 271 1078 m 725 419 q 738 691 726 557 q 771 928 749 825 q 838 1103 806 1103 q 879 1065 879 1103 q 867 1042 879 1054 q 850 1021 854 1031 q 808 851 831 981 q 784 641 793 758 q 774 410 775 524 q 789 22 774 161 q 836 -172 804 -117 q 839 -183 839 -181 q 828 -193 839 -193 q 817 -186 821 -193 q 748 50 771 -96 q 725 419 725 196 z "},"Ь":{"ha":676,"x_min":-3,"x_max":647,"o":"m 213 1082 q 277 1038 257 1078 q 300 934 297 997 q 294 791 303 871 q 274 627 286 711 q 249 462 261 543 q 235 314 238 381 q 246 132 231 218 q 288 -19 261 46 q 352 -124 315 -85 q 431 -165 389 -164 q 492 -126 464 -165 q 542 -22 521 -86 q 574 125 563 43 q 586 292 586 207 q 575 431 586 364 q 544 551 564 499 q 497 634 524 603 q 442 665 471 665 q 406 652 422 665 q 375 616 389 639 q 353 563 361 593 q 346 500 346 533 q 355 434 346 463 q 367 406 364 406 q 368 407 367 406 q 358 399 365 399 q 327 430 346 399 q 308 511 308 461 q 320 581 308 549 q 351 638 332 614 q 394 676 369 663 q 446 690 419 690 q 521 655 485 690 q 585 561 557 619 q 631 428 614 503 q 647 274 647 353 q 629 106 647 189 q 580 -42 611 24 q 508 -147 549 -107 q 422 -187 468 -187 q 324 -151 369 -187 q 244 -50 278 -114 q 190 100 210 14 q 171 285 171 186 q 183 430 171 349 q 212 596 196 511 q 242 763 228 681 q 260 910 257 844 q 251 1017 264 975 q 201 1063 239 1058 q 147 1036 174 1063 q 99 970 119 1010 q 65 883 78 931 q 51 790 51 835 q 64 707 50 744 q 111 651 78 669 q 119 638 122 647 q 110 631 119 628 q 40 690 65 650 q 6 780 14 731 q 7 881 -3 829 q 43 977 17 933 q 112 1050 69 1021 q 213 1082 154 1079 z "},"Э":{"ha":603,"x_min":19,"x_max":583,"o":"m 392 500 q 307 468 351 499 q 265 440 263 440 q 246 472 246 440 q 292 511 246 492 q 396 533 336 531 q 431 531 411 535 q 471 519 451 526 q 464 631 468 581 q 454 717 460 681 q 429 853 446 789 q 388 966 413 917 q 333 1047 364 1015 q 267 1089 303 1079 l 264 1089 q 194 1069 225 1097 q 144 992 164 1040 q 114 885 124 943 q 108 776 104 826 q 128 690 111 725 q 178 654 144 654 q 236 687 210 651 q 271 776 263 722 q 274 818 275 797 q 272 856 274 839 q 266 883 269 872 q 261 893 263 893 q 274 900 261 900 q 292 889 281 900 q 312 859 303 878 q 326 817 321 840 q 326 769 331 794 q 306 712 322 738 q 267 669 289 686 q 220 642 246 651 q 171 633 194 633 q 91 672 121 635 q 51 762 61 708 q 51 878 42 815 q 88 994 61 940 q 160 1081 115 1047 q 267 1114 206 1115 q 420 982 357 1086 q 511 701 483 878 q 521 608 517 663 q 528 494 525 553 q 581 453 561 475 q 583 444 583 447 q 569 432 583 432 q 529 458 564 432 l 529 354 q 503 147 525 242 q 444 -15 481 53 q 357 -122 407 -83 q 249 -160 307 -160 q 165 -144 206 -160 q 92 -98 124 -129 q 40 -19 60 -67 q 19 90 21 28 q 38 205 21 153 q 83 293 56 257 q 147 349 111 329 q 222 369 182 369 q 288 345 260 369 q 335 283 317 321 q 358 200 353 246 q 356 111 364 154 q 324 33 347 68 q 258 -18 300 -3 q 252 -20 254 -19 q 247 -21 250 -21 q 236 -12 236 -21 q 242 -3 236 -7 q 283 45 267 13 q 308 117 300 78 q 315 198 315 157 q 303 273 314 239 q 274 328 293 307 q 224 350 254 350 q 167 329 194 350 q 120 272 140 308 q 89 184 100 235 q 82 74 78 133 q 140 -95 94 -40 q 254 -140 185 -150 q 367 -67 324 -131 q 435 87 411 -4 q 466 284 458 178 q 472 488 474 390 q 428 499 450 494 q 392 500 407 503 z "},"Ю":{"ha":1121,"x_min":19,"x_max":1094,"o":"m 1094 535 q 1028 64 1094 264 q 839 -153 954 -153 q 617 54 699 -153 q 547 425 553 214 q 443 335 493 411 q 392 -50 431 111 q 318 -214 354 -214 q 282 -106 282 -214 q 385 296 282 101 q 389 522 389 406 q 338 943 389 789 q 225 1083 292 1083 q 122 965 164 1083 q 76 614 76 833 q 106 368 76 465 q 197 260 139 260 q 229 274 214 260 q 256 314 244 289 q 273 372 267 339 q 279 443 279 406 q 263 563 279 510 q 246 606 249 608 q 258 615 246 615 q 290 574 269 615 q 318 435 318 515 q 278 288 318 340 q 196 242 242 242 q 65 358 115 242 q 19 625 19 468 q 85 988 19 846 q 224 1114 143 1114 q 375 963 311 1114 q 449 493 449 788 q 448 440 449 467 q 446 386 447 414 q 547 457 496 444 l 547 475 q 585 754 547 647 q 599 765 589 765 q 604 757 604 765 q 603 749 604 754 q 600 740 601 744 q 592 651 594 700 q 589 543 589 601 q 589 498 589 519 q 590 456 589 476 q 651 388 636 432 q 653 382 653 386 q 647 372 653 372 q 633 383 638 372 q 592 426 619 413 q 638 122 600 253 q 819 -96 700 -96 q 989 114 925 -96 q 1050 564 1050 306 q 997 951 1050 797 q 836 1124 942 1124 q 725 1035 768 1124 q 676 769 676 935 q 718 451 676 590 q 835 301 765 301 q 867 316 851 301 q 893 356 882 331 q 910 414 904 381 q 917 485 917 447 q 900 604 917 551 q 883 647 886 650 q 896 657 883 657 q 928 615 908 657 q 956 476 956 557 q 917 329 956 381 q 833 283 881 283 q 683 432 742 283 q 631 753 631 569 q 679 1028 631 919 q 833 1150 733 1150 q 1032 960 961 1150 q 1094 535 1094 790 m 381 213 q 308 -137 308 35 q 321 -165 308 -165 q 381 213 360 -165 z "},"Я":{"ha":946,"x_min":28,"x_max":914,"o":"m 232 -267 q 140 -242 176 -265 q 81 -181 103 -218 q 47 -98 58 -144 q 33 -3 36 -51 q 85 257 28 128 q 243 394 149 392 q 329 347 296 394 q 361 235 357 304 q 326 58 365 142 q 224 -28 285 -26 q 214 -19 214 -28 q 225 -10 214 -10 q 294 51 267 -7 q 322 222 328 117 q 247 378 314 378 q 131 261 183 376 q 108 184 118 232 q 94 80 99 136 q 93 -34 90 24 q 110 -137 96 -92 q 149 -212 124 -183 q 214 -239 174 -240 q 354 -178 290 -239 q 467 -24 418 -118 q 551 185 517 71 q 606 410 586 300 q 608 426 607 418 q 611 443 610 435 q 406 524 483 464 q 292 660 328 583 q 259 819 256 736 q 298 971 263 903 q 399 1081 333 1039 q 554 1117 465 1122 q 633 1074 603 1108 q 678 986 663 1039 q 699 867 694 933 q 699 730 703 800 q 687 590 696 660 q 667 460 678 519 q 684 458 675 458 q 701 457 693 458 q 703 460 703 460 q 704 464 703 461 l 719 464 q 718 450 718 457 q 717 435 718 443 l 718 433 l 717 433 q 715 356 715 399 q 717 267 714 313 q 727 179 719 222 q 748 103 735 136 q 782 50 761 69 q 833 32 803 31 q 869 55 853 33 q 900 114 885 76 q 908 115 903 121 q 914 104 914 110 q 905 68 911 86 q 888 35 899 50 q 863 11 878 21 q 829 1 847 1 q 726 45 761 0 q 678 157 690 90 q 673 299 667 224 q 696 433 679 374 q 679 435 688 435 q 663 436 671 436 q 660 420 661 428 q 657 406 658 413 q 628 277 646 349 q 586 131 611 206 q 527 -14 561 57 q 449 -140 493 -85 q 351 -228 406 -194 q 229 -262 296 -262 l 232 -267 m 549 1094 q 435 1069 485 1106 q 358 971 386 1033 q 328 831 331 908 q 354 679 325 753 q 447 548 383 606 q 615 468 511 490 q 637 597 626 529 q 653 733 647 665 q 658 861 658 800 q 647 972 657 922 q 613 1053 636 1021 q 549 1094 589 1086 z "},"а":{"ha":286,"x_min":18,"x_max":361,"o":"m 361 218 q 328 103 361 181 q 251 11 289 11 q 189 108 196 11 l 186 108 q 72 -25 124 -25 q 18 85 18 -25 q 83 278 18 186 q 210 372 144 365 q 214 425 214 417 q 169 496 214 496 q 122 464 144 496 q 100 390 100 432 q 82 360 100 360 q 61 390 61 360 q 95 472 61 428 q 169 515 129 515 q 249 403 249 515 q 239 267 249 358 q 229 138 229 176 q 254 63 229 63 q 308 125 281 63 q 336 214 333 178 q 349 229 338 229 q 361 218 361 229 m 208 346 q 104 263 153 338 q 56 108 56 188 q 90 49 56 49 q 163 122 121 49 q 204 243 204 194 q 208 346 204 285 z "},"б":{"ha":353,"x_min":36,"x_max":465,"o":"m 271 385 q 229 369 251 382 q 192 340 207 357 q 149 219 149 296 q 174 120 149 167 q 239 58 200 74 q 271 145 261 97 q 281 251 281 193 q 270 351 281 293 q 247 467 260 408 q 220 581 233 526 q 203 672 207 636 q 213 763 199 732 q 251 812 228 794 q 301 839 274 829 q 351 865 328 849 q 388 910 374 881 q 399 996 401 940 q 453 908 440 947 q 429 836 465 869 q 371 807 406 814 q 304 790 336 800 q 250 761 272 781 q 229 696 228 742 q 245 587 231 647 q 277 463 260 526 q 308 340 294 400 q 322 235 322 281 q 310 135 321 181 q 276 53 300 89 q 397 189 358 56 q 411 203 401 203 q 419 190 419 203 q 375 76 419 133 q 272 15 326 15 q 250 18 264 15 q 174 -12 218 -12 q 75 55 114 -12 q 36 235 36 122 q 78 410 36 336 q 179 482 119 482 q 197 480 185 482 q 224 471 210 478 q 252 452 238 464 q 276 421 267 440 l 256 421 q 220 451 240 444 q 189 458 200 458 q 103 367 133 458 q 78 215 78 293 q 99 85 78 144 q 172 8 125 8 q 219 31 197 8 q 152 104 179 54 q 125 213 125 154 q 171 347 125 294 q 256 400 210 394 l 271 385 z "},"в":{"ha":360,"x_min":-21,"x_max":431,"o":"m 21 454 q -14 439 -10 435 q -17 456 -21 446 l 13 481 q 26 490 19 485 q 25 578 25 539 l 25 642 q 186 1057 25 1057 q 277 1013 246 1057 q 299 863 308 968 q 269 767 294 821 q 206 658 244 714 q 119 549 168 603 q 57 485 89 515 q 58 426 57 458 q 65 288 60 360 q 84 156 71 215 q 119 59 97 97 q 176 19 142 21 q 238 61 215 18 q 184 103 208 75 q 142 167 160 131 q 116 244 125 203 q 107 331 107 286 q 115 410 107 372 q 138 475 124 447 q 173 519 153 503 q 218 536 193 536 q 258 516 239 536 q 291 462 276 496 q 314 381 306 428 q 322 279 322 333 q 281 74 322 158 q 299 72 288 72 q 403 186 376 72 q 418 221 411 221 q 431 210 431 221 q 426 172 431 190 q 381 84 415 121 q 299 47 347 47 q 283 48 292 47 q 268 50 275 49 q 172 -11 236 -11 q 79 67 111 -11 q 56 152 65 101 q 42 259 47 203 q 32 374 36 315 q 28 460 29 418 l 21 454 m 101 565 q 180 672 146 615 q 235 787 214 728 q 256 897 256 846 q 239 994 256 958 q 185 1029 222 1029 q 96 929 122 1029 q 61 626 69 829 q 58 547 60 601 q 57 518 58 533 q 101 565 79 540 m 283 267 q 278 349 283 310 q 262 418 272 389 q 238 465 251 447 q 207 482 224 482 q 155 440 176 482 q 133 335 133 397 q 142 253 133 293 q 165 181 150 214 q 202 122 181 147 q 250 85 224 97 q 283 267 283 161 z "},"г":{"ha":326,"x_min":44,"x_max":349,"o":"m 44 163 q 99 428 69 343 q 186 511 129 514 q 238 492 221 508 q 257 449 254 475 q 253 392 260 422 q 232 332 246 361 q 196 240 211 286 q 176 156 181 194 q 181 88 172 117 q 218 50 190 60 q 251 54 233 49 q 284 77 268 60 q 313 128 300 94 q 331 219 325 163 q 340 232 332 233 q 349 228 349 231 q 349 219 349 225 q 343 170 349 204 q 326 101 338 136 q 294 37 314 65 q 246 4 275 8 q 178 16 203 -3 q 139 88 153 35 q 142 156 133 118 q 165 232 151 193 q 194 308 179 271 q 217 377 210 346 q 217 430 224 408 q 185 457 211 451 q 149 444 165 461 q 117 390 132 426 q 91 300 103 353 q 69 182 79 247 q 66 155 69 165 q 58 142 63 144 q 49 143 53 139 q 44 163 44 147 z "},"д":{"ha":275,"x_min":-62,"x_max":269,"o":"m 269 471 q 256 360 269 469 q 243 196 243 251 q 247 52 243 129 q 251 -71 251 -25 q 200 -329 251 -242 q 90 -404 158 -404 q -15 -356 29 -404 q -62 -214 -62 -301 q -40 -124 -62 -124 q -32 -133 -32 -124 q -35 -151 -32 -131 q -39 -204 -39 -171 q -3 -329 -39 -281 q 81 -378 33 -378 q 176 -293 139 -378 q 221 13 221 -190 q 213 132 221 110 q 182 61 206 97 q 117 14 151 14 q 40 168 40 14 q 90 422 40 296 q 192 549 139 549 q 225 526 210 549 q 231 547 228 536 q 247 557 235 557 q 265 540 261 557 q 269 471 269 524 m 215 458 q 185 513 213 513 q 121 421 151 513 q 88 199 88 322 q 133 78 88 78 q 193 158 171 78 q 215 342 215 232 q 215 458 215 464 z "},"е":{"ha":264,"x_min":26,"x_max":329,"o":"m 329 183 q 277 61 329 124 q 165 -1 225 -1 q 61 43 99 -1 q 26 142 26 82 q 56 232 26 190 q 135 289 86 274 q 94 343 114 308 q 61 465 61 403 q 81 524 61 503 q 132 546 101 546 q 197 511 169 546 q 221 458 221 482 q 207 443 221 443 q 193 474 206 443 q 149 504 181 504 q 106 442 106 504 q 131 341 106 392 q 189 290 157 290 q 210 274 210 290 q 179 258 210 258 q 92 217 125 258 q 60 126 60 176 q 144 35 60 35 q 251 85 203 35 q 306 181 294 129 q 321 201 311 201 q 329 183 329 201 z "},"ж":{"ha":686,"x_min":54,"x_max":725,"o":"m 596 1 q 483 49 524 -1 q 442 190 442 99 q 444 239 442 214 q 424 242 435 240 q 413 242 417 242 l 411 108 l 411 -36 q 410 -89 410 -67 l 410 -126 q 414 -169 410 -144 q 418 -199 418 -193 q 413 -214 418 -214 q 383 -187 383 -214 l 385 240 q 343 235 365 239 q 332 181 339 208 q 296 92 318 132 q 245 26 274 51 q 188 0 217 0 q 132 26 154 0 q 110 93 110 53 q 133 156 110 129 q 192 182 156 182 q 203 175 203 182 q 190 167 203 167 q 160 142 171 167 q 149 86 149 118 q 190 19 149 19 q 233 42 213 19 q 268 102 253 65 q 292 183 283 139 q 299 222 296 203 l 296 221 q 276 212 285 215 q 263 206 268 208 q 251 201 257 203 q 237 205 240 201 q 233 219 233 208 q 281 244 233 232 q 300 249 290 247 q 301 271 301 260 q 236 433 301 403 q 176 416 204 439 q 128 356 149 393 q 92 275 107 318 q 72 199 78 232 q 68 188 69 188 l 63 188 q 57 187 60 188 q 54 196 54 186 q 67 274 54 229 q 101 362 79 319 q 154 435 124 404 q 222 468 185 465 q 269 449 247 465 q 309 408 292 433 q 336 349 326 382 q 346 278 346 315 l 346 258 q 385 264 364 261 l 385 358 q 425 754 385 754 q 442 682 442 754 q 438 606 442 664 q 426 447 433 547 q 420 367 422 397 q 416 319 418 338 q 413 288 414 300 q 413 264 413 276 q 443 261 426 264 q 449 260 446 260 q 456 289 451 275 q 492 379 469 339 q 544 444 515 419 q 603 469 572 469 q 657 442 635 469 q 679 376 679 415 q 657 313 679 340 q 599 286 635 286 q 588 294 588 286 q 600 301 588 301 q 629 326 618 301 q 640 382 640 350 q 600 449 640 449 q 558 426 578 449 q 522 368 538 404 q 496 286 506 332 q 490 251 493 269 l 500 249 q 553 232 529 242 q 593 211 578 222 q 595 208 594 208 q 596 204 596 207 q 581 196 596 196 q 567 201 579 196 q 535 217 556 206 q 504 226 524 222 q 489 231 497 229 q 488 197 488 214 q 512 69 488 111 q 589 26 536 26 q 624 45 606 31 q 658 81 642 60 q 686 130 674 103 q 704 185 699 157 q 718 206 708 206 q 725 188 725 206 q 714 130 725 161 q 684 72 703 99 q 642 25 665 44 q 596 1 619 6 z "},"з":{"ha":308,"x_min":36,"x_max":379,"o":"m 192 190 q 173 159 182 175 q 153 125 164 143 q 260 38 235 125 q 356 203 339 103 q 371 231 360 231 q 379 210 379 231 q 378 194 379 199 q 265 8 354 75 q 267 -14 267 -3 q 268 -36 268 -25 q 226 -215 268 -139 q 104 -303 178 -303 q 44 -233 44 -303 q 218 7 44 -126 q 140 101 203 101 q 78 31 100 31 q 64 47 64 31 q 122 124 64 92 l 168 206 q 206 305 199 265 q 204 365 213 344 q 188 387 199 379 q 167 398 178 394 q 149 401 157 401 q 138 400 140 401 q 108 372 122 393 q 88 306 94 350 q 61 164 67 175 q 44 151 57 151 q 36 160 36 151 q 38 168 36 164 q 58 282 50 199 q 68 355 64 326 q 76 399 72 383 q 98 436 85 426 q 126 453 111 446 q 156 458 138 457 q 194 453 175 460 q 230 431 214 447 q 249 383 246 414 q 240 306 253 353 q 192 190 228 258 m 222 -46 q 222 -35 222 -40 q 221 -24 222 -29 q 67 -236 67 -143 q 107 -282 67 -282 q 190 -204 154 -282 q 222 -46 222 -129 z "},"и":{"ha":285,"x_min":40,"x_max":358,"o":"m 358 218 q 324 97 358 179 q 244 0 285 0 q 183 131 196 0 q 117 14 167 14 q 40 225 40 14 q 57 410 40 321 q 93 499 74 499 q 108 472 108 499 q 91 381 108 465 q 74 189 74 296 q 121 78 74 78 q 182 207 165 78 q 196 319 189 263 q 226 410 208 410 q 239 396 239 410 q 229 326 239 393 q 217 172 217 249 q 250 44 217 44 q 304 115 274 44 q 335 214 332 178 q 344 229 336 229 q 358 218 358 229 z "},"й":{"ha":285,"x_min":40,"x_max":418,"o":"m 358 218 q 324 97 358 179 q 244 0 285 0 q 183 131 196 0 q 117 14 167 14 q 40 225 40 14 q 57 410 40 321 q 93 499 74 499 q 108 472 108 499 q 91 381 108 465 q 74 189 74 296 q 121 78 74 78 q 182 207 165 78 q 196 319 189 263 q 226 410 208 410 q 239 396 239 410 q 229 326 239 393 q 217 172 217 249 q 250 44 217 44 q 304 115 274 44 q 335 214 332 178 q 344 229 336 229 q 358 218 358 229 m 418 756 q 257 688 413 739 q 300 583 279 643 l 299 583 q 240 663 288 588 q 207 572 221 610 q 171 496 179 500 q 213 675 168 518 q 150 657 176 664 q 86 649 100 646 l 85 650 q 214 706 90 664 q 129 882 125 858 l 132 882 q 231 735 154 876 q 357 1064 329 1050 q 346 994 360 1049 q 261 721 326 918 q 418 758 392 763 l 418 756 z "},"к":{"ha":296,"x_min":36,"x_max":336,"o":"m 64 179 q 63 117 63 149 q 64 69 64 85 q 69 28 64 51 q 75 -1 75 4 q 67 -17 74 -17 q 38 10 36 -17 q 38 73 38 35 q 38 153 39 111 q 38 237 38 196 q 39 308 38 278 q 43 424 39 381 q 52 489 47 467 q 63 517 57 511 q 74 524 68 524 q 81 506 81 524 q 79 453 81 489 q 78 417 79 449 q 74 336 76 385 q 98 397 83 368 q 131 449 113 426 q 167 485 149 472 q 200 499 185 499 q 252 475 232 499 q 272 413 272 451 q 260 390 269 399 q 241 378 251 381 q 223 381 231 375 q 218 403 215 386 q 185 444 219 444 q 151 428 167 444 q 120 387 135 413 q 94 329 106 361 q 75 265 82 297 q 124 282 99 283 q 161 269 150 281 q 174 236 172 258 q 175 185 175 214 q 175 142 175 164 q 178 104 175 121 q 189 77 181 88 q 214 67 197 67 q 244 82 228 67 q 274 120 260 97 q 298 169 288 143 q 311 214 308 194 q 322 229 314 229 q 336 218 336 229 q 322 163 335 200 q 292 90 310 126 q 254 27 275 54 q 217 0 233 0 q 175 19 190 0 q 153 66 160 38 q 145 130 146 94 q 146 201 144 165 q 136 240 146 229 q 114 251 126 251 q 88 243 101 251 q 67 222 75 235 q 65 201 67 211 q 64 179 64 190 z "},"л":{"ha":440,"x_min":13,"x_max":469,"o":"m 100 -1 q 43 24 63 4 q 18 69 24 43 q 17 122 13 94 q 31 171 21 149 q 49 192 38 185 q 69 197 60 199 q 85 184 79 194 q 86 154 90 174 q 76 63 72 86 q 110 39 79 40 q 165 92 143 46 q 204 202 188 139 q 235 332 221 265 q 267 447 250 399 q 344 590 317 590 q 362 581 351 590 q 372 561 372 571 q 347 442 372 579 q 330 298 336 372 q 324 142 324 224 q 361 39 324 39 q 415 93 383 39 q 446 171 438 136 q 457 183 450 183 q 469 167 469 183 q 468 158 469 165 q 431 72 463 129 q 356 0 392 0 q 288 258 288 0 q 308 483 288 360 l 306 482 q 285 421 296 463 q 263 331 274 379 q 242 237 251 283 q 224 161 232 190 q 201 100 215 129 q 169 48 186 71 q 133 12 151 25 q 100 -1 115 -1 z "},"м":{"ha":568,"x_min":18,"x_max":600,"o":"m 290 21 q 291 111 292 58 q 291 221 290 164 q 294 335 292 278 q 306 438 297 392 l 303 436 q 283 382 293 417 q 263 308 272 347 q 243 229 253 268 q 225 161 233 190 q 171 47 203 94 q 107 -1 139 -1 q 49 25 68 4 q 24 72 31 46 q 23 124 18 97 q 38 168 28 150 q 56 185 44 181 q 78 189 68 190 q 94 178 89 188 q 96 154 100 169 q 84 69 82 97 q 117 39 86 40 q 153 60 136 39 q 184 116 169 82 q 210 192 199 150 q 233 274 222 233 q 251 348 243 314 q 264 401 258 382 q 342 544 310 544 q 356 535 349 544 q 363 515 363 525 q 338 396 363 533 q 329 333 332 361 q 325 275 326 304 q 324 214 324 246 q 324 142 324 182 q 343 188 332 156 q 367 259 354 219 q 392 340 379 299 q 417 417 406 382 q 439 474 429 451 q 454 496 449 496 q 474 478 474 496 q 469 456 474 479 q 458 388 465 433 q 453 348 454 364 q 452 317 451 332 q 453 285 453 301 q 454 247 454 269 q 497 65 454 65 q 578 190 544 65 q 592 208 582 208 q 600 192 600 208 q 561 82 600 154 q 488 4 521 4 q 449 35 463 4 q 427 110 435 65 q 418 206 419 156 q 417 294 417 256 q 371 190 392 243 q 331 63 350 138 q 317 17 322 32 q 306 3 313 3 q 290 21 290 3 z "},"н":{"ha":293,"x_min":44,"x_max":338,"o":"m 76 43 q 76 -6 76 4 q 64 -17 76 -17 q 46 10 46 -17 l 46 133 q 44 217 44 182 q 44 274 44 251 q 79 564 44 564 q 93 493 93 564 q 91 457 93 483 q 83 388 89 431 q 75 290 76 326 l 156 300 q 159 344 157 321 q 165 396 161 367 q 176 463 169 425 q 190 551 182 501 q 203 574 194 568 q 219 578 211 579 q 233 572 226 576 q 240 563 239 567 q 215 442 238 568 q 198 298 204 372 q 192 142 192 224 q 229 39 192 39 q 283 93 251 39 q 314 171 306 136 q 325 183 318 183 q 338 167 338 183 q 336 158 338 165 q 299 72 331 129 q 224 0 260 0 q 156 258 156 0 l 156 269 l 74 264 l 74 254 l 76 43 z "},"о":{"ha":353,"x_min":36,"x_max":419,"o":"m 419 190 q 375 76 419 132 q 272 15 328 15 q 250 18 261 15 q 174 -12 217 -12 q 75 55 114 -12 q 36 235 36 122 q 78 410 36 338 q 179 482 119 482 q 281 410 239 482 q 322 235 322 338 q 276 53 322 126 q 397 189 357 54 q 411 203 401 203 q 419 190 419 203 m 283 251 q 263 381 283 321 q 192 340 224 374 q 149 219 149 294 q 174 120 149 167 q 239 58 200 74 q 283 251 283 136 m 256 400 q 189 458 231 458 q 103 367 135 458 q 78 215 78 294 q 99 85 78 144 q 172 8 125 8 q 219 31 197 8 q 152 104 179 54 q 125 213 125 154 q 171 347 125 294 q 256 400 208 393 z "},"п":{"ha":267,"x_min":44,"x_max":329,"o":"m 329 167 q 328 158 329 169 q 290 72 322 128 q 215 0 250 0 q 147 258 147 0 q 168 483 147 360 l 165 482 q 110 294 140 422 q 78 103 78 161 q 76 43 78 82 q 76 -6 76 4 q 64 -17 76 -17 q 46 10 46 -17 q 46 133 46 36 q 44 274 44 231 q 79 564 44 564 q 93 493 93 564 q 83 388 93 474 q 74 254 75 296 l 76 256 q 126 447 90 335 q 204 590 172 590 q 222 581 211 590 q 232 561 232 571 q 208 442 232 579 q 183 142 183 304 q 221 39 183 39 q 275 93 244 39 q 306 171 297 136 q 317 183 310 183 q 329 167 329 183 z "},"р":{"ha":303,"x_min":38,"x_max":378,"o":"m 375 207 q 346 111 361 142 q 246 47 313 47 q 185 67 214 47 q 139 54 163 54 q 72 90 99 54 l 72 60 q 74 -149 71 -67 q 76 -254 76 -239 q 57 -286 76 -286 q 38 -256 38 -286 q 43 -154 38 -247 q 46 64 47 -68 l 46 468 q 46 479 46 472 q 46 489 46 486 q 68 529 46 529 q 90 507 90 529 q 89 490 90 501 q 88 475 88 479 q 88 464 88 471 q 175 529 122 529 q 247 469 217 529 q 281 306 281 404 q 207 85 281 156 q 247 72 224 72 q 347 186 321 72 q 363 221 354 221 q 375 207 378 221 m 240 296 q 217 427 240 372 q 154 482 193 482 q 103 447 125 482 q 81 358 81 413 q 183 100 81 182 q 240 296 240 161 m 161 83 q 75 226 103 132 q 74 158 75 217 q 144 81 93 81 q 161 83 153 81 z "},"с":{"ha":317,"x_min":31,"x_max":382,"o":"m 382 183 q 326 58 382 118 q 204 -1 269 -1 q 69 54 115 -1 q 31 183 31 103 q 83 369 31 282 q 201 456 135 456 q 263 419 239 456 q 282 338 282 386 q 260 256 282 290 q 200 221 239 221 q 188 231 188 221 q 201 240 188 240 q 233 272 221 240 q 246 346 246 304 q 199 436 246 436 q 113 358 150 436 q 76 190 76 279 q 197 24 76 24 q 310 81 264 24 q 360 181 346 122 q 374 201 364 201 q 382 183 382 201 z "}}}
